<?xml version="1.0" standalone="no"?>
<!DOCTYPE svg PUBLIC "-//W3C//DTD SVG 1.1//EN" "http://www.w3.org/Graphics/SVG/1.1/DTD/svg11.dtd" >
<svg>
<metadata>
Created by FontForge 20090622 at Wed Mar  8 04:01:06 2017
 By deploy user
Copyright &#194;&#169; 2015 by Wei Huang. All rights reserved.
</metadata>
<defs>
<font id="WorkSans-Regular" horiz-adv-x="604" >
  <font-face 
    font-family="Work Sans"
    font-weight="400"
    font-stretch="normal"
    units-per-em="1000"
    panose-1="0 0 5 0 0 0 0 0 0 0"
    ascent="800"
    descent="-200"
    x-height="500"
    cap-height="660"
    bbox="-325 -337 1204 930"
    underline-thickness="50"
    underline-position="-50"
    unicode-range="U+0020-U+FB02"
  />
<missing-glyph horiz-adv-x="500" 
d="M50 660h400v-660h-400v660zM370 80v500h-240v-500h240z" />
    <glyph glyph-name="fi" unicode="fi" horiz-adv-x="659" 
d="M212 500h167v-69h-167v-431h-80v431h-100v69h100v84q0 69 42 110t122 41q27 0 49.5 -6t35.5 -17l-21 -65q-24 15 -57 15q-91 0 -91 -86v-76zM482.5 612.5q-16.5 16.5 -16.5 43.5t16.5 43.5t43.5 16.5t43.5 -16.5t16.5 -43.5t-16.5 -43.5t-43.5 -16.5t-43.5 16.5zM566 0
h-80v500h80v-500z" />
    <glyph glyph-name="fl" unicode="fl" horiz-adv-x="699" 
d="M212 500h167v-69h-167v-431h-80v431h-100v69h100v84q0 69 42 110t122 41q27 0 49.5 -6t35.5 -17l-21 -65q-24 15 -57 15q-91 0 -91 -86v-76zM562 134q0 -38 11.5 -52.5t42.5 -14.5q21 0 36.5 3t36.5 11l-13 -77q-33 -14 -74 -14q-61 0 -90.5 33t-29.5 101v606h80v-596z
" />
    <glyph glyph-name=".notdef" horiz-adv-x="500" 
d="M50 660h400v-660h-400v660zM370 80v500h-240v-500h240z" />
    <glyph glyph-name="space" unicode=" " horiz-adv-x="341" 
 />
    <glyph glyph-name="A" unicode="A" horiz-adv-x="660" 
d="M479 183h-299l-70 -183h-84l257 660h95l256 -660h-85zM450 258l-89 234l-31 92h-2l-29 -89l-90 -237h241z" />
    <glyph glyph-name="Aacute" unicode="&#xc1;" horiz-adv-x="660" 
d="M353 743h-65l57 148h94zM479 183h-299l-70 -183h-84l257 660h95l256 -660h-85zM450 258l-89 234l-31 92h-2l-29 -89l-90 -237h241z" />
    <glyph glyph-name="Abreve" unicode="&#x102;" horiz-adv-x="660" 
d="M479 183h-299l-70 -183h-84l257 660h95l256 -660h-85zM450 258l-89 234l-31 92h-2l-29 -89l-90 -237h241zM437 778q-41 -41 -107 -41t-107 41t-41 107h66q0 -36 23.5 -62t58.5 -26t58.5 26t23.5 62h66q0 -66 -41 -107z" />
    <glyph glyph-name="Acircumflex" unicode="&#xc2;" horiz-adv-x="660" 
d="M244 736h-73l114 167h90l114 -167h-73l-86 115zM479 183h-299l-70 -183h-84l257 660h95l256 -660h-85zM450 258l-89 234l-31 92h-2l-29 -89l-90 -237h241z" />
    <glyph glyph-name="Adieresis" unicode="&#xc4;" horiz-adv-x="660" 
d="M479 183h-299l-70 -183h-84l257 660h95l256 -660h-85zM450 258l-89 234l-31 92h-2l-29 -89l-90 -237h241zM274.5 840.5q15.5 -15.5 15.5 -41.5q0 -25 -15.5 -41t-41.5 -16q-25 0 -41 16t-16 41q0 26 16 41.5t41 15.5q26 0 41.5 -15.5zM468.5 840.5q15.5 -15.5 15.5 -41.5
q0 -25 -15.5 -41t-41.5 -16q-25 0 -41 16t-16 41q0 26 16 41.5t41 15.5q26 0 41.5 -15.5z" />
    <glyph glyph-name="Agrave" unicode="&#xc0;" horiz-adv-x="660" 
d="M298 743l-86 148h94l57 -148h-65zM479 183h-299l-70 -183h-84l257 660h95l256 -660h-85zM450 258l-89 234l-31 92h-2l-29 -89l-90 -237h241z" />
    <glyph glyph-name="Amacron" unicode="&#x100;" horiz-adv-x="660" 
d="M479 183h-299l-70 -183h-84l257 660h95l256 -660h-85zM450 258l-89 234l-31 92h-2l-29 -89l-90 -237h241zM504 756h-348v67h348v-67z" />
    <glyph glyph-name="Aogonek" unicode="&#x104;" horiz-adv-x="660" 
d="M646 -196q-14 -9 -36.5 -14t-45.5 -5q-55 0 -87 27.5t-32 76.5q0 83 98 125l-64 169h-299l-70 -183h-84l257 660h95l256 -660q-71 -23 -97.5 -48.5t-26.5 -57.5q0 -25 17 -38.5t47 -13.5q37 0 56 13zM450 258l-89 234l-31 92h-2l-29 -89l-90 -237h241z" />
    <glyph glyph-name="Aring" unicode="&#xc5;" horiz-adv-x="660" 
d="M479 183h-299l-70 -183h-84l244 627q-31 14 -48 42t-17 65q0 53 35 85.5t91 32.5t90.5 -32.5t34.5 -85.5q0 -37 -17 -65t-48 -42l243 -627h-85zM279 783.5q-20 -19.5 -20 -49.5t20 -49.5t51 -19.5t51 19.5t20 49.5t-20 49.5t-51 19.5t-51 -19.5zM450 258l-89 234l-31 92
h-2l-29 -89l-90 -237h241z" />
    <glyph glyph-name="Atilde" unicode="&#xc3;" horiz-adv-x="660" 
d="M479 183h-299l-70 -183h-84l257 660h95l256 -660h-85zM450 258l-89 234l-31 92h-2l-29 -89l-90 -237h241zM398 743q-29 0 -48 10.5t-41 30.5q-16 14 -26 20.5t-23 6.5q-21 0 -32 -17t-17 -52h-63q5 67 32.5 100.5t80.5 33.5q28 0 47.5 -11t41.5 -31q15 -13 25.5 -19.5
t21.5 -6.5q21 0 32.5 17.5t17.5 51.5h63q-11 -134 -112 -134z" />
    <glyph glyph-name="AE" unicode="&#xc6;" horiz-adv-x="954" 
d="M902 75v-75h-451v213h-236l-123 -213h-86l386 660h495v-75h-356v-213h271v-75h-271v-222h371zM451 288v297h-20l-172 -297h192z" />
    <glyph glyph-name="B" unicode="B" horiz-adv-x="653" 
d="M108 660h235q114 0 169.5 -47.5t55.5 -134.5q0 -52 -29.5 -92t-81.5 -50v-1q58 -11 93 -53t35 -97q0 -85 -64 -135t-179 -50h-234v660zM344 370q71 0 105.5 26.5t34.5 81.5q0 107 -140 107h-156v-215h156zM361 75q70 0 105 28.5t35 81.5t-35 81.5t-105 28.5h-173v-220
h173z" />
    <glyph glyph-name="C" unicode="C" horiz-adv-x="686" 
d="M538 37.5q-71 -47.5 -164 -47.5t-162 41.5t-106.5 118t-37.5 180.5q0 103 37.5 180t106.5 118.5t160 41.5q95 0 159.5 -39t96.5 -115l-79 -37q-22 58 -64 87t-107 29q-68 0 -119 -31.5t-79 -91.5t-28 -142q0 -124 59.5 -194.5t162.5 -70.5q67 0 116 34t70 100l80 -30
q-31 -84 -102 -131.5z" />
    <glyph glyph-name="Cacute" unicode="&#x106;" horiz-adv-x="686" 
d="M481 891l-86 -148h-65l57 148h94zM538 37.5q-71 -47.5 -164 -47.5t-162 41.5t-106.5 118t-37.5 180.5q0 103 37.5 180t106.5 118.5t160 41.5q95 0 159.5 -39t96.5 -115l-79 -37q-22 58 -64 87t-107 29q-68 0 -119 -31.5t-79 -91.5t-28 -142q0 -124 59.5 -194.5
t162.5 -70.5q67 0 116 34t70 100l80 -30q-31 -84 -102 -131.5z" />
    <glyph glyph-name="Ccaron" unicode="&#x10c;" horiz-adv-x="686" 
d="M417 738h-90l-114 167h73l86 -115l86 115h73zM538 37.5q-71 -47.5 -164 -47.5t-162 41.5t-106.5 118t-37.5 180.5q0 103 37.5 180t106.5 118.5t160 41.5q95 0 159.5 -39t96.5 -115l-79 -37q-22 58 -64 87t-107 29q-68 0 -119 -31.5t-79 -91.5t-28 -142
q0 -124 59.5 -194.5t162.5 -70.5q67 0 116 34t70 100l80 -30q-31 -84 -102 -131.5z" />
    <glyph glyph-name="Ccedilla" unicode="&#xc7;" horiz-adv-x="686" 
d="M558 52q-55 -45 -129 -57q27 -21 41.5 -48t14.5 -55q0 -44 -31.5 -75.5t-84.5 -31.5q-71 0 -110 35l30 55q13 -13 31 -21.5t38 -8.5q24 0 40.5 16t16.5 42q0 29 -16 48.5t-58 39.5q-84 7 -145.5 50.5t-94.5 117.5t-33 171q0 103 37.5 180t106.5 118.5t160 41.5
q95 0 159.5 -39t96.5 -115l-79 -37q-22 58 -64 87t-107 29q-68 0 -119 -31.5t-79 -91.5t-28 -142q0 -124 59.5 -194.5t162.5 -70.5q67 0 116 34t70 100l80 -30q-27 -72 -82 -117z" />
    <glyph glyph-name="D" unicode="D" horiz-adv-x="721" 
d="M565 574q88 -86 88 -244t-88 -244t-244 -86h-213v660h213q156 0 244 -86zM505.5 142.5q63.5 67.5 63.5 187.5t-63.5 187.5t-176.5 67.5h-141v-510h141q113 0 176.5 67.5z" />
    <glyph glyph-name="Eth" unicode="&#xd0;" horiz-adv-x="737" 
d="M581 574q88 -86 88 -244t-88 -244t-244 -86h-213v303h-98v60h98v297h213q156 0 244 -86zM521.5 142.5q63.5 67.5 63.5 187.5t-63.5 187.5t-176.5 67.5h-141v-222h197v-60h-197v-228h141q113 0 176.5 67.5z" />
    <glyph glyph-name="Dcaron" unicode="&#x10e;" horiz-adv-x="721" 
d="M280 738l-114 167h73l86 -115l86 115h73l-114 -167h-90zM565 574q88 -86 88 -244t-88 -244t-244 -86h-213v660h213q156 0 244 -86zM505.5 142.5q63.5 67.5 63.5 187.5t-63.5 187.5t-176.5 67.5h-141v-510h141q113 0 176.5 67.5z" />
    <glyph glyph-name="Dcroat" unicode="&#x110;" horiz-adv-x="737" 
d="M581 574q88 -86 88 -244t-88 -244t-244 -86h-213v303h-98v60h98v297h213q156 0 244 -86zM521.5 142.5q63.5 67.5 63.5 187.5t-63.5 187.5t-176.5 67.5h-141v-222h197v-60h-197v-228h141q113 0 176.5 67.5z" />
    <glyph glyph-name="E" unicode="E" horiz-adv-x="638" 
d="M586 75v-75h-478v660h463v-75h-383v-213h298v-75h-298v-222h398z" />
    <glyph glyph-name="Eacute" unicode="&#xc9;" horiz-adv-x="638" 
d="M362 743h-65l57 148h94zM586 75v-75h-478v660h463v-75h-383v-213h298v-75h-298v-222h398z" />
    <glyph glyph-name="Ecaron" unicode="&#x11a;" horiz-adv-x="638" 
d="M294 738l-114 167h73l86 -115l86 115h73l-114 -167h-90zM586 75v-75h-478v660h463v-75h-383v-213h298v-75h-298v-222h398z" />
    <glyph glyph-name="Ecircumflex" unicode="&#xca;" horiz-adv-x="638" 
d="M253 736h-73l114 167h90l114 -167h-73l-86 115zM586 75v-75h-478v660h463v-75h-383v-213h298v-75h-298v-222h398z" />
    <glyph glyph-name="Edieresis" unicode="&#xcb;" horiz-adv-x="638" 
d="M586 75v-75h-478v660h463v-75h-383v-213h298v-75h-298v-222h398zM283.5 840.5q15.5 -15.5 15.5 -41.5q0 -25 -15.5 -41t-41.5 -16q-25 0 -41 16t-16 41q0 26 16 41.5t41 15.5q26 0 41.5 -15.5zM477.5 840.5q15.5 -15.5 15.5 -41.5q0 -25 -15.5 -41t-41.5 -16
q-25 0 -41 16t-16 41q0 26 16 41.5t41 15.5q26 0 41.5 -15.5z" />
    <glyph glyph-name="Edotaccent" unicode="&#x116;" horiz-adv-x="638" 
d="M586 75v-75h-478v660h463v-75h-383v-213h298v-75h-298v-222h398zM382.5 859.5q16.5 -16.5 16.5 -43.5t-16.5 -43.5t-43.5 -16.5t-43.5 16.5t-16.5 43.5t16.5 43.5t43.5 16.5t43.5 -16.5z" />
    <glyph glyph-name="Egrave" unicode="&#xc8;" horiz-adv-x="638" 
d="M322 743l-86 148h94l57 -148h-65zM586 75v-75h-478v660h463v-75h-383v-213h298v-75h-298v-222h398z" />
    <glyph glyph-name="Emacron" unicode="&#x112;" horiz-adv-x="638" 
d="M586 75v-75h-478v660h463v-75h-383v-213h298v-75h-298v-222h398zM513 756h-348v67h348v-67z" />
    <glyph glyph-name="Eogonek" unicode="&#x118;" horiz-adv-x="638" 
d="M598 -196q-14 -9 -36.5 -14t-45.5 -5q-54 0 -86.5 26.5t-32.5 71.5q0 42 21.5 70t65.5 47h-376v660h463v-75h-383v-213h298v-75h-298v-222h398v-75q-71 -24 -97.5 -49t-26.5 -57q0 -25 17 -38.5t47 -13.5q37 0 56 13z" />
    <glyph glyph-name="F" unicode="F" horiz-adv-x="610" 
d="M188 585v-213h298v-75h-298v-297h-80v660h462v-75h-382z" />
    <glyph glyph-name="G" unicode="G" horiz-adv-x="724" 
d="M645 333v-333h-60l-3 89q-29 -48 -81.5 -73.5t-126.5 -25.5q-93 0 -162 41.5t-106.5 118t-37.5 180.5q0 103 38.5 180t108 118.5t161.5 41.5q98 0 161.5 -37t102.5 -114l-73 -40q-22 56 -71.5 86t-119.5 30q-67 0 -117.5 -32t-78.5 -91.5t-28 -141.5q0 -126 58 -195.5
t167 -69.5q86 0 140.5 44t54.5 126v23h-210v75h283z" />
    <glyph glyph-name="Gbreve" unicode="&#x11e;" horiz-adv-x="724" 
d="M645 333v-333h-60l-3 89q-29 -48 -81.5 -73.5t-126.5 -25.5q-93 0 -162 41.5t-106.5 118t-37.5 180.5q0 103 38.5 180t108 118.5t161.5 41.5q98 0 161.5 -37t102.5 -114l-73 -40q-22 56 -71.5 86t-119.5 30q-67 0 -117.5 -32t-78.5 -91.5t-28 -141.5q0 -126 58 -195.5
t167 -69.5q86 0 140.5 44t54.5 126v23h-210v75h283zM480 778q-41 -41 -107 -41t-107 41t-41 107h66q0 -36 23.5 -62t58.5 -26t58.5 26t23.5 62h66q0 -66 -41 -107z" />
    <glyph glyph-name="H" unicode="H" horiz-adv-x="734" 
d="M626 660v-660h-80v297h-358v-297h-80v660h80v-288h358v288h80z" />
    <glyph glyph-name="I" unicode="I" horiz-adv-x="296" 
d="M188 0h-80v660h80v-660z" />
    <glyph glyph-name="IJ" unicode="&#x132;" horiz-adv-x="862" 
d="M188 0h-80v660h80v-660zM761 226q0 -111 -59.5 -173.5t-164.5 -62.5q-95 0 -147 46.5t-52 128.5q0 29 5 53l74 15q-4 -34 -4 -48q0 -61 29 -90.5t92 -29.5q82 0 114.5 44t32.5 137v414h80v-434z" />
    <glyph glyph-name="Iacute" unicode="&#xcd;" horiz-adv-x="296" 
d="M257 891l-86 -148h-65l57 148h94zM188 0h-80v660h80v-660z" />
    <glyph glyph-name="Icircumflex" unicode="&#xce;" horiz-adv-x="296" 
d="M234 736l-86 115l-86 -115h-73l114 167h90l114 -167h-73zM188 0h-80v660h80v-660z" />
    <glyph glyph-name="Idieresis" unicode="&#xcf;" horiz-adv-x="296" 
d="M103.5 840.5q15.5 -15.5 15.5 -41.5q0 -25 -15.5 -41t-41.5 -16q-25 0 -41 16t-16 41q0 26 16 41.5t41 15.5q26 0 41.5 -15.5zM275.5 840.5q15.5 -15.5 15.5 -41.5q0 -25 -15.5 -41t-41.5 -16q-25 0 -41 16t-16 41q0 26 16 41.5t41 15.5q26 0 41.5 -15.5zM188 0h-80v660
h80v-660z" />
    <glyph glyph-name="Idotaccent" unicode="&#x130;" horiz-adv-x="296" 
d="M188 0h-80v660h80v-660zM191.5 859.5q16.5 -16.5 16.5 -43.5t-16.5 -43.5t-43.5 -16.5t-43.5 16.5t-16.5 43.5t16.5 43.5t43.5 16.5t43.5 -16.5z" />
    <glyph glyph-name="Igrave" unicode="&#xcc;" horiz-adv-x="296" 
d="M181 743h-65l-86 148h94zM188 0h-80v660h80v-660z" />
    <glyph glyph-name="Imacron" unicode="&#x12a;" horiz-adv-x="296" 
d="M256 756h-216v67h216v-67zM188 0h-80v660h80v-660z" />
    <glyph glyph-name="Iogonek" unicode="&#x12e;" horiz-adv-x="296" 
d="M218 -193q-32 -22 -85 -22t-84.5 26.5t-31.5 71.5q0 38 23 70t68 54v653h80v-660q-60 -28 -83.5 -53t-23.5 -50q0 -54 59 -54q37 0 59 15z" />
    <glyph glyph-name="J" unicode="J" horiz-adv-x="566" 
d="M465 226q0 -111 -59.5 -173.5t-164.5 -62.5q-95 0 -147 46.5t-52 128.5q0 29 5 53l74 15q-4 -34 -4 -48q0 -61 29 -90.5t92 -29.5q82 0 114.5 44t32.5 137v414h80v-434z" />
    <glyph glyph-name="K" unicode="K" horiz-adv-x="656" 
d="M306 332l-118 -120v-212h-80v660h80v-340l332 340h105l-263 -269l266 -391h-96z" />
    <glyph glyph-name="L" unicode="L" horiz-adv-x="598" 
d="M566 75v-75h-458v660h80v-585h378z" />
    <glyph glyph-name="Lacute" unicode="&#x139;" horiz-adv-x="598" 
d="M171 743h-65l57 148h94zM566 75v-75h-458v660h80v-585h378z" />
    <glyph glyph-name="Lcaron" unicode="&#x13d;" horiz-adv-x="598" 
d="M335 503h-55l20 197h76zM566 75v-75h-458v660h80v-585h378z" />
    <glyph glyph-name="Ldot" unicode="&#x13f;" horiz-adv-x="618" 
d="M566 75v-75h-458v660h80v-585h378zM576 389q18 -18 18 -47t-18 -47t-47 -18t-47 18t-18 47t18 47t47 18t47 -18z" />
    <glyph glyph-name="Lslash" unicode="&#x141;" horiz-adv-x="628" 
d="M596 75v-75h-458v255l-105 -59v83l105 59v322h80v-278l177 99v-83l-177 -99v-224h378z" />
    <glyph glyph-name="M" unicode="M" horiz-adv-x="854" 
d="M746 0h-76v415l9 174h-1l-217 -589h-68l-217 589h-1l9 -174v-415h-76v660h123l145 -401l50 -165h2l51 164l144 402h123v-660z" />
    <glyph glyph-name="N" unicode="N" horiz-adv-x="734" 
d="M626 0h-99l-276 442l-70 130h-1l4 -106v-466h-76v660h99l275 -440l71 -132h1l-4 106v466h76v-660z" />
    <glyph glyph-name="Nacute" unicode="&#x143;" horiz-adv-x="734" 
d="M480 891l-86 -148h-65l57 148h94zM626 0h-99l-276 442l-70 130h-1l4 -106v-466h-76v660h99l275 -440l71 -132h1l-4 106v466h76v-660z" />
    <glyph glyph-name="Ncaron" unicode="&#x147;" horiz-adv-x="734" 
d="M416 738h-90l-114 167h73l86 -115l86 115h73zM626 0h-99l-276 442l-70 130h-1l4 -106v-466h-76v660h99l275 -440l71 -132h1l-4 106v466h76v-660z" />
    <glyph glyph-name="Ntilde" unicode="&#xd1;" horiz-adv-x="734" 
d="M626 0h-99l-276 442l-70 130h-1l4 -106v-466h-76v660h99l275 -440l71 -132h1l-4 106v466h76v-660zM439 743q-29 0 -48 10.5t-41 30.5q-16 14 -26 20.5t-23 6.5q-21 0 -32 -17t-17 -52h-63q5 67 32.5 100.5t80.5 33.5q28 0 47.5 -11t41.5 -31q15 -13 25.5 -19.5t21.5 -6.5
q21 0 32.5 17.5t17.5 51.5h63q-11 -134 -112 -134z" />
    <glyph glyph-name="O" unicode="O" horiz-adv-x="748" 
d="M536 628.5q69 -41.5 106.5 -118t37.5 -180.5t-37.5 -180.5t-106.5 -118t-162 -41.5t-162 41.5t-106.5 118t-37.5 180.5t37.5 180.5t106.5 118t162 41.5t162 -41.5zM211.5 524.5q-59.5 -70.5 -59.5 -194.5t59.5 -194.5t162.5 -70.5t162.5 70.5t59.5 194.5t-59.5 194.5
t-162.5 70.5t-162.5 -70.5z" />
    <glyph glyph-name="Oacute" unicode="&#xd3;" horiz-adv-x="748" 
d="M483 891l-86 -148h-65l57 148h94zM536 628.5q69 -41.5 106.5 -118t37.5 -180.5t-37.5 -180.5t-106.5 -118t-162 -41.5t-162 41.5t-106.5 118t-37.5 180.5t37.5 180.5t106.5 118t162 41.5t162 -41.5zM211.5 524.5q-59.5 -70.5 -59.5 -194.5t59.5 -194.5t162.5 -70.5
t162.5 70.5t59.5 194.5t-59.5 194.5t-162.5 70.5t-162.5 -70.5z" />
    <glyph glyph-name="Ocircumflex" unicode="&#xd4;" horiz-adv-x="748" 
d="M460 736l-86 115l-86 -115h-73l114 167h90l114 -167h-73zM536 628.5q69 -41.5 106.5 -118t37.5 -180.5t-37.5 -180.5t-106.5 -118t-162 -41.5t-162 41.5t-106.5 118t-37.5 180.5t37.5 180.5t106.5 118t162 41.5t162 -41.5zM211.5 524.5q-59.5 -70.5 -59.5 -194.5
t59.5 -194.5t162.5 -70.5t162.5 70.5t59.5 194.5t-59.5 194.5t-162.5 70.5t-162.5 -70.5z" />
    <glyph glyph-name="Odieresis" unicode="&#xd6;" horiz-adv-x="748" 
d="M536 628.5q69 -41.5 106.5 -118t37.5 -180.5t-37.5 -180.5t-106.5 -118t-162 -41.5t-162 41.5t-106.5 118t-37.5 180.5t37.5 180.5t106.5 118t162 41.5t162 -41.5zM211.5 524.5q-59.5 -70.5 -59.5 -194.5t59.5 -194.5t162.5 -70.5t162.5 70.5t59.5 194.5t-59.5 194.5
t-162.5 70.5t-162.5 -70.5zM318.5 840.5q15.5 -15.5 15.5 -41.5q0 -25 -15.5 -41t-41.5 -16q-25 0 -41 16t-16 41q0 26 16 41.5t41 15.5q26 0 41.5 -15.5zM512.5 840.5q15.5 -15.5 15.5 -41.5q0 -25 -15.5 -41t-41.5 -16q-25 0 -41 16t-16 41q0 26 16 41.5t41 15.5
q26 0 41.5 -15.5z" />
    <glyph glyph-name="Ograve" unicode="&#xd2;" horiz-adv-x="748" 
d="M407 743h-65l-86 148h94zM536 628.5q69 -41.5 106.5 -118t37.5 -180.5t-37.5 -180.5t-106.5 -118t-162 -41.5t-162 41.5t-106.5 118t-37.5 180.5t37.5 180.5t106.5 118t162 41.5t162 -41.5zM211.5 524.5q-59.5 -70.5 -59.5 -194.5t59.5 -194.5t162.5 -70.5t162.5 70.5
t59.5 194.5t-59.5 194.5t-162.5 70.5t-162.5 -70.5z" />
    <glyph glyph-name="Ohungarumlaut" unicode="&#x150;" horiz-adv-x="748" 
d="M406 891l-86 -148h-65l57 148h94zM583 891l-86 -148h-65l57 148h94zM536 628.5q69 -41.5 106.5 -118t37.5 -180.5t-37.5 -180.5t-106.5 -118t-162 -41.5t-162 41.5t-106.5 118t-37.5 180.5t37.5 180.5t106.5 118t162 41.5t162 -41.5zM211.5 524.5
q-59.5 -70.5 -59.5 -194.5t59.5 -194.5t162.5 -70.5t162.5 70.5t59.5 194.5t-59.5 194.5t-162.5 70.5t-162.5 -70.5z" />
    <glyph glyph-name="Omacron" unicode="&#x14c;" horiz-adv-x="748" 
d="M536 628.5q69 -41.5 106.5 -118t37.5 -180.5t-37.5 -180.5t-106.5 -118t-162 -41.5t-162 41.5t-106.5 118t-37.5 180.5t37.5 180.5t106.5 118t162 41.5t162 -41.5zM211.5 524.5q-59.5 -70.5 -59.5 -194.5t59.5 -194.5t162.5 -70.5t162.5 70.5t59.5 194.5t-59.5 194.5
t-162.5 70.5t-162.5 -70.5zM548 756h-348v67h348v-67z" />
    <glyph glyph-name="Oslash" unicode="&#xd8;" horiz-adv-x="748" 
d="M657.5 474.5q22.5 -64.5 22.5 -144.5q0 -104 -37.5 -180.5t-106.5 -118t-162 -41.5q-95 0 -166 43l-49 -70h-71l74 107q-46 45 -70 111t-24 149q0 104 37.5 180.5t106.5 118t162 41.5q100 0 173 -48l43 61h71l-69 -99q43 -45 65.5 -109.5zM209 138l293 419
q-53 38 -128 38q-103 0 -162.5 -70.5t-59.5 -194.5q0 -123 57 -192zM536.5 135.5q59.5 70.5 59.5 194.5q0 116 -52 185l-291 -417q51 -33 121 -33q103 0 162.5 70.5z" />
    <glyph glyph-name="Otilde" unicode="&#xd5;" horiz-adv-x="748" 
d="M536 628.5q69 -41.5 106.5 -118t37.5 -180.5t-37.5 -180.5t-106.5 -118t-162 -41.5t-162 41.5t-106.5 118t-37.5 180.5t37.5 180.5t106.5 118t162 41.5t162 -41.5zM211.5 524.5q-59.5 -70.5 -59.5 -194.5t59.5 -194.5t162.5 -70.5t162.5 70.5t59.5 194.5t-59.5 194.5
t-162.5 70.5t-162.5 -70.5zM442 743q-29 0 -48 10.5t-41 30.5q-16 14 -26 20.5t-23 6.5q-21 0 -32 -17t-17 -52h-63q5 67 32.5 100.5t80.5 33.5q28 0 47.5 -11t41.5 -31q15 -13 25.5 -19.5t21.5 -6.5q21 0 32.5 17.5t17.5 51.5h63q-11 -134 -112 -134z" />
    <glyph glyph-name="OE" unicode="&#x152;" horiz-adv-x="1080" 
d="M1028 75v-75h-442v99q-37 -53 -92 -81t-122 -28q-93 0 -161.5 41.5t-105.5 118t-37 180.5t36.5 180.5t106 118t165.5 41.5q66 0 120 -27.5t90 -79.5v97h427v-75h-354v-213h269v-75h-269v-222h369zM485.5 97q47.5 32 74 91.5t26.5 141.5t-26.5 141.5t-74 91.5t-109.5 32
q-107 0 -165.5 -70t-58.5 -195t58.5 -195t165.5 -70q62 0 109.5 32z" />
    <glyph glyph-name="P" unicode="P" horiz-adv-x="610" 
d="M502 605.5q61 -54.5 61 -146.5t-61 -146.5t-161 -54.5h-153v-258h-80v660h233q100 0 161 -54.5zM442.5 364.5q36.5 31.5 36.5 94.5t-36.5 94.5t-113.5 31.5h-141v-252h141q77 0 113.5 31.5z" />
    <glyph glyph-name="Thorn" unicode="&#xde;" horiz-adv-x="627" 
d="M511 489.5q62 -52.5 62 -152.5q0 -99 -62 -152t-184 -53h-139v-132h-80v660h80v-118h139q122 0 184 -52.5zM451 239q38 32 38 98t-38 98t-116 32h-147v-260h147q78 0 116 32z" />
    <glyph glyph-name="Q" unicode="Q" horiz-adv-x="748" 
d="M604 -104q31 10 50 27l26 -74q-23 -20 -65 -32t-81 -12q-82 0 -136.5 43.5t-60.5 143.5q-83 8 -143.5 51t-93 116.5t-32.5 170.5q0 104 37.5 180.5t106.5 118t162 41.5t162 -41.5t106.5 -118t37.5 -180.5q0 -97 -33 -170.5t-94 -117t-144 -50.5q5 -62 38.5 -84t88.5 -22
q37 0 68 10zM211.5 135.5q59.5 -70.5 162.5 -70.5t162.5 70.5t59.5 194.5t-59.5 194.5t-162.5 70.5t-162.5 -70.5t-59.5 -194.5t59.5 -194.5z" />
    <glyph glyph-name="R" unicode="R" horiz-adv-x="665" 
d="M346 274h-158v-274h-80v660h250q101 0 162 -52t61 -141q0 -70 -39 -118t-107 -66l186 -283h-95zM188 349h169q140 0 140 118t-140 118h-169v-236z" />
    <glyph glyph-name="Racute" unicode="&#x154;" horiz-adv-x="665" 
d="M345 743h-65l57 148h94zM346 274h-158v-274h-80v660h250q101 0 162 -52t61 -141q0 -70 -39 -118t-107 -66l186 -283h-95zM188 349h169q140 0 140 118t-140 118h-169v-236z" />
    <glyph glyph-name="Rcaron" unicode="&#x158;" horiz-adv-x="665" 
d="M277 738l-114 167h73l86 -115l86 115h73l-114 -167h-90zM346 274h-158v-274h-80v660h250q101 0 162 -52t61 -141q0 -70 -39 -118t-107 -66l186 -283h-95zM188 349h169q140 0 140 118t-140 118h-169v-236z" />
    <glyph glyph-name="S" unicode="S" horiz-adv-x="641" 
d="M575 530l-69 -56q-30 66 -71.5 93.5t-113.5 27.5q-76 0 -119.5 -31.5t-43.5 -80.5q0 -32 17 -53t56.5 -36.5t109.5 -27.5q131 -22 185.5 -66t54.5 -122q0 -56 -31.5 -98.5t-89.5 -66t-134 -23.5q-100 0 -170.5 39t-107.5 104l69 56q27 -59 79.5 -91.5t131.5 -32.5
q78 0 124 28.5t46 80.5q0 44 -40 70t-142 44q-132 23 -187 66t-55 120q0 53 30 98t86 71.5t130 26.5q177 0 255 -140z" />
    <glyph glyph-name="Sacute" unicode="&#x15a;" horiz-adv-x="641" 
d="M435 891l-86 -148h-65l57 148h94zM575 530l-69 -56q-30 66 -71.5 93.5t-113.5 27.5q-76 0 -119.5 -31.5t-43.5 -80.5q0 -32 17 -53t56.5 -36.5t109.5 -27.5q131 -22 185.5 -66t54.5 -122q0 -56 -31.5 -98.5t-89.5 -66t-134 -23.5q-100 0 -170.5 39t-107.5 104l69 56
q27 -59 79.5 -91.5t131.5 -32.5q78 0 124 28.5t46 80.5q0 44 -40 70t-142 44q-132 23 -187 66t-55 120q0 53 30 98t86 71.5t130 26.5q177 0 255 -140z" />
    <glyph glyph-name="Scaron" unicode="&#x160;" horiz-adv-x="641" 
d="M371 738h-90l-114 167h73l86 -115l86 115h73zM575 530l-69 -56q-30 66 -71.5 93.5t-113.5 27.5q-76 0 -119.5 -31.5t-43.5 -80.5q0 -32 17 -53t56.5 -36.5t109.5 -27.5q131 -22 185.5 -66t54.5 -122q0 -56 -31.5 -98.5t-89.5 -66t-134 -23.5q-100 0 -170.5 39t-107.5 104
l69 56q27 -59 79.5 -91.5t131.5 -32.5q78 0 124 28.5t46 80.5q0 44 -40 70t-142 44q-132 23 -187 66t-55 120q0 53 30 98t86 71.5t130 26.5q177 0 255 -140z" />
    <glyph glyph-name="uni1E9E" unicode="&#x1e9e;" horiz-adv-x="691" 
d="M595.5 321q55.5 -49 55.5 -136q0 -57 -26.5 -100t-73 -66.5t-105.5 -23.5q-60 0 -106 18t-65 46l34 59q19 -23 54 -36.5t75 -13.5q58 0 93.5 32.5t35.5 84.5q0 54 -40 85.5t-111 31.5h-77v68l174 215h-183q-38 0 -70.5 -18.5t-52 -51t-19.5 -73.5v-442h-80v443
q0 64 29 113.5t79.5 76.5t113.5 27h278v-76l-183 -214h23q92 0 147.5 -49z" />
    <glyph glyph-name="T" unicode="T" 
d="M572 585h-230v-585h-80v585h-230v75h540v-75z" />
    <glyph glyph-name="Tcaron" unicode="&#x164;" 
d="M257 738l-114 167h73l86 -115l86 115h73l-114 -167h-90zM572 585h-230v-585h-80v585h-230v75h540v-75z" />
    <glyph glyph-name="U" unicode="U" horiz-adv-x="720" 
d="M619 246q0 -127 -66.5 -191.5t-192.5 -64.5t-192.5 65t-66.5 191v414h80v-394q0 -104 43.5 -152.5t135.5 -48.5t135.5 48.5t43.5 152.5v394h80v-414z" />
    <glyph glyph-name="Uacute" unicode="&#xda;" horiz-adv-x="720" 
d="M469 891l-86 -148h-65l57 148h94zM619 246q0 -127 -66.5 -191.5t-192.5 -64.5t-192.5 65t-66.5 191v414h80v-394q0 -104 43.5 -152.5t135.5 -48.5t135.5 48.5t43.5 152.5v394h80v-414z" />
    <glyph glyph-name="Ucircumflex" unicode="&#xdb;" horiz-adv-x="720" 
d="M446 736l-86 115l-86 -115h-73l114 167h90l114 -167h-73zM619 246q0 -127 -66.5 -191.5t-192.5 -64.5t-192.5 65t-66.5 191v414h80v-394q0 -104 43.5 -152.5t135.5 -48.5t135.5 48.5t43.5 152.5v394h80v-414z" />
    <glyph glyph-name="Udieresis" unicode="&#xdc;" horiz-adv-x="720" 
d="M619 246q0 -127 -66.5 -191.5t-192.5 -64.5t-192.5 65t-66.5 191v414h80v-394q0 -104 43.5 -152.5t135.5 -48.5t135.5 48.5t43.5 152.5v394h80v-414zM304.5 840.5q15.5 -15.5 15.5 -41.5q0 -25 -15.5 -41t-41.5 -16q-25 0 -41 16t-16 41q0 26 16 41.5t41 15.5
q26 0 41.5 -15.5zM498.5 840.5q15.5 -15.5 15.5 -41.5q0 -25 -15.5 -41t-41.5 -16q-25 0 -41 16t-16 41q0 26 16 41.5t41 15.5q26 0 41.5 -15.5z" />
    <glyph glyph-name="Ugrave" unicode="&#xd9;" horiz-adv-x="720" 
d="M393 743h-65l-86 148h94zM619 246q0 -127 -66.5 -191.5t-192.5 -64.5t-192.5 65t-66.5 191v414h80v-394q0 -104 43.5 -152.5t135.5 -48.5t135.5 48.5t43.5 152.5v394h80v-414z" />
    <glyph glyph-name="Uhungarumlaut" unicode="&#x170;" horiz-adv-x="720" 
d="M376 893l-86 -148h-65l57 148h94zM548 891l-86 -148h-65l57 148h94zM619 246q0 -127 -66.5 -191.5t-192.5 -64.5t-192.5 65t-66.5 191v414h80v-394q0 -104 43.5 -152.5t135.5 -48.5t135.5 48.5t43.5 152.5v394h80v-414z" />
    <glyph glyph-name="Umacron" unicode="&#x16a;" horiz-adv-x="720" 
d="M619 246q0 -127 -66.5 -191.5t-192.5 -64.5t-192.5 65t-66.5 191v414h80v-394q0 -104 43.5 -152.5t135.5 -48.5t135.5 48.5t43.5 152.5v394h80v-414zM534 756h-348v67h348v-67z" />
    <glyph glyph-name="Uogonek" unicode="&#x172;" horiz-adv-x="720" 
d="M619 660v-414q0 -103 -45 -165.5t-131 -82.5q-97 -50 -97 -103q0 -24 17.5 -38.5t46.5 -14.5q36 0 55 12l16 -51q-14 -9 -36 -13.5t-45 -4.5q-54 0 -86.5 27.5t-32.5 71.5q0 34 14.5 59t43.5 47q-116 6 -177 70.5t-61 185.5v414h80v-394q0 -104 43.5 -152.5t135.5 -48.5
t135.5 48.5t43.5 152.5v394h80z" />
    <glyph glyph-name="Uring" unicode="&#x16e;" horiz-adv-x="720" 
d="M619 246q0 -127 -66.5 -191.5t-192.5 -64.5t-192.5 65t-66.5 191v414h80v-394q0 -104 43.5 -152.5t135.5 -48.5t135.5 48.5t43.5 152.5v394h80v-414zM451.5 859.5q34.5 -32.5 34.5 -85.5t-34.5 -86t-90.5 -33t-91 33t-35 86t35 85.5t91 32.5t90.5 -32.5zM310 823.5
q-20 -19.5 -20 -49.5t20 -49.5t51 -19.5t51 19.5t20 49.5t-20 49.5t-51 19.5t-51 -19.5z" />
    <glyph glyph-name="V" unicode="V" horiz-adv-x="648" 
d="M370 0h-91l-251 660h86l168 -456l42 -131l42 130l168 457h86z" />
    <glyph glyph-name="W" unicode="W" horiz-adv-x="961" 
d="M330 0h-99l-195 660h86l159 -597l156 597h91l156 -599l160 599h81l-194 -660h-99l-117 428l-34 149h-1l-34 -149z" />
    <glyph glyph-name="X" unicode="X" horiz-adv-x="601" 
d="M476 0l-179 273l-179 -273h-93l231 336l-211 324h95l168 -258l169 258h85l-213 -320l220 -340h-93z" />
    <glyph glyph-name="Y" unicode="Y" horiz-adv-x="572" 
d="M326 258v-258h-80v258l-236 402h95l181 -320l181 320h95z" />
    <glyph glyph-name="Yacute" unicode="&#xdd;" horiz-adv-x="572" 
d="M395 891l-86 -148h-65l57 148h94zM326 258v-258h-80v258l-236 402h95l181 -320l181 320h95z" />
    <glyph glyph-name="Ydieresis" unicode="&#x178;" horiz-adv-x="572" 
d="M326 258v-258h-80v258l-236 402h95l181 -320l181 320h95zM230.5 840.5q15.5 -15.5 15.5 -41.5q0 -25 -15.5 -41t-41.5 -16q-25 0 -41 16t-16 41q0 26 16 41.5t41 15.5q26 0 41.5 -15.5zM424.5 840.5q15.5 -15.5 15.5 -41.5q0 -25 -15.5 -41t-41.5 -16q-25 0 -41 16
t-16 41q0 26 16 41.5t41 15.5q26 0 41.5 -15.5z" />
    <glyph glyph-name="Z" unicode="Z" horiz-adv-x="630" 
d="M575 75v-75h-519v71l411 514h-401v75h496v-71l-411 -514h424z" />
    <glyph glyph-name="Zacute" unicode="&#x179;" horiz-adv-x="630" 
d="M329 743h-65l57 148h94zM575 75v-75h-519v71l411 514h-401v75h496v-71l-411 -514h424z" />
    <glyph glyph-name="Zcaron" unicode="&#x17d;" horiz-adv-x="630" 
d="M261 738l-114 167h73l86 -115l86 115h73l-114 -167h-90zM575 75v-75h-519v71l411 514h-401v75h496v-71l-411 -514h424z" />
    <glyph glyph-name="Zdotaccent" unicode="&#x17b;" horiz-adv-x="630" 
d="M575 75v-75h-519v71l411 514h-401v75h496v-71l-411 -514h424zM349.5 859.5q16.5 -16.5 16.5 -43.5t-16.5 -43.5t-43.5 -16.5t-43.5 16.5t-16.5 43.5t16.5 43.5t43.5 16.5t43.5 -16.5z" />
    <glyph glyph-name="uni0122" unicode="&#x122;" horiz-adv-x="724" 
d="M645 333v-333h-60l-3 89q-29 -48 -81.5 -73.5t-126.5 -25.5q-93 0 -162 41.5t-106.5 118t-37.5 180.5q0 103 38.5 180t108 118.5t161.5 41.5q98 0 161.5 -37t102.5 -114l-73 -40q-22 56 -71.5 86t-119.5 30q-67 0 -117.5 -32t-78.5 -91.5t-28 -141.5q0 -126 58 -195.5
t167 -69.5q86 0 140.5 44t54.5 126v23h-210v75h283zM370 -237h-63l44 161h84z" />
    <glyph glyph-name="uni0136" unicode="&#x136;" horiz-adv-x="656" 
d="M306 332l-118 -120v-212h-80v660h80v-340l332 340h105l-263 -269l266 -391h-96zM338 -237h-63l44 161h84z" />
    <glyph glyph-name="uni013B" unicode="&#x13b;" horiz-adv-x="598" 
d="M566 75v-75h-458v660h80v-585h378zM327 -237h-63l44 161h84z" />
    <glyph glyph-name="uni0145" unicode="&#x145;" horiz-adv-x="734" 
d="M626 0h-99l-276 442l-70 130h-1l4 -106v-466h-76v660h99l275 -440l71 -132h1l-4 106v466h76v-660zM362 -237h-63l44 161h84z" />
    <glyph glyph-name="uni0156" unicode="&#x156;" horiz-adv-x="665" 
d="M346 274h-158v-274h-80v660h250q101 0 162 -52t61 -141q0 -70 -39 -118t-107 -66l186 -283h-95zM188 349h169q140 0 140 118t-140 118h-169v-236zM330 -237h-63l44 161h84z" />
    <glyph glyph-name="uni015E" unicode="&#x15e;" horiz-adv-x="641" 
d="M528.5 56q-52.5 -49 -142.5 -62q27 -21 41 -47.5t14 -54.5q0 -44 -31.5 -75.5t-84.5 -31.5q-71 0 -110 35l30 55q13 -13 31 -21.5t38 -8.5q24 0 40.5 16t16.5 42q0 28 -15.5 47.5t-57.5 40.5q-89 6 -152.5 44t-97.5 98l69 56q27 -59 79.5 -91.5t131.5 -32.5
q78 0 124 28.5t46 80.5q0 44 -40 70t-142 44q-132 23 -187 66t-55 120q0 53 30 98t86 71.5t130 26.5q177 0 255 -140l-69 -56q-30 66 -71.5 93.5t-113.5 27.5q-76 0 -119.5 -31.5t-43.5 -80.5q0 -32 17 -53t56.5 -36.5t109.5 -27.5q131 -22 185.5 -66t54.5 -122
q0 -73 -52.5 -122z" />
    <glyph glyph-name="uni0162" unicode="&#x162;" 
d="M342 585v-576q71 -49 71 -118q0 -43 -32.5 -74.5t-84.5 -31.5q-71 0 -110 35l30 55q13 -13 31 -21.5t38 -8.5q24 0 40.5 16t16.5 42q0 27 -17 46.5t-63 50.5v585h-230v75h540v-75h-230z" />
    <glyph glyph-name="uni0218" unicode="&#x218;" horiz-adv-x="641" 
d="M575 530l-69 -56q-30 66 -71.5 93.5t-113.5 27.5q-76 0 -119.5 -31.5t-43.5 -80.5q0 -32 17 -53t56.5 -36.5t109.5 -27.5q131 -22 185.5 -66t54.5 -122q0 -56 -31.5 -98.5t-89.5 -66t-134 -23.5q-100 0 -170.5 39t-107.5 104l69 56q27 -59 79.5 -91.5t131.5 -32.5
q78 0 124 28.5t46 80.5q0 44 -40 70t-142 44q-132 23 -187 66t-55 120q0 53 30 98t86 71.5t130 26.5q177 0 255 -140zM324 -237h-63l44 161h84z" />
    <glyph glyph-name="uni021A" unicode="&#x21a;" 
d="M572 585h-230v-585h-80v585h-230v75h540v-75zM283 -237h-63l44 161h84z" />
    <glyph glyph-name="E.swsh.001" horiz-adv-x="747" 
d="M675 316q28 -20 45 -56.5t17 -84.5q0 -84 -56 -129.5t-153 -45.5h-420v660h488v-75h-408v-222h218v-75h-218v-213h323q75 0 110.5 24t35.5 77q0 46 -20.5 71.5t-53.5 26.5l31 64q33 -2 61 -22z" />
    <glyph glyph-name="Eacute.swsh.001" horiz-adv-x="747" 
d="M388 743h-65l57 148h94zM675 316q28 -20 45 -56.5t17 -84.5q0 -84 -56 -129.5t-153 -45.5h-420v660h488v-75h-408v-222h218v-75h-218v-213h323q75 0 110.5 24t35.5 77q0 46 -20.5 71.5t-53.5 26.5l31 64q33 -2 61 -22z" />
    <glyph glyph-name="Ecaron.swsh.001" horiz-adv-x="747" 
d="M320 738l-114 167h73l86 -115l86 115h73l-114 -167h-90zM675 316q28 -20 45 -56.5t17 -84.5q0 -84 -56 -129.5t-153 -45.5h-420v660h488v-75h-408v-222h218v-75h-218v-213h323q75 0 110.5 24t35.5 77q0 46 -20.5 71.5t-53.5 26.5l31 64q33 -2 61 -22z" />
    <glyph glyph-name="Ecircumflex.swsh.001" horiz-adv-x="747" 
d="M279 736h-73l114 167h90l114 -167h-73l-86 115zM675 316q28 -20 45 -56.5t17 -84.5q0 -84 -56 -129.5t-153 -45.5h-420v660h488v-75h-408v-222h218v-75h-218v-213h323q75 0 110.5 24t35.5 77q0 46 -20.5 71.5t-53.5 26.5l31 64q33 -2 61 -22z" />
    <glyph glyph-name="Edieresis.swsh.001" horiz-adv-x="747" 
d="M675 316q28 -20 45 -56.5t17 -84.5q0 -84 -56 -129.5t-153 -45.5h-420v660h488v-75h-408v-222h218v-75h-218v-213h323q75 0 110.5 24t35.5 77q0 46 -20.5 71.5t-53.5 26.5l31 64q33 -2 61 -22zM309.5 840.5q15.5 -15.5 15.5 -41.5q0 -25 -15.5 -41t-41.5 -16
q-25 0 -41 16t-16 41q0 26 16 41.5t41 15.5q26 0 41.5 -15.5zM503.5 840.5q15.5 -15.5 15.5 -41.5q0 -25 -15.5 -41t-41.5 -16q-25 0 -41 16t-16 41q0 26 16 41.5t41 15.5q26 0 41.5 -15.5z" />
    <glyph glyph-name="Edotaccent.swsh.001" horiz-adv-x="747" 
d="M675 316q28 -20 45 -56.5t17 -84.5q0 -84 -56 -129.5t-153 -45.5h-420v660h488v-75h-408v-222h218v-75h-218v-213h323q75 0 110.5 24t35.5 77q0 46 -20.5 71.5t-53.5 26.5l31 64q33 -2 61 -22zM408.5 859.5q16.5 -16.5 16.5 -43.5t-16.5 -43.5t-43.5 -16.5t-43.5 16.5
t-16.5 43.5t16.5 43.5t43.5 16.5t43.5 -16.5z" />
    <glyph glyph-name="Egrave.swsh.001" horiz-adv-x="747" 
d="M333 743l-86 148h94l57 -148h-65zM675 316q28 -20 45 -56.5t17 -84.5q0 -84 -56 -129.5t-153 -45.5h-420v660h488v-75h-408v-222h218v-75h-218v-213h323q75 0 110.5 24t35.5 77q0 46 -20.5 71.5t-53.5 26.5l31 64q33 -2 61 -22z" />
    <glyph glyph-name="Emacron.swsh.001" horiz-adv-x="747" 
d="M675 316q28 -20 45 -56.5t17 -84.5q0 -84 -56 -129.5t-153 -45.5h-420v660h488v-75h-408v-222h218v-75h-218v-213h323q75 0 110.5 24t35.5 77q0 46 -20.5 71.5t-53.5 26.5l31 64q33 -2 61 -22zM539 756h-348v67h348v-67z" />
    <glyph glyph-name="M.swsh.001" horiz-adv-x="1073" 
d="M965 660v-660h-76v415l9 174h-1l-217 -589h-68l-217 589h-1l9 -174v-415h-76v595h-91q-68 0 -107 -29t-39 -86q0 -45 30.5 -75.5t79.5 -38.5l-31 -64q-67 10 -113 59t-46 120q0 83 56.5 131t152.5 48h231l145 -401l50 -165h2l51 164l144 402h123z" />
    <glyph glyph-name="R.swsh.001" horiz-adv-x="685" 
d="M604.5 19q45.5 -38 80.5 -50l-43 -55q-54 27 -87 51t-52.5 46t-43.5 57l-144 206h-127v-274h-80v660h250q101 0 162 -52t61 -141q0 -79 -48.5 -129t-131.5 -61l134 -187q24 -33 69.5 -71zM188 349h169q140 0 140 118t-140 118h-169v-236z" />
    <glyph glyph-name="Racute.swsh.001" horiz-adv-x="685" 
d="M345 743h-65l57 148h94zM604.5 19q45.5 -38 80.5 -50l-43 -55q-54 27 -87 51t-52.5 46t-43.5 57l-144 206h-127v-274h-80v660h250q101 0 162 -52t61 -141q0 -79 -48.5 -129t-131.5 -61l134 -187q24 -33 69.5 -71zM188 349h169q140 0 140 118t-140 118h-169v-236z" />
    <glyph glyph-name="Rcaron.swsh.001" horiz-adv-x="685" 
d="M277 738l-114 167h73l86 -115l86 115h73l-114 -167h-90zM604.5 19q45.5 -38 80.5 -50l-43 -55q-54 27 -87 51t-52.5 46t-43.5 57l-144 206h-127v-274h-80v660h250q101 0 162 -52t61 -141q0 -79 -48.5 -129t-131.5 -61l134 -187q24 -33 69.5 -71zM188 349h169
q140 0 140 118t-140 118h-169v-236z" />
    <glyph glyph-name="Rcommaaccent.swsh.001" horiz-adv-x="685" 
d="M604.5 19q45.5 -38 80.5 -50l-43 -55q-54 27 -87 51t-52.5 46t-43.5 57l-144 206h-127v-274h-80v660h250q101 0 162 -52t61 -141q0 -79 -48.5 -129t-131.5 -61l134 -187q24 -33 69.5 -71zM188 349h169q140 0 140 118t-140 118h-169v-236zM330 -237h-63l44 161h84z" />
    <glyph glyph-name="Iacute_J.loclNLD" horiz-adv-x="862" 
d="M257 891l-86 -148h-65l57 148h94zM840 891l-86 -148h-65l57 148h94zM188 0h-80v660h80v-660zM761 226q0 -111 -59.5 -173.5t-164.5 -62.5q-95 0 -147 46.5t-52 128.5q0 29 5 53l74 15q-4 -34 -4 -48q0 -61 29 -90.5t92 -29.5q82 0 114.5 44t32.5 137v414h80v-434z" />
    <glyph glyph-name="R.ss03" horiz-adv-x="655" 
d="M108 660h250q101 0 162 -52t61 -141q0 -65 -35.5 -108t-102.5 -59v-2q57 -10 86 -44.5t31 -89.5q5 -80 12 -110.5t19 -50.5v-3h-86q-18 41 -24 156q-3 59 -40 88.5t-113 29.5h-140v-274h-80v660zM357 349q140 0 140 118t-140 118h-169v-236h169z" />
    <glyph glyph-name="Racute.ss03" horiz-adv-x="655" 
d="M431 891l-86 -148h-65l57 148h94zM108 660h250q101 0 162 -52t61 -141q0 -65 -35.5 -108t-102.5 -59v-2q57 -10 86 -44.5t31 -89.5q5 -80 12 -110.5t19 -50.5v-3h-86q-18 41 -24 156q-3 59 -40 88.5t-113 29.5h-140v-274h-80v660zM357 349q140 0 140 118t-140 118h-169
v-236h169z" />
    <glyph glyph-name="Rcaron.ss03" horiz-adv-x="655" 
d="M367 738h-90l-114 167h73l86 -115l86 115h73zM108 660h250q101 0 162 -52t61 -141q0 -65 -35.5 -108t-102.5 -59v-2q57 -10 86 -44.5t31 -89.5q5 -80 12 -110.5t19 -50.5v-3h-86q-18 41 -24 156q-3 59 -40 88.5t-113 29.5h-140v-274h-80v660zM357 349q140 0 140 118
t-140 118h-169v-236h169z" />
    <glyph glyph-name="Rcommaaccent.ss03" horiz-adv-x="655" 
d="M108 660h250q101 0 162 -52t61 -141q0 -65 -35.5 -108t-102.5 -59v-2q57 -10 86 -44.5t31 -89.5q5 -80 12 -110.5t19 -50.5v-3h-86q-18 41 -24 156q-3 59 -40 88.5t-113 29.5h-140v-274h-80v660zM357 349q140 0 140 118t-140 118h-169v-236h169zM330 -237h-63l44 161h84z
" />
    <glyph glyph-name="G.ss04" horiz-adv-x="724" 
d="M658 333v-61q0 -130 -73.5 -206t-210.5 -76q-93 0 -162 41.5t-106.5 118t-37.5 180.5q0 103 38.5 180t108 118.5t161.5 41.5q98 0 161.5 -37t102.5 -114l-73 -40q-22 56 -71.5 86t-119.5 30q-67 0 -117.5 -32t-78.5 -91.5t-28 -141.5q0 -126 59 -195.5t169 -69.5
q70 0 115.5 28t66 70.5t20.5 88.5v6h-220v75h296z" />
    <glyph glyph-name="Gbreve.ss04" horiz-adv-x="724" 
d="M658 333v-61q0 -130 -73.5 -206t-210.5 -76q-93 0 -162 41.5t-106.5 118t-37.5 180.5q0 103 38.5 180t108 118.5t161.5 41.5q98 0 161.5 -37t102.5 -114l-73 -40q-22 56 -71.5 86t-119.5 30q-67 0 -117.5 -32t-78.5 -91.5t-28 -141.5q0 -126 59 -195.5t169 -69.5
q70 0 115.5 28t66 70.5t20.5 88.5v6h-220v75h296zM480 778q-41 -41 -107 -41t-107 41t-41 107h66q0 -36 23.5 -62t58.5 -26t58.5 26t23.5 62h66q0 -66 -41 -107z" />
    <glyph glyph-name="Gcommaaccent.ss04" horiz-adv-x="724" 
d="M658 333v-61q0 -130 -73.5 -206t-210.5 -76q-93 0 -162 41.5t-106.5 118t-37.5 180.5q0 103 38.5 180t108 118.5t161.5 41.5q98 0 161.5 -37t102.5 -114l-73 -40q-22 56 -71.5 86t-119.5 30q-67 0 -117.5 -32t-78.5 -91.5t-28 -141.5q0 -126 59 -195.5t169 -69.5
q70 0 115.5 28t66 70.5t20.5 88.5v6h-220v75h296zM370 -237h-63l44 161h84z" />
    <glyph glyph-name="IJ.ss05" horiz-adv-x="633" 
d="M532 226q0 -110 -59 -173t-160 -63q-98 0 -150.5 44t-52.5 125q0 10 2 32h77q-3 -15 -3 -28q0 -49 33.5 -73.5t93.5 -24.5q66 0 102.5 46.5t36.5 134.5v414h80v-434zM188 287h-80v373h80v-373z" />
    <glyph glyph-name="Iacute_J.loclNLD.ss05" horiz-adv-x="626" 
d="M250 891l-86 -148h-65l57 148h94zM604 891l-86 -148h-65l57 148h94zM525 226q0 -110 -59 -173t-160 -63q-98 0 -150.5 44t-52.5 125q0 10 2 32h77q-3 -15 -3 -28q0 -49 33.5 -73.5t93.5 -24.5q66 0 102.5 46.5t36.5 134.5v414h80v-434zM181 287h-80v373h80v-373z" />
    <glyph glyph-name="A.swsh" horiz-adv-x="870" 
d="M689 183h-299l-54 -141q-28 -77 -75.5 -114.5t-122.5 -37.5q-78 0 -123 35t-50 97l58 43q9 -61 35.5 -83t78.5 -22q35 0 57 11.5t39.5 39.5t39.5 84l195 500h-138q-68 0 -107 -29t-39 -86q0 -45 30.5 -75.5t79.5 -38.5l-31 -64q-67 10 -113 59t-46 120q0 83 56.5 131
t152.5 48h275l256 -660h-85zM660 258l-89 234l-31 92h-2l-29 -89l-91 -237h242z" />
    <glyph glyph-name="Aacute.swsh" horiz-adv-x="870" 
d="M563 743h-65l57 148h94zM689 183h-299l-54 -141q-28 -77 -75.5 -114.5t-122.5 -37.5q-78 0 -123 35t-50 97l58 43q9 -61 35.5 -83t78.5 -22q35 0 57 11.5t39.5 39.5t39.5 84l195 500h-138q-68 0 -107 -29t-39 -86q0 -45 30.5 -75.5t79.5 -38.5l-31 -64q-67 10 -113 59
t-46 120q0 83 56.5 131t152.5 48h275l256 -660h-85zM660 258l-89 234l-31 92h-2l-29 -89l-91 -237h242z" />
    <glyph glyph-name="Abreve.swsh" horiz-adv-x="870" 
d="M689 183h-299l-54 -141q-28 -77 -75.5 -114.5t-122.5 -37.5q-78 0 -123 35t-50 97l58 43q9 -61 35.5 -83t78.5 -22q35 0 57 11.5t39.5 39.5t39.5 84l195 500h-138q-68 0 -107 -29t-39 -86q0 -45 30.5 -75.5t79.5 -38.5l-31 -64q-67 10 -113 59t-46 120q0 83 56.5 131
t152.5 48h275l256 -660h-85zM660 258l-89 234l-31 92h-2l-29 -89l-91 -237h242zM647 778q-41 -41 -107 -41t-107 41t-41 107h66q0 -36 23.5 -62t58.5 -26t58.5 26t23.5 62h66q0 -66 -41 -107z" />
    <glyph glyph-name="Acircumflex.swsh" horiz-adv-x="870" 
d="M454 736h-73l114 167h90l114 -167h-73l-86 115zM689 183h-299l-54 -141q-28 -77 -75.5 -114.5t-122.5 -37.5q-78 0 -123 35t-50 97l58 43q9 -61 35.5 -83t78.5 -22q35 0 57 11.5t39.5 39.5t39.5 84l195 500h-138q-68 0 -107 -29t-39 -86q0 -45 30.5 -75.5t79.5 -38.5
l-31 -64q-67 10 -113 59t-46 120q0 83 56.5 131t152.5 48h275l256 -660h-85zM660 258l-89 234l-31 92h-2l-29 -89l-91 -237h242z" />
    <glyph glyph-name="Adieresis.swsh" horiz-adv-x="870" 
d="M689 183h-299l-54 -141q-28 -77 -75.5 -114.5t-122.5 -37.5q-78 0 -123 35t-50 97l58 43q9 -61 35.5 -83t78.5 -22q35 0 57 11.5t39.5 39.5t39.5 84l195 500h-138q-68 0 -107 -29t-39 -86q0 -45 30.5 -75.5t79.5 -38.5l-31 -64q-67 10 -113 59t-46 120q0 83 56.5 131
t152.5 48h275l256 -660h-85zM660 258l-89 234l-31 92h-2l-29 -89l-91 -237h242zM484.5 840.5q15.5 -15.5 15.5 -41.5q0 -25 -15.5 -41t-41.5 -16q-25 0 -41 16t-16 41q0 26 16 41.5t41 15.5q26 0 41.5 -15.5zM678.5 840.5q15.5 -15.5 15.5 -41.5q0 -25 -15.5 -41t-41.5 -16
q-25 0 -41 16t-16 41q0 26 16 41.5t41 15.5q26 0 41.5 -15.5z" />
    <glyph glyph-name="Agrave.swsh" horiz-adv-x="870" 
d="M508 743l-86 148h94l57 -148h-65zM689 183h-299l-54 -141q-28 -77 -75.5 -114.5t-122.5 -37.5q-78 0 -123 35t-50 97l58 43q9 -61 35.5 -83t78.5 -22q35 0 57 11.5t39.5 39.5t39.5 84l195 500h-138q-68 0 -107 -29t-39 -86q0 -45 30.5 -75.5t79.5 -38.5l-31 -64
q-67 10 -113 59t-46 120q0 83 56.5 131t152.5 48h275l256 -660h-85zM660 258l-89 234l-31 92h-2l-29 -89l-91 -237h242z" />
    <glyph glyph-name="Amacron.swsh" horiz-adv-x="870" 
d="M689 183h-299l-54 -141q-28 -77 -75.5 -114.5t-122.5 -37.5q-78 0 -123 35t-50 97l58 43q9 -61 35.5 -83t78.5 -22q35 0 57 11.5t39.5 39.5t39.5 84l195 500h-138q-68 0 -107 -29t-39 -86q0 -45 30.5 -75.5t79.5 -38.5l-31 -64q-67 10 -113 59t-46 120q0 83 56.5 131
t152.5 48h275l256 -660h-85zM660 258l-89 234l-31 92h-2l-29 -89l-91 -237h242zM714 756h-348v67h348v-67z" />
    <glyph glyph-name="Aogonek.swsh" horiz-adv-x="870" 
d="M856 -196q-14 -9 -36.5 -14t-45.5 -5q-55 0 -87 27.5t-32 76.5q0 83 98 125l-64 169h-299l-54 -141q-28 -77 -75.5 -114.5t-122.5 -37.5q-78 0 -123 35t-50 97l58 43q9 -61 35.5 -83t78.5 -22q35 0 57 11.5t39.5 39.5t39.5 84l195 500h-138q-68 0 -107 -29t-39 -86
q0 -45 30.5 -75.5t79.5 -38.5l-31 -64q-67 10 -113 59t-46 120q0 83 56.5 131t152.5 48h275l256 -660q-71 -23 -97.5 -48.5t-26.5 -57.5q0 -25 17 -38.5t47 -13.5q37 0 56 13zM660 258l-89 234l-31 92h-2l-29 -89l-91 -237h242z" />
    <glyph glyph-name="Atilde.swsh" horiz-adv-x="870" 
d="M689 183h-299l-54 -141q-28 -77 -75.5 -114.5t-122.5 -37.5q-78 0 -123 35t-50 97l58 43q9 -61 35.5 -83t78.5 -22q35 0 57 11.5t39.5 39.5t39.5 84l195 500h-138q-68 0 -107 -29t-39 -86q0 -45 30.5 -75.5t79.5 -38.5l-31 -64q-67 10 -113 59t-46 120q0 83 56.5 131
t152.5 48h275l256 -660h-85zM660 258l-89 234l-31 92h-2l-29 -89l-91 -237h242zM608 743q-29 0 -48 10.5t-41 30.5q-16 14 -26 20.5t-23 6.5q-21 0 -32 -17t-17 -52h-63q5 67 32.5 100.5t80.5 33.5q28 0 47.5 -11t41.5 -31q15 -13 25.5 -19.5t21.5 -6.5q21 0 32.5 17.5
t17.5 51.5h63q-11 -134 -112 -134z" />
    <glyph glyph-name="E.swsh" horiz-adv-x="857" 
d="M805 75v-75h-478v595h-91q-68 0 -107 -29t-39 -86q0 -45 30.5 -75.5t79.5 -38.5l-31 -64q-67 10 -113 59t-46 120q0 83 56.5 131t152.5 48h571v-75h-383v-213h298v-75h-298v-222h398z" />
    <glyph glyph-name="Eacute.swsh" horiz-adv-x="857" 
d="M581 743h-65l57 148h94zM805 75v-75h-478v595h-91q-68 0 -107 -29t-39 -86q0 -45 30.5 -75.5t79.5 -38.5l-31 -64q-67 10 -113 59t-46 120q0 83 56.5 131t152.5 48h571v-75h-383v-213h298v-75h-298v-222h398z" />
    <glyph glyph-name="Ecaron.swsh" horiz-adv-x="857" 
d="M513 738l-114 167h73l86 -115l86 115h73l-114 -167h-90zM805 75v-75h-478v595h-91q-68 0 -107 -29t-39 -86q0 -45 30.5 -75.5t79.5 -38.5l-31 -64q-67 10 -113 59t-46 120q0 83 56.5 131t152.5 48h571v-75h-383v-213h298v-75h-298v-222h398z" />
    <glyph glyph-name="Ecircumflex.swsh" horiz-adv-x="857" 
d="M472 736h-73l114 167h90l114 -167h-73l-86 115zM805 75v-75h-478v595h-91q-68 0 -107 -29t-39 -86q0 -45 30.5 -75.5t79.5 -38.5l-31 -64q-67 10 -113 59t-46 120q0 83 56.5 131t152.5 48h571v-75h-383v-213h298v-75h-298v-222h398z" />
    <glyph glyph-name="Edieresis.swsh" horiz-adv-x="857" 
d="M805 75v-75h-478v595h-91q-68 0 -107 -29t-39 -86q0 -45 30.5 -75.5t79.5 -38.5l-31 -64q-67 10 -113 59t-46 120q0 83 56.5 131t152.5 48h571v-75h-383v-213h298v-75h-298v-222h398zM502.5 840.5q15.5 -15.5 15.5 -41.5q0 -25 -15.5 -41t-41.5 -16q-25 0 -41 16t-16 41
q0 26 16 41.5t41 15.5q26 0 41.5 -15.5zM696.5 840.5q15.5 -15.5 15.5 -41.5q0 -25 -15.5 -41t-41.5 -16q-25 0 -41 16t-16 41q0 26 16 41.5t41 15.5q26 0 41.5 -15.5z" />
    <glyph glyph-name="Edotaccent.swsh" horiz-adv-x="857" 
d="M805 75v-75h-478v595h-91q-68 0 -107 -29t-39 -86q0 -45 30.5 -75.5t79.5 -38.5l-31 -64q-67 10 -113 59t-46 120q0 83 56.5 131t152.5 48h571v-75h-383v-213h298v-75h-298v-222h398zM601.5 859.5q16.5 -16.5 16.5 -43.5t-16.5 -43.5t-43.5 -16.5t-43.5 16.5t-16.5 43.5
t16.5 43.5t43.5 16.5t43.5 -16.5z" />
    <glyph glyph-name="Egrave.swsh" horiz-adv-x="857" 
d="M526 743l-86 148h94l57 -148h-65zM805 75v-75h-478v595h-91q-68 0 -107 -29t-39 -86q0 -45 30.5 -75.5t79.5 -38.5l-31 -64q-67 10 -113 59t-46 120q0 83 56.5 131t152.5 48h571v-75h-383v-213h298v-75h-298v-222h398z" />
    <glyph glyph-name="Emacron.swsh" horiz-adv-x="857" 
d="M805 75v-75h-478v595h-91q-68 0 -107 -29t-39 -86q0 -45 30.5 -75.5t79.5 -38.5l-31 -64q-67 10 -113 59t-46 120q0 83 56.5 131t152.5 48h571v-75h-383v-213h298v-75h-298v-222h398zM732 756h-348v67h348v-67z" />
    <glyph glyph-name="Eogonek.swsh" horiz-adv-x="857" 
d="M817 -196q-14 -9 -36.5 -14t-45.5 -5q-54 0 -86.5 26.5t-32.5 71.5q0 42 21.5 70t65.5 47h-376v595h-91q-68 0 -107 -29t-39 -86q0 -45 30.5 -75.5t79.5 -38.5l-31 -64q-67 10 -113 59t-46 120q0 83 56.5 131t152.5 48h571v-75h-383v-213h298v-75h-298v-222h398v-75
q-71 -24 -97.5 -49t-26.5 -57q0 -25 17 -38.5t47 -13.5q37 0 56 13z" />
    <glyph glyph-name="F.swsh" horiz-adv-x="829" 
d="M407 585v-213h298v-75h-298v-297h-80v595h-91q-68 0 -107 -29t-39 -86q0 -45 30.5 -75.5t79.5 -38.5l-31 -64q-67 10 -113 59t-46 120q0 83 56.5 131t152.5 48h570v-75h-382z" />
    <glyph glyph-name="L.swsh" horiz-adv-x="637" 
d="M581.5 301.5q45.5 -44.5 45.5 -122.5q0 -89 -55.5 -134t-153.5 -45h-310v660h80v-585h213q71 0 108.5 23.5t37.5 81.5q0 51 -30 77t-80 27l31 64q68 -2 113.5 -46.5z" />
    <glyph glyph-name="Lacute.swsh" horiz-adv-x="637" 
d="M171 743h-65l57 148h94zM581.5 301.5q45.5 -44.5 45.5 -122.5q0 -89 -55.5 -134t-153.5 -45h-310v660h80v-585h213q71 0 108.5 23.5t37.5 81.5q0 51 -30 77t-80 27l31 64q68 -2 113.5 -46.5z" />
    <glyph glyph-name="Lcaron.swsh" horiz-adv-x="637" 
d="M193 738h-90l-114 167h73l86 -115l86 115h73zM581.5 301.5q45.5 -44.5 45.5 -122.5q0 -89 -55.5 -134t-153.5 -45h-310v660h80v-585h213q71 0 108.5 23.5t37.5 81.5q0 51 -30 77t-80 27l31 64q68 -2 113.5 -46.5z" />
    <glyph glyph-name="Lcommaaccent.swsh" horiz-adv-x="637" 
d="M581.5 301.5q45.5 -44.5 45.5 -122.5q0 -89 -55.5 -134t-153.5 -45h-310v660h80v-585h213q71 0 108.5 23.5t37.5 81.5q0 51 -30 77t-80 27l31 64q68 -2 113.5 -46.5zM342 -237h-63l44 161h84z" />
    <glyph glyph-name="Lslash.swsh" horiz-adv-x="667" 
d="M611.5 301.5q45.5 -44.5 45.5 -122.5q0 -89 -55.5 -134t-153.5 -45h-310v255l-105 -59v83l105 59v322h80v-278l177 99v-83l-177 -99v-224h213q71 0 108.5 23.5t37.5 81.5q0 51 -30 77t-80 27l31 64q68 -2 113.5 -46.5z" />
    <glyph glyph-name="M.swsh" horiz-adv-x="1073" 
d="M965 660v-660h-76v415l9 174h-1l-217 -589h-68l-217 589h-1l9 -174v-349q0 -47 -22.5 -87.5t-65.5 -64.5t-104 -24q-78 0 -121 34.5t-52 96.5l59 43q9 -56 35 -80.5t79 -24.5q54 0 85 36t31 95v505h-91q-68 0 -107 -29t-39 -86q0 -45 30.5 -75.5t79.5 -38.5l-31 -64
q-67 10 -113 59t-46 120q0 83 56.5 131t152.5 48h231l145 -401l50 -165h2l51 164l144 402h123z" />
    <glyph glyph-name="N.swsh" horiz-adv-x="915" 
d="M863 700.5q43 -34.5 52 -96.5l-59 -43q-9 56 -35 80.5t-79 24.5q-54 0 -85 -36t-31 -95v-535h-99l-276 442l-70 130h-1l4 -106v-466h-76v660h99l275 -440l71 -132h1l-4 106v365q0 47 22.5 87.5t65.5 64.5t104 24q78 0 121 -34.5z" />
    <glyph glyph-name="Nacute.swsh" horiz-adv-x="915" 
d="M394 743h-65l57 148h94zM863 700.5q43 -34.5 52 -96.5l-59 -43q-9 56 -35 80.5t-79 24.5q-54 0 -85 -36t-31 -95v-535h-99l-276 442l-70 130h-1l4 -106v-466h-76v660h99l275 -440l71 -132h1l-4 106v365q0 47 22.5 87.5t65.5 64.5t104 24q78 0 121 -34.5z" />
    <glyph glyph-name="Ncaron.swsh" horiz-adv-x="915" 
d="M326 738l-114 167h73l86 -115l86 115h73l-114 -167h-90zM863 700.5q43 -34.5 52 -96.5l-59 -43q-9 56 -35 80.5t-79 24.5q-54 0 -85 -36t-31 -95v-535h-99l-276 442l-70 130h-1l4 -106v-466h-76v660h99l275 -440l71 -132h1l-4 106v365q0 47 22.5 87.5t65.5 64.5t104 24
q78 0 121 -34.5z" />
    <glyph glyph-name="Ncommaaccent.swsh" horiz-adv-x="915" 
d="M863 700.5q43 -34.5 52 -96.5l-59 -43q-9 56 -35 80.5t-79 24.5q-54 0 -85 -36t-31 -95v-535h-99l-276 442l-70 130h-1l4 -106v-466h-76v660h99l275 -440l71 -132h1l-4 106v365q0 47 22.5 87.5t65.5 64.5t104 24q78 0 121 -34.5zM362 -237h-63l44 161h84z" />
    <glyph glyph-name="Ntilde.swsh" horiz-adv-x="915" 
d="M863 700.5q43 -34.5 52 -96.5l-59 -43q-9 56 -35 80.5t-79 24.5q-54 0 -85 -36t-31 -95v-535h-99l-276 442l-70 130h-1l4 -106v-466h-76v660h99l275 -440l71 -132h1l-4 106v365q0 47 22.5 87.5t65.5 64.5t104 24q78 0 121 -34.5zM439 743q-29 0 -48 10.5t-41 30.5
q-16 14 -26 20.5t-23 6.5q-21 0 -32 -17t-17 -52h-63q5 67 32.5 100.5t80.5 33.5q28 0 47.5 -11t41.5 -31q15 -13 25.5 -19.5t21.5 -6.5q21 0 32.5 17.5t17.5 51.5h63q-11 -134 -112 -134z" />
    <glyph glyph-name="R.swsh" horiz-adv-x="884" 
d="M565 274h-158v-208q0 -47 -22.5 -87.5t-67 -64.5t-106.5 -24q-78 0 -121 34.5t-52 96.5l59 43q9 -56 35 -80.5t79 -24.5q54 0 85 36t31 95v505h-91q-68 0 -107 -29t-39 -86q0 -45 30.5 -75.5t79.5 -38.5l-31 -64q-67 10 -113 59t-46 120q0 83 56.5 131t152.5 48h358
q101 0 162 -52t61 -141q0 -70 -39 -118t-107 -66l186 -283h-95zM407 349h169q140 0 140 118t-140 118h-169v-236z" />
    <glyph glyph-name="Racute.swsh" horiz-adv-x="884" 
d="M564 743h-65l57 148h94zM565 274h-158v-208q0 -47 -22.5 -87.5t-67 -64.5t-106.5 -24q-78 0 -121 34.5t-52 96.5l59 43q9 -56 35 -80.5t79 -24.5q54 0 85 36t31 95v505h-91q-68 0 -107 -29t-39 -86q0 -45 30.5 -75.5t79.5 -38.5l-31 -64q-67 10 -113 59t-46 120
q0 83 56.5 131t152.5 48h358q101 0 162 -52t61 -141q0 -70 -39 -118t-107 -66l186 -283h-95zM407 349h169q140 0 140 118t-140 118h-169v-236z" />
    <glyph glyph-name="Rcaron.swsh" horiz-adv-x="884" 
d="M496 738l-114 167h73l86 -115l86 115h73l-114 -167h-90zM565 274h-158v-208q0 -47 -22.5 -87.5t-67 -64.5t-106.5 -24q-78 0 -121 34.5t-52 96.5l59 43q9 -56 35 -80.5t79 -24.5q54 0 85 36t31 95v505h-91q-68 0 -107 -29t-39 -86q0 -45 30.5 -75.5t79.5 -38.5l-31 -64
q-67 10 -113 59t-46 120q0 83 56.5 131t152.5 48h358q101 0 162 -52t61 -141q0 -70 -39 -118t-107 -66l186 -283h-95zM407 349h169q140 0 140 118t-140 118h-169v-236z" />
    <glyph glyph-name="Rcommaaccent.swsh" horiz-adv-x="884" 
d="M565 274h-158v-208q0 -47 -22.5 -87.5t-67 -64.5t-106.5 -24q-78 0 -121 34.5t-52 96.5l59 43q9 -56 35 -80.5t79 -24.5q54 0 85 36t31 95v505h-91q-68 0 -107 -29t-39 -86q0 -45 30.5 -75.5t79.5 -38.5l-31 -64q-67 10 -113 59t-46 120q0 83 56.5 131t152.5 48h358
q101 0 162 -52t61 -141q0 -70 -39 -118t-107 -66l186 -283h-95zM407 349h169q140 0 140 118t-140 118h-169v-236zM549 -237h-63l44 161h84z" />
    <glyph glyph-name="S.swsh" horiz-adv-x="641" 
d="M133.5 -62q-67.5 48 -67.5 137q0 18 3 39l75 22q-3 -21 -3 -39q0 -67 46 -99.5t142 -32.5q85 0 129 35.5t44 103.5q0 33 -17 56.5t-57 43t-110 37.5q-130 33 -184.5 82t-54.5 127q0 66 31 116t87.5 77t132.5 27q108 0 170 -48t72 -140l-79 -31q-3 77 -41 110.5t-121 33.5
q-80 0 -124 -35.5t-44 -100.5q0 -36 17.5 -61.5t59 -46t113.5 -39.5q88 -23 138 -50t72 -64t22 -90q0 -65 -32 -114.5t-91 -76.5t-136 -27q-125 0 -192.5 48z" />
    <glyph glyph-name="Sacute.swsh" horiz-adv-x="641" 
d="M435 891l-86 -148h-65l57 148h94zM133.5 -62q-67.5 48 -67.5 137q0 18 3 39l75 22q-3 -21 -3 -39q0 -67 46 -99.5t142 -32.5q85 0 129 35.5t44 103.5q0 33 -17 56.5t-57 43t-110 37.5q-130 33 -184.5 82t-54.5 127q0 66 31 116t87.5 77t132.5 27q108 0 170 -48t72 -140
l-79 -31q-3 77 -41 110.5t-121 33.5q-80 0 -124 -35.5t-44 -100.5q0 -36 17.5 -61.5t59 -46t113.5 -39.5q88 -23 138 -50t72 -64t22 -90q0 -65 -32 -114.5t-91 -76.5t-136 -27q-125 0 -192.5 48z" />
    <glyph glyph-name="Scaron.swsh" horiz-adv-x="641" 
d="M371 738h-90l-114 167h73l86 -115l86 115h73zM133.5 -62q-67.5 48 -67.5 137q0 18 3 39l75 22q-3 -21 -3 -39q0 -67 46 -99.5t142 -32.5q85 0 129 35.5t44 103.5q0 33 -17 56.5t-57 43t-110 37.5q-130 33 -184.5 82t-54.5 127q0 66 31 116t87.5 77t132.5 27
q108 0 170 -48t72 -140l-79 -31q-3 77 -41 110.5t-121 33.5q-80 0 -124 -35.5t-44 -100.5q0 -36 17.5 -61.5t59 -46t113.5 -39.5q88 -23 138 -50t72 -64t22 -90q0 -65 -32 -114.5t-91 -76.5t-136 -27q-125 0 -192.5 48z" />
    <glyph glyph-name="Scedilla.swsh" horiz-adv-x="641" 
d="M525.5 -40q-59.5 -58 -160.5 -68q26 -21 39.5 -47t13.5 -53q0 -44 -31.5 -75.5t-84.5 -31.5q-71 0 -110 35l30 55q13 -13 31 -21.5t38 -8.5q24 0 40.5 16t16.5 42q0 29 -16.5 48.5t-60.5 41.5q-99 10 -152 56.5t-53 125.5q0 18 3 39l75 22q-3 -21 -3 -39q0 -67 46 -99.5
t142 -32.5q85 0 129 35.5t44 103.5q0 33 -17 56.5t-57 43t-110 37.5q-130 33 -184.5 82t-54.5 127q0 66 31 116t87.5 77t132.5 27q108 0 170 -48t72 -140l-79 -31q-3 77 -41 110.5t-121 33.5q-80 0 -124 -35.5t-44 -100.5q0 -36 17.5 -61.5t59 -46t113.5 -39.5
q88 -23 138 -50t72 -64t22 -90q0 -90 -59.5 -148z" />
    <glyph glyph-name="Scommaaccent.swsh" horiz-adv-x="641" 
d="M133.5 -62q-67.5 48 -67.5 137q0 18 3 39l75 22q-3 -21 -3 -39q0 -67 46 -99.5t142 -32.5q85 0 129 35.5t44 103.5q0 33 -17 56.5t-57 43t-110 37.5q-130 33 -184.5 82t-54.5 127q0 66 31 116t87.5 77t132.5 27q108 0 170 -48t72 -140l-79 -31q-3 77 -41 110.5t-121 33.5
q-80 0 -124 -35.5t-44 -100.5q0 -36 17.5 -61.5t59 -46t113.5 -39.5q88 -23 138 -50t72 -64t22 -90q0 -65 -32 -114.5t-91 -76.5t-136 -27q-125 0 -192.5 48zM301 -337h-63l44 161h84z" />
    <glyph glyph-name="T.swsh" horiz-adv-x="709" 
d="M677 585h-230v-585h-80v585h-131q-146 0 -146 -105q0 -45 30.5 -75.5t79.5 -38.5l-31 -64q-67 10 -113 59t-46 120q0 83 56.5 131t152.5 48h458v-75z" />
    <glyph glyph-name="Tcaron.swsh" horiz-adv-x="709" 
d="M362 738l-114 167h73l86 -115l86 115h73l-114 -167h-90zM677 585h-230v-585h-80v585h-131q-146 0 -146 -105q0 -45 30.5 -75.5t79.5 -38.5l-31 -64q-67 10 -113 59t-46 120q0 83 56.5 131t152.5 48h458v-75z" />
    <glyph glyph-name="uni0162.swsh" horiz-adv-x="709" 
d="M447 585v-576q71 -49 71 -118q0 -43 -32.5 -74.5t-84.5 -31.5q-71 0 -110 35l30 55q13 -13 31 -21.5t38 -8.5q24 0 40.5 16t16.5 42q0 27 -17 46.5t-63 50.5v585h-131q-146 0 -146 -105q0 -45 30.5 -75.5t79.5 -38.5l-31 -64q-67 10 -113 59t-46 120q0 83 56.5 131
t152.5 48h458v-75h-230z" />
    <glyph glyph-name="uni021A.swsh" horiz-adv-x="709" 
d="M677 585h-230v-585h-80v585h-131q-146 0 -146 -105q0 -45 30.5 -75.5t79.5 -38.5l-31 -64q-67 10 -113 59t-46 120q0 83 56.5 131t152.5 48h458v-75zM388 -237h-63l44 161h84z" />
    <glyph glyph-name="W.swsh" horiz-adv-x="1216" 
d="M1180 660l-194 -660h-99l-117 428l-34 149h-1l-34 -149l-116 -428h-99l-176 595h-74q-68 0 -107 -29t-39 -86q0 -45 30.5 -75.5t79.5 -38.5l-31 -64q-67 10 -113 59t-46 120q0 83 56.5 131t152.5 48h158l159 -597l156 597h91l156 -599l160 599h81z" />
    <glyph glyph-name="Adieresis.titl" horiz-adv-x="660" 
d="M134 568q-15 15 -15 40q0 24 15 39t39 15q25 0 40 -15t15 -39q0 -25 -15 -40t-40 -15q-24 0 -39 15zM448 568q-15 15 -15 40q0 24 15 39t40 15q24 0 39 -15t15 -39q0 -25 -15 -40t-39 -15q-25 0 -40 15zM479 183h-299l-70 -183h-84l257 660h95l256 -660h-85zM450 258
l-89 234l-31 92h-2l-29 -89l-90 -237h241z" />
    <glyph glyph-name="Odieresis.titl" horiz-adv-x="748" 
d="M536 628.5q69 -41.5 106.5 -118t37.5 -180.5t-37.5 -180.5t-106.5 -118t-162 -41.5t-162 41.5t-106.5 118t-37.5 180.5t37.5 180.5t106.5 118t162 41.5t162 -41.5zM211.5 524.5q-59.5 -70.5 -59.5 -194.5t59.5 -194.5t162.5 -70.5t162.5 70.5t59.5 194.5t-59.5 194.5
t-162.5 70.5t-162.5 -70.5zM347 545q15 -15 15 -39q0 -25 -15 -40t-40 -15q-24 0 -39 15t-15 40q0 24 15 39t39 15q25 0 40 -15zM480 545q15 -15 15 -39q0 -25 -15 -40t-39 -15q-25 0 -40 15t-15 40q0 24 15 39t40 15q24 0 39 -15z" />
    <glyph glyph-name="Udieresis.titl" horiz-adv-x="720" 
d="M249 568q-15 15 -15 40q0 24 15 39t39 15q25 0 40 -15t15 -39q0 -25 -15 -40t-40 -15q-24 0 -39 15zM392 568q-15 15 -15 40q0 24 15 39t40 15q24 0 39 -15t15 -39q0 -25 -15 -40t-39 -15q-25 0 -40 15zM619 246q0 -127 -66.5 -191.5t-192.5 -64.5t-192.5 65t-66.5 191
v414h80v-394q0 -104 43.5 -152.5t135.5 -48.5t135.5 48.5t43.5 152.5v394h80v-414z" />
    <glyph glyph-name="a" unicode="a" horiz-adv-x="566" 
d="M543 63l-5 -63q-28 -10 -60 -10q-39 0 -61.5 17t-28.5 57q-23 -35 -67.5 -54.5t-93.5 -19.5q-74 0 -122 34.5t-48 99.5q0 57 50 98.5t145 57.5l133 22v28q0 50 -31 80t-86 30q-50 0 -86.5 -24t-56.5 -71l-59 43q20 56 74.5 89t127.5 33q89 0 143 -43t54 -127v-246
q0 -18 9 -27t29 -9t40 5zM339.5 90q45.5 30 45.5 78v69l-112 -21q-67 -12 -100 -34.5t-33 -57.5q0 -31 24 -47.5t67 -16.5q63 0 108.5 30z" />
    <glyph glyph-name="aacute" unicode="&#xe1;" horiz-adv-x="566" 
d="M543 63l-5 -63q-28 -10 -60 -10q-39 0 -61.5 17t-28.5 57q-23 -35 -67.5 -54.5t-93.5 -19.5q-74 0 -122 34.5t-48 99.5q0 57 50 98.5t145 57.5l133 22v28q0 50 -31 80t-86 30q-50 0 -86.5 -24t-56.5 -71l-59 43q20 56 74.5 89t127.5 33q89 0 143 -43t54 -127v-246
q0 -18 9 -27t29 -9t40 5zM339.5 90q45.5 30 45.5 78v69l-112 -21q-67 -12 -100 -34.5t-33 -57.5q0 -31 24 -47.5t67 -16.5q63 0 108.5 30zM390 750l-98 -167h-65l76 167h87z" />
    <glyph glyph-name="abreve" unicode="&#x103;" horiz-adv-x="566" 
d="M543 63l-5 -63q-28 -10 -60 -10q-39 0 -61.5 17t-28.5 57q-23 -35 -67.5 -54.5t-93.5 -19.5q-74 0 -122 34.5t-48 99.5q0 57 50 98.5t145 57.5l133 22v28q0 50 -31 80t-86 30q-50 0 -86.5 -24t-56.5 -71l-59 43q20 56 74.5 89t127.5 33q89 0 143 -43t54 -127v-246
q0 -18 9 -27t29 -9t40 5zM339.5 90q45.5 30 45.5 78v69l-112 -21q-67 -12 -100 -34.5t-33 -57.5q0 -31 24 -47.5t67 -16.5q63 0 108.5 30zM383 618q-41 -41 -107 -41t-107 41t-41 107h66q0 -36 23.5 -62t58.5 -26t58.5 26t23.5 62h66q0 -66 -41 -107z" />
    <glyph glyph-name="acircumflex" unicode="&#xe2;" horiz-adv-x="566" 
d="M543 63l-5 -63q-28 -10 -60 -10q-39 0 -61.5 17t-28.5 57q-23 -35 -67.5 -54.5t-93.5 -19.5q-74 0 -122 34.5t-48 99.5q0 57 50 98.5t145 57.5l133 22v28q0 50 -31 80t-86 30q-50 0 -86.5 -24t-56.5 -71l-59 43q20 56 74.5 89t127.5 33q89 0 143 -43t54 -127v-246
q0 -18 9 -27t29 -9t40 5zM339.5 90q45.5 30 45.5 78v69l-112 -21q-67 -12 -100 -34.5t-33 -57.5q0 -31 24 -47.5t67 -16.5q63 0 108.5 30zM361 576l-85 111l-85 -111h-73l112 167h92l112 -167h-73z" />
    <glyph glyph-name="adieresis" unicode="&#xe4;" horiz-adv-x="566" 
d="M543 63l-5 -63q-28 -10 -60 -10q-39 0 -61.5 17t-28.5 57q-23 -35 -67.5 -54.5t-93.5 -19.5q-74 0 -122 34.5t-48 99.5q0 57 50 98.5t145 57.5l133 22v28q0 50 -31 80t-86 30q-50 0 -86.5 -24t-56.5 -71l-59 43q20 56 74.5 89t127.5 33q89 0 143 -43t54 -127v-246
q0 -18 9 -27t29 -9t40 5zM339.5 90q45.5 30 45.5 78v69l-112 -21q-67 -12 -100 -34.5t-33 -57.5q0 -31 24 -47.5t67 -16.5q63 0 108.5 30zM220.5 680.5q15.5 -15.5 15.5 -41.5q0 -25 -15.5 -41t-41.5 -16q-25 0 -41 16t-16 41q0 26 16 41.5t41 15.5q26 0 41.5 -15.5z
M414.5 680.5q15.5 -15.5 15.5 -41.5q0 -25 -15.5 -41t-41.5 -16q-25 0 -41 16t-16 41q0 26 16 41.5t41 15.5q26 0 41.5 -15.5z" />
    <glyph glyph-name="agrave" unicode="&#xe0;" horiz-adv-x="566" 
d="M543 63l-5 -63q-28 -10 -60 -10q-39 0 -61.5 17t-28.5 57q-23 -35 -67.5 -54.5t-93.5 -19.5q-74 0 -122 34.5t-48 99.5q0 57 50 98.5t145 57.5l133 22v28q0 50 -31 80t-86 30q-50 0 -86.5 -24t-56.5 -71l-59 43q20 56 74.5 89t127.5 33q89 0 143 -43t54 -127v-246
q0 -18 9 -27t29 -9t40 5zM339.5 90q45.5 30 45.5 78v69l-112 -21q-67 -12 -100 -34.5t-33 -57.5q0 -31 24 -47.5t67 -16.5q63 0 108.5 30zM318 583h-65l-98 167h87z" />
    <glyph glyph-name="amacron" unicode="&#x101;" horiz-adv-x="566" 
d="M543 63l-5 -63q-28 -10 -60 -10q-39 0 -61.5 17t-28.5 57q-23 -35 -67.5 -54.5t-93.5 -19.5q-74 0 -122 34.5t-48 99.5q0 57 50 98.5t145 57.5l133 22v28q0 50 -31 80t-86 30q-50 0 -86.5 -24t-56.5 -71l-59 43q20 56 74.5 89t127.5 33q89 0 143 -43t54 -127v-246
q0 -18 9 -27t29 -9t40 5zM339.5 90q45.5 30 45.5 78v69l-112 -21q-67 -12 -100 -34.5t-33 -57.5q0 -31 24 -47.5t67 -16.5q63 0 108.5 30zM450 596h-348v67h348v-67z" />
    <glyph glyph-name="aogonek" unicode="&#x105;" horiz-adv-x="566" 
d="M527 -146l16 -51q-28 -18 -77 -18q-54 0 -85.5 26t-31.5 70q0 40 23 69.5t67 52.5q-37 21 -49 65q-22 -36 -67.5 -57t-95.5 -21q-74 0 -122 34.5t-48 99.5q0 57 50 98.5t145 57.5l133 22v28q0 50 -31 80t-86 30q-50 0 -86.5 -24t-56.5 -71l-59 43q20 56 74.5 89t127.5 33
q89 0 143 -43t54 -127v-246q0 -18 9 -27t29 -9t40 5l-5 -63q-9 -3 -11 -4q-63 -20 -88 -45t-25 -56q0 -25 15 -39t43 -14q36 0 55 12zM339.5 90q45.5 30 45.5 78v69l-112 -21q-68 -14 -100.5 -36t-32.5 -56q0 -31 24 -47.5t67 -16.5q63 0 108.5 30z" />
    <glyph glyph-name="aring" unicode="&#xe5;" horiz-adv-x="566" 
d="M543 63l-5 -63q-28 -10 -60 -10q-39 0 -61.5 17t-28.5 57q-23 -35 -67.5 -54.5t-93.5 -19.5q-74 0 -122 34.5t-48 99.5q0 57 50 98.5t145 57.5l133 22v28q0 50 -31 80t-86 30q-50 0 -86.5 -24t-56.5 -71l-59 43q20 56 74.5 89t127.5 33q89 0 143 -43t54 -127v-246
q0 -18 9 -27t29 -9t40 5zM339.5 90q45.5 30 45.5 78v69l-112 -21q-67 -12 -100 -34.5t-33 -57.5q0 -31 24 -47.5t67 -16.5q63 0 108.5 30zM363.5 779.5q34.5 -32.5 34.5 -85.5t-34.5 -86t-90.5 -33t-91 33t-35 86t35 85.5t91 32.5t90.5 -32.5zM222 743.5
q-20 -19.5 -20 -49.5t20 -49.5t51 -19.5t51 19.5t20 49.5t-20 49.5t-51 19.5t-51 -19.5z" />
    <glyph glyph-name="atilde" unicode="&#xe3;" horiz-adv-x="566" 
d="M543 63l-5 -63q-28 -10 -60 -10q-39 0 -61.5 17t-28.5 57q-23 -35 -67.5 -54.5t-93.5 -19.5q-74 0 -122 34.5t-48 99.5q0 57 50 98.5t145 57.5l133 22v28q0 50 -31 80t-86 30q-50 0 -86.5 -24t-56.5 -71l-59 43q20 56 74.5 89t127.5 33q89 0 143 -43t54 -127v-246
q0 -18 9 -27t29 -9t40 5zM339.5 90q45.5 30 45.5 78v69l-112 -21q-67 -12 -100 -34.5t-33 -57.5q0 -31 24 -47.5t67 -16.5q63 0 108.5 30zM344 583q-29 0 -48 10.5t-41 30.5q-16 14 -26 20.5t-23 6.5q-21 0 -32 -17t-17 -52h-63q5 67 32.5 100.5t80.5 33.5q28 0 47.5 -11
t41.5 -31q15 -13 25.5 -19.5t21.5 -6.5q21 0 32.5 17.5t17.5 51.5h63q-11 -134 -112 -134z" />
    <glyph glyph-name="ae" unicode="&#xe6;" horiz-adv-x="884" 
d="M821 220h-357q8 -75 49.5 -117.5t103.5 -42.5q54 0 85.5 18.5t45.5 55.5l67 -35q-31 -55 -76 -82t-122 -27q-69 0 -119 30.5t-74 92.5q-20 -60 -75 -91.5t-129 -31.5t-118.5 36.5t-44.5 97.5q0 58 48 97.5t138 51.5l149 19v38q0 50 -32.5 80t-90.5 30q-50 0 -87 -24
t-57 -71l-59 43q22 57 77 89.5t128 32.5q59 0 102 -26t65 -76q28 48 72 75t101 27q104 0 159 -66t55 -168q0 -28 -4 -56zM513.5 400.5q-38.5 -39.5 -47.5 -109.5h282q-7 71 -41 110t-96 39q-59 0 -97.5 -39.5zM312 77q36 17 58 48.5t22 72.5v31l-128 -20q-66 -11 -95 -30.5
t-29 -54.5q0 -64 94 -64q42 0 78 17z" />
    <glyph glyph-name="b" unicode="b" horiz-adv-x="630" 
d="M505.5 440.5q61.5 -69.5 61.5 -190.5t-61.5 -190.5t-166.5 -69.5q-58 0 -103.5 26.5t-67.5 70.5l-5 -87h-70v730h80v-308q24 40 67.5 64t98.5 24q105 0 166.5 -69.5zM445 111.5q42 51.5 42 138.5t-42 138.5t-115 51.5q-72 0 -114.5 -50t-42.5 -134v-12q0 -84 42.5 -134
t114.5 -50q73 0 115 51.5z" />
    <glyph glyph-name="c" unicode="c" horiz-adv-x="564" 
d="M430.5 475.5q51.5 -34.5 80.5 -98.5l-76 -36q-32 99 -133 99q-75 0 -117.5 -50.5t-42.5 -139.5t42.5 -139.5t117.5 -50.5q58 0 93.5 26.5t46.5 76.5l74 -26q-26 -70 -80 -108.5t-132 -38.5q-113 0 -177.5 69t-64.5 191t64.5 191t177.5 69q75 0 126.5 -34.5z" />
    <glyph glyph-name="cacute" unicode="&#x107;" horiz-adv-x="564" 
d="M430.5 475.5q51.5 -34.5 80.5 -98.5l-76 -36q-32 99 -133 99q-75 0 -117.5 -50.5t-42.5 -139.5t42.5 -139.5t117.5 -50.5q58 0 93.5 26.5t46.5 76.5l74 -26q-26 -70 -80 -108.5t-132 -38.5q-113 0 -177.5 69t-64.5 191t64.5 191t177.5 69q75 0 126.5 -34.5zM410 750
l-98 -167h-65l76 167h87z" />
    <glyph glyph-name="ccaron" unicode="&#x10d;" horiz-adv-x="564" 
d="M430.5 475.5q51.5 -34.5 80.5 -98.5l-76 -36q-32 99 -133 99q-75 0 -117.5 -50.5t-42.5 -139.5t42.5 -139.5t117.5 -50.5q58 0 93.5 26.5t46.5 76.5l74 -26q-26 -70 -80 -108.5t-132 -38.5q-113 0 -177.5 69t-64.5 191t64.5 191t177.5 69q75 0 126.5 -34.5zM342 583h-92
l-112 167h73l85 -111l85 111h73z" />
    <glyph glyph-name="ccedilla" unicode="&#xe7;" horiz-adv-x="564" 
d="M452 41q-42 -37 -101 -47q27 -21 41 -47.5t14 -54.5q0 -44 -31.5 -75.5t-84.5 -31.5q-71 0 -110 35l30 55q13 -13 31 -21.5t38 -8.5q24 0 40.5 16t16.5 42q0 29 -16.5 48.5t-61.5 41.5q-93 14 -144.5 81.5t-51.5 175.5q0 122 64.5 191t177.5 69q75 0 126.5 -34.5
t80.5 -98.5l-76 -36q-32 99 -133 99q-75 0 -117.5 -50.5t-42.5 -139.5t42.5 -139.5t117.5 -50.5q58 0 93.5 26.5t46.5 76.5l74 -26q-22 -59 -64 -96z" />
    <glyph glyph-name="d" unicode="d" horiz-adv-x="630" 
d="M537 730v-730h-70l-5 87q-22 -44 -67.5 -70.5t-103.5 -26.5q-105 0 -166.5 69.5t-61.5 190.5t61.5 190.5t166.5 69.5q55 0 98.5 -24t67.5 -64v308h80zM414.5 110q42.5 50 42.5 134v12q0 84 -42.5 134t-114.5 50q-73 0 -115 -51.5t-42 -138.5t42 -138.5t115 -51.5
q72 0 114.5 50z" />
    <glyph glyph-name="eth" unicode="&#xf0;" horiz-adv-x="620" 
d="M546 288q0 -136 -63 -217t-185 -81q-109 0 -172.5 66t-63.5 182q0 75 30.5 131t83.5 86t120 30q113 0 169 -70q-12 54 -31.5 97.5t-49.5 80.5l-186 -48l-10 49l162 36q-57 54 -145 100h111q62 -37 105 -83l110 31l14 -50l-92 -19q93 -124 93 -321zM390.5 84.5
q37.5 24.5 57.5 65t20 88.5q0 82 -43 129.5t-118 47.5q-76 0 -119 -47t-43 -130t42 -130.5t115 -47.5q51 0 88.5 24.5z" />
    <glyph glyph-name="dcaron" unicode="&#x10f;" horiz-adv-x="641" 
d="M457 730h80v-730h-70l-5 87q-22 -44 -67.5 -70.5t-103.5 -26.5q-105 0 -166.5 69.5t-61.5 190.5t61.5 190.5t166.5 69.5q55 0 98.5 -24t67.5 -64v308zM689 730l-41 -197h-55l20 197h76zM414.5 110q42.5 50 42.5 134v12q0 84 -42.5 134t-114.5 50q-73 0 -115 -51.5
t-42 -138.5t42 -138.5t115 -51.5q72 0 114.5 50z" />
    <glyph glyph-name="dcroat" unicode="&#x111;" horiz-adv-x="629" 
d="M614 566h-77v-566h-70l-5 87q-22 -44 -67.5 -70.5t-103.5 -26.5q-105 0 -166.5 69.5t-61.5 190.5t61.5 190.5t166.5 69.5q55 0 98.5 -24t67.5 -64v144h-157v61h157v103h80v-103h77v-61zM414.5 110q42.5 50 42.5 134v12q0 84 -42.5 134t-114.5 50q-73 0 -115 -51.5
t-42 -138.5t42 -138.5t115 -51.5q72 0 114.5 50z" />
    <glyph glyph-name="e" unicode="e" horiz-adv-x="581" 
d="M518 220h-377q7 -76 50.5 -118t112.5 -42q55 0 91.5 19t49.5 55l67 -35q-30 -53 -80 -81t-128 -28q-113 0 -177.5 69t-64.5 191t61.5 191t174.5 69q70 0 121 -31t77 -84t26 -119q0 -28 -4 -56zM191.5 401q-40.5 -39 -49.5 -110h303q-8 70 -46 109.5t-101 39.5
q-66 0 -106.5 -39z" />
    <glyph glyph-name="eacute" unicode="&#xe9;" horiz-adv-x="581" 
d="M518 220h-377q7 -76 50.5 -118t112.5 -42q55 0 91.5 19t49.5 55l67 -35q-30 -53 -80 -81t-128 -28q-113 0 -177.5 69t-64.5 191t61.5 191t174.5 69q70 0 121 -31t77 -84t26 -119q0 -28 -4 -56zM191.5 401q-40.5 -39 -49.5 -110h303q-8 70 -46 109.5t-101 39.5
q-66 0 -106.5 -39zM409 750l-98 -167h-65l76 167h87z" />
    <glyph glyph-name="ecaron" unicode="&#x11b;" horiz-adv-x="581" 
d="M518 220h-377q7 -76 50.5 -118t112.5 -42q55 0 91.5 19t49.5 55l67 -35q-30 -53 -80 -81t-128 -28q-113 0 -177.5 69t-64.5 191t61.5 191t174.5 69q70 0 121 -31t77 -84t26 -119q0 -28 -4 -56zM191.5 401q-40.5 -39 -49.5 -110h303q-8 70 -46 109.5t-101 39.5
q-66 0 -106.5 -39zM341 583h-92l-112 167h73l85 -111l85 111h73z" />
    <glyph glyph-name="ecircumflex" unicode="&#xea;" horiz-adv-x="581" 
d="M518 220h-377q7 -76 50.5 -118t112.5 -42q55 0 91.5 19t49.5 55l67 -35q-30 -53 -80 -81t-128 -28q-113 0 -177.5 69t-64.5 191t61.5 191t174.5 69q70 0 121 -31t77 -84t26 -119q0 -28 -4 -56zM191.5 401q-40.5 -39 -49.5 -110h303q-8 70 -46 109.5t-101 39.5
q-66 0 -106.5 -39zM380 576l-85 111l-85 -111h-73l112 167h92l112 -167h-73z" />
    <glyph glyph-name="edieresis" unicode="&#xeb;" horiz-adv-x="581" 
d="M518 220h-377q7 -76 50.5 -118t112.5 -42q55 0 91.5 19t49.5 55l67 -35q-30 -53 -80 -81t-128 -28q-113 0 -177.5 69t-64.5 191t61.5 191t174.5 69q70 0 121 -31t77 -84t26 -119q0 -28 -4 -56zM191.5 401q-40.5 -39 -49.5 -110h303q-8 70 -46 109.5t-101 39.5
q-66 0 -106.5 -39zM239.5 680.5q15.5 -15.5 15.5 -41.5q0 -25 -15.5 -41t-41.5 -16q-25 0 -41 16t-16 41q0 26 16 41.5t41 15.5q26 0 41.5 -15.5zM433.5 680.5q15.5 -15.5 15.5 -41.5q0 -25 -15.5 -41t-41.5 -16q-25 0 -41 16t-16 41q0 26 16 41.5t41 15.5q26 0 41.5 -15.5z
" />
    <glyph glyph-name="edotaccent" unicode="&#x117;" horiz-adv-x="581" 
d="M518 220h-377q7 -76 50.5 -118t112.5 -42q55 0 91.5 19t49.5 55l67 -35q-30 -53 -80 -81t-128 -28q-113 0 -177.5 69t-64.5 191t61.5 191t174.5 69q70 0 121 -31t77 -84t26 -119q0 -28 -4 -56zM191.5 401q-40.5 -39 -49.5 -110h303q-8 70 -46 109.5t-101 39.5
q-66 0 -106.5 -39zM338.5 699.5q16.5 -16.5 16.5 -43.5t-16.5 -43.5t-43.5 -16.5t-43.5 16.5t-16.5 43.5t16.5 43.5t43.5 16.5t43.5 -16.5z" />
    <glyph glyph-name="egrave" unicode="&#xe8;" horiz-adv-x="581" 
d="M518 220h-377q7 -76 50.5 -118t112.5 -42q55 0 91.5 19t49.5 55l67 -35q-30 -53 -80 -81t-128 -28q-113 0 -177.5 69t-64.5 191t61.5 191t174.5 69q70 0 121 -31t77 -84t26 -119q0 -28 -4 -56zM191.5 401q-40.5 -39 -49.5 -110h303q-8 70 -46 109.5t-101 39.5
q-66 0 -106.5 -39zM337 583h-65l-98 167h87z" />
    <glyph glyph-name="emacron" unicode="&#x113;" horiz-adv-x="581" 
d="M518 220h-377q7 -76 50.5 -118t112.5 -42q55 0 91.5 19t49.5 55l67 -35q-30 -53 -80 -81t-128 -28q-113 0 -177.5 69t-64.5 191t61.5 191t174.5 69q70 0 121 -31t77 -84t26 -119q0 -28 -4 -56zM191.5 401q-40.5 -39 -49.5 -110h303q-8 70 -46 109.5t-101 39.5
q-66 0 -106.5 -39zM469 596h-348v67h348v-67z" />
    <glyph glyph-name="eogonek" unicode="&#x119;" horiz-adv-x="581" 
d="M518 220h-377q7 -76 50.5 -118t112.5 -42q55 0 91.5 19t49.5 55l67 -35q-39 -72 -115 -96q-46 -28 -67.5 -53.5t-21.5 -50.5q0 -27 17.5 -42t45.5 -15q36 0 55 12l16 -51q-14 -9 -36 -13.5t-45 -4.5q-54 0 -86.5 28.5t-32.5 73.5q0 30 14 55t42 48q-110 2 -173 71
t-63 189q0 122 61.5 191t174.5 69q70 0 121 -31t77 -84t26 -119q0 -28 -4 -56zM191.5 401q-40.5 -39 -49.5 -110h303q-8 70 -46 109.5t-101 39.5q-66 0 -106.5 -39z" />
    <glyph glyph-name="f" unicode="f" horiz-adv-x="393" 
d="M212 500h167v-69h-167v-431h-80v431h-100v69h100v84q0 69 42 110t122 41q27 0 49.5 -6t35.5 -17l-21 -65q-24 15 -57 15q-91 0 -91 -86v-76z" />
    <glyph glyph-name="g" unicode="g" horiz-adv-x="549" 
d="M483 32q40 -32 40 -87q0 -48 -33 -84.5t-89.5 -56t-124.5 -19.5q-114 0 -172 36.5t-58 95.5q0 34 23.5 60t64.5 37q-31 15 -49.5 38t-18.5 54q0 37 20 61.5t55 36.5q-36 22 -54.5 57.5t-18.5 79.5q0 49 26 87.5t73 60t106 21.5q56 0 102 -20q28 102 141 102l18 -70
q-98 0 -119 -55q30 -23 46.5 -55t16.5 -71q0 -49 -26 -87.5t-73 -60t-106 -21.5q-44 0 -77 9q-30 -7 -43 -22t-13 -41t18 -40t48 -14h166q71 0 111 -32zM186 416q-35 -29 -35 -75t35 -75t87 -29t87 29t35 75t-35 75t-87 29t-87 -29zM405 -123.5q44 24.5 44 59.5
q0 29 -22.5 44t-76.5 15h-134q-46 0 -71 -16.5t-25 -45.5q0 -38 42 -59.5t123 -21.5q76 0 120 24.5z" />
    <glyph glyph-name="gbreve" unicode="&#x11f;" horiz-adv-x="532" 
d="M170 618q-41 41 -41 107h66q0 -36 23.5 -62t58.5 -26t58.5 26t23.5 62h66q0 -66 -41 -107t-107 -41t-107 41zM473 32q40 -32 40 -87q0 -48 -33 -84.5t-89.5 -56t-124.5 -19.5q-114 0 -172 36.5t-58 95.5q0 34 23.5 60t64.5 37q-31 15 -49.5 38t-18.5 54q0 37 20 61.5
t55 36.5q-36 22 -54.5 57.5t-18.5 79.5q0 49 26 87.5t73 60t106 21.5q63 0 113 -25q7 49 45.5 78t92.5 29l18 -70q-104 0 -108 -72q44 -46 44 -109q0 -49 -26 -87.5t-73 -60t-106 -21.5q-44 0 -77 9q-30 -7 -43 -22t-13 -41t18 -40t48 -14h166q71 0 111 -32zM176 416
q-35 -29 -35 -75t35 -75t87 -29t87 29t35 75t-35 75t-87 29t-87 -29zM395 -123.5q44 24.5 44 59.5q0 29 -22.5 44t-76.5 15h-134q-46 0 -71 -16.5t-25 -45.5q0 -38 42 -59.5t123 -21.5q76 0 120 24.5z" />
    <glyph glyph-name="h" unicode="h" horiz-adv-x="619" 
d="M476 461q55 -49 55 -141v-320h-80v292q0 78 -33.5 113t-89.5 35q-39 0 -74.5 -18t-58 -57.5t-22.5 -99.5v-265h-80v730h80v-305q25 43 67.5 64t95.5 21q85 0 140 -49z" />
    <glyph glyph-name="i" unicode="i" horiz-adv-x="266" 
d="M89.5 612.5q-16.5 16.5 -16.5 43.5t16.5 43.5t43.5 16.5t43.5 -16.5t16.5 -43.5t-16.5 -43.5t-43.5 -16.5t-43.5 16.5zM173 0h-80v500h80v-500z" />
    <glyph glyph-name="dotlessi" unicode="&#x131;" horiz-adv-x="266" 
d="M173 0h-80v500h80v-500z" />
    <glyph glyph-name="iacute" unicode="&#xed;" horiz-adv-x="266" 
d="M173 0h-80v500h80v-500zM257 750l-98 -167h-65l76 167h87z" />
    <glyph glyph-name="icircumflex" unicode="&#xee;" horiz-adv-x="266" 
d="M173 0h-80v500h80v-500zM218 576l-85 111l-85 -111h-73l112 167h92l112 -167h-73z" />
    <glyph glyph-name="idieresis" unicode="&#xef;" horiz-adv-x="266" 
d="M12 598q-16 16 -16 41q0 26 16 41.5t41 15.5q26 0 42 -15.5t16 -41.5t-16 -41.5t-42 -15.5q-25 0 -41 16zM171 597.5q-16 15.5 -16 41.5t16 41.5t42 15.5t41.5 -15.5t15.5 -41.5q0 -25 -15.5 -41t-41.5 -16t-42 15.5zM173 0h-80v500h80v-500z" />
    <glyph glyph-name="i.loclTRK" horiz-adv-x="266" 
d="M89.5 612.5q-16.5 16.5 -16.5 43.5t16.5 43.5t43.5 16.5t43.5 -16.5t16.5 -43.5t-16.5 -43.5t-43.5 -16.5t-43.5 16.5zM173 0h-80v500h80v-500z" />
    <glyph glyph-name="igrave" unicode="&#xec;" horiz-adv-x="266" 
d="M173 0h-80v500h80v-500zM175 583h-65l-98 167h87z" />
    <glyph glyph-name="ij" unicode="&#x133;" horiz-adv-x="532" 
d="M89.5 612.5q-16.5 16.5 -16.5 43.5t16.5 43.5t43.5 16.5t43.5 -16.5t16.5 -43.5t-16.5 -43.5t-43.5 -16.5t-43.5 16.5zM173 0h-80v500h80v-500zM441.5 698.5q17.5 -17.5 17.5 -42.5t-17.5 -42.5t-42.5 -17.5t-42.5 17.5t-17.5 42.5t17.5 42.5t42.5 17.5t42.5 -17.5z
M439 -51q0 -85 -45.5 -124.5t-106.5 -39.5q-30 0 -56 9t-44 24l17 76q35 -31 82 -31q73 0 73 94v543h80v-551z" />
    <glyph glyph-name="imacron" unicode="&#x12b;" horiz-adv-x="266" 
d="M244 596h-222v67h222v-67zM173 0h-80v500h80v-500z" />
    <glyph glyph-name="iogonek" unicode="&#x12f;" horiz-adv-x="266" 
d="M89.5 612.5q-16.5 16.5 -16.5 43.5t16.5 43.5t43.5 16.5t43.5 -16.5t16.5 -43.5t-16.5 -43.5t-43.5 -16.5t-43.5 16.5zM209 -194q-33 -21 -85 -21q-53 0 -84.5 26.5t-31.5 71.5q0 35 21 64t64 55v498h80v-500q-57 -32 -78 -56t-21 -53q0 -22 15 -36t42 -14q15 0 31.5 4
t27.5 11z" />
    <glyph glyph-name="j" unicode="j" horiz-adv-x="266" 
d="M175.5 698.5q17.5 -17.5 17.5 -42.5t-17.5 -42.5t-42.5 -17.5t-42.5 17.5t-17.5 42.5t17.5 42.5t42.5 17.5t42.5 -17.5zM173 -51q0 -85 -45.5 -124.5t-106.5 -39.5q-30 0 -56 9t-44 24l17 76q35 -31 82 -31q73 0 73 94v543h80v-551z" />
    <glyph glyph-name="k" unicode="k" horiz-adv-x="567" 
d="M279 247l-106 -106v-141h-80v730h80v-489l259 259h100l-195 -195l207 -305h-97z" />
    <glyph glyph-name="l" unicode="l" horiz-adv-x="306" 
d="M169 134q0 -38 11.5 -52.5t42.5 -14.5q21 0 36.5 3t36.5 11l-13 -77q-33 -14 -74 -14q-61 0 -90.5 33t-29.5 101v606h80v-596z" />
    <glyph glyph-name="lacute" unicode="&#x13a;" horiz-adv-x="315" 
d="M218 930l-61 -130h-64l37 130h88zM169 134q0 -38 11.5 -52.5t42.5 -14.5q21 0 36.5 3t36.5 11l-13 -77q-33 -14 -74 -14q-61 0 -90.5 33t-29.5 101v606h80v-596z" />
    <glyph glyph-name="lcaron" unicode="&#x13e;" horiz-adv-x="315" 
d="M169 134q0 -38 11.5 -52.5t42.5 -14.5q21 0 36.5 3t36.5 11l-13 -77q-33 -14 -74 -14q-61 0 -90.5 33t-29.5 101v606h80v-596zM281 533h-55l20 197h76z" />
    <glyph glyph-name="ldot" unicode="&#x140;" horiz-adv-x="407" 
d="M169 134q0 -38 11.5 -52.5t42.5 -14.5q21 0 36.5 3t36.5 11l-13 -77q-33 -14 -74 -14q-61 0 -90.5 33t-29.5 101v606h80v-596zM381 402q18 -18 18 -47t-18 -47t-47 -18t-47 18t-18 47t18 47t47 18t47 -18z" />
    <glyph glyph-name="lslash" unicode="&#x142;" horiz-adv-x="372" 
d="M305.5 70q15.5 3 36.5 11l-13 -77q-33 -14 -74 -14q-61 0 -90.5 33t-29.5 101v166l-96 -61v83l96 61v357h80v-306l120 76v-83l-120 -76v-207q0 -38 11.5 -52.5t42.5 -14.5q21 0 36.5 3z" />
    <glyph glyph-name="m" unicode="m" horiz-adv-x="953" 
d="M767.5 489.5q43.5 -20.5 70.5 -63.5t27 -106v-320h-80v312q0 65 -32.5 96.5t-85.5 31.5q-40 0 -73.5 -19.5t-54 -57t-20.5 -89.5v-274h-80v312q0 65 -32.5 96.5t-85.5 31.5q-36 0 -70 -18.5t-56 -57.5t-22 -97v-267h-80v500h70l5 -78q26 44 68.5 66t91.5 22
q55 0 101.5 -25t70.5 -73q22 48 72 73t102 25q50 0 93.5 -20.5z" />
    <glyph glyph-name="n" unicode="n" horiz-adv-x="619" 
d="M476 461q55 -49 55 -141v-320h-80v292q0 78 -33.5 113t-89.5 35q-40 0 -75 -17.5t-57.5 -57t-22.5 -99.5v-266h-80v500h70l5 -78q25 45 69 66.5t99 21.5q85 0 140 -49z" />
    <glyph glyph-name="nacute" unicode="&#x144;" horiz-adv-x="619" 
d="M476 461q55 -49 55 -141v-320h-80v292q0 78 -33.5 113t-89.5 35q-40 0 -75 -17.5t-57.5 -57t-22.5 -99.5v-266h-80v500h70l5 -78q25 45 69 66.5t99 21.5q85 0 140 -49zM432 750l-98 -167h-65l76 167h87z" />
    <glyph glyph-name="ncaron" unicode="&#x148;" horiz-adv-x="619" 
d="M476 461q55 -49 55 -141v-320h-80v292q0 78 -33.5 113t-89.5 35q-40 0 -75 -17.5t-57.5 -57t-22.5 -99.5v-266h-80v500h70l5 -78q25 45 69 66.5t99 21.5q85 0 140 -49zM364 583h-92l-112 167h73l85 -111l85 111h73z" />
    <glyph glyph-name="ntilde" unicode="&#xf1;" horiz-adv-x="619" 
d="M476 461q55 -49 55 -141v-320h-80v292q0 78 -33.5 113t-89.5 35q-40 0 -75 -17.5t-57.5 -57t-22.5 -99.5v-266h-80v500h70l5 -78q25 45 69 66.5t99 21.5q85 0 140 -49zM386 583q-29 0 -48 10.5t-41 30.5q-16 14 -26 20.5t-23 6.5q-21 0 -32 -17t-17 -52h-63
q5 67 32.5 100.5t80.5 33.5q28 0 47.5 -11t41.5 -31q15 -13 25.5 -19.5t21.5 -6.5q21 0 32.5 17.5t17.5 51.5h63q-11 -134 -112 -134z" />
    <glyph glyph-name="o" unicode="o" horiz-adv-x="608" 
d="M481.5 441q64.5 -69 64.5 -191t-64.5 -191t-177.5 -69t-177.5 69t-64.5 191t64.5 191t177.5 69t177.5 -69zM185 390q-43 -51 -43 -140t43 -140t119 -51t119 51t43 140t-43 140t-119 51t-119 -51z" />
    <glyph glyph-name="oacute" unicode="&#xf3;" horiz-adv-x="608" 
d="M481.5 441q64.5 -69 64.5 -191t-64.5 -191t-177.5 -69t-177.5 69t-64.5 191t64.5 191t177.5 69t177.5 -69zM185 390q-43 -51 -43 -140t43 -140t119 -51t119 51t43 140t-43 140t-119 51t-119 -51zM418 750l-98 -167h-65l76 167h87z" />
    <glyph glyph-name="ocircumflex" unicode="&#xf4;" horiz-adv-x="608" 
d="M481.5 441q64.5 -69 64.5 -191t-64.5 -191t-177.5 -69t-177.5 69t-64.5 191t64.5 191t177.5 69t177.5 -69zM185 390q-43 -51 -43 -140t43 -140t119 -51t119 51t43 140t-43 140t-119 51t-119 -51zM389 576l-85 111l-85 -111h-73l112 167h92l112 -167h-73z" />
    <glyph glyph-name="odieresis" unicode="&#xf6;" horiz-adv-x="608" 
d="M481.5 441q64.5 -69 64.5 -191t-64.5 -191t-177.5 -69t-177.5 69t-64.5 191t64.5 191t177.5 69t177.5 -69zM185 390q-43 -51 -43 -140t43 -140t119 -51t119 51t43 140t-43 140t-119 51t-119 -51zM248.5 680.5q15.5 -15.5 15.5 -41.5q0 -25 -15.5 -41t-41.5 -16
q-25 0 -41 16t-16 41q0 26 16 41.5t41 15.5q26 0 41.5 -15.5zM442.5 680.5q15.5 -15.5 15.5 -41.5q0 -25 -15.5 -41t-41.5 -16q-25 0 -41 16t-16 41q0 26 16 41.5t41 15.5q26 0 41.5 -15.5z" />
    <glyph glyph-name="ograve" unicode="&#xf2;" horiz-adv-x="608" 
d="M481.5 441q64.5 -69 64.5 -191t-64.5 -191t-177.5 -69t-177.5 69t-64.5 191t64.5 191t177.5 69t177.5 -69zM185 390q-43 -51 -43 -140t43 -140t119 -51t119 51t43 140t-43 140t-119 51t-119 -51zM346 583h-65l-98 167h87z" />
    <glyph glyph-name="ohungarumlaut" unicode="&#x151;" horiz-adv-x="608" 
d="M481.5 441q64.5 -69 64.5 -191t-64.5 -191t-177.5 -69t-177.5 69t-64.5 191t64.5 191t177.5 69t177.5 -69zM185 390q-43 -51 -43 -140t43 -140t119 -51t119 51t43 140t-43 140t-119 51t-119 -51zM228 583h-65l76 167h87zM404 583h-65l76 167h87z" />
    <glyph glyph-name="omacron" unicode="&#x14d;" horiz-adv-x="608" 
d="M481.5 441q64.5 -69 64.5 -191t-64.5 -191t-177.5 -69t-177.5 69t-64.5 191t64.5 191t177.5 69t177.5 -69zM185 390q-43 -51 -43 -140t43 -140t119 -51t119 51t43 140t-43 140t-119 51t-119 -51zM478 596h-348v67h348v-67z" />
    <glyph glyph-name="oslash" unicode="&#xf8;" horiz-adv-x="609" 
d="M445 472l39 51h67l-66 -86q61 -69 61 -187q0 -122 -64.5 -191t-177.5 -69q-76 0 -131 32l-45 -59h-67l69 92q-68 70 -68 195q0 122 64.5 191t177.5 69q83 0 141 -38zM179 118l36 49l185 245q-40 29 -96 29q-76 0 -119 -51t-43 -140q0 -80 36 -132h1zM423 110
q43 51 43 140q0 74 -30 122h-1l-32 -44l-185 -246q35 -23 86 -23q76 0 119 51z" />
    <glyph glyph-name="otilde" unicode="&#xf5;" horiz-adv-x="608" 
d="M481.5 441q64.5 -69 64.5 -191t-64.5 -191t-177.5 -69t-177.5 69t-64.5 191t64.5 191t177.5 69t177.5 -69zM185 390q-43 -51 -43 -140t43 -140t119 -51t119 51t43 140t-43 140t-119 51t-119 -51zM372 583q-29 0 -48 10.5t-41 30.5q-16 14 -26 20.5t-23 6.5q-21 0 -32 -17
t-17 -52h-63q5 67 32.5 100.5t80.5 33.5q28 0 47.5 -11t41.5 -31q15 -13 25.5 -19.5t21.5 -6.5q21 0 32.5 17.5t17.5 51.5h63q-11 -134 -112 -134z" />
    <glyph glyph-name="oe" unicode="&#x153;" horiz-adv-x="989" 
d="M925 220h-377q7 -76 50.5 -118t112.5 -42q55 0 91.5 19t49.5 55l67 -35q-30 -53 -80 -81t-128 -28q-70 0 -121 29.5t-80 84.5q-28 -55 -80 -84.5t-123 -29.5q-115 0 -180 69t-65 191t65 191t180 69q71 0 122.5 -29t80.5 -83q26 54 76 83t119 29q70 0 121 -31t77 -84
t26 -119q0 -28 -4 -56zM426 110.5q43 50.5 43 139.5t-43 139.5t-119 50.5t-119 -50.5t-43 -139.5t43 -139.5t119 -50.5t119 50.5zM598.5 401q-40.5 -39 -49.5 -110h303q-8 70 -46 109.5t-101 39.5q-66 0 -106.5 -39z" />
    <glyph glyph-name="p" unicode="p" horiz-adv-x="630" 
d="M505.5 440.5q61.5 -69.5 61.5 -190.5t-61.5 -190.5t-166.5 -69.5q-55 0 -98.5 24t-67.5 64v-288h-80v710h70l5 -87q22 44 67.5 70.5t103.5 26.5q105 0 166.5 -69.5zM445 111.5q42 51.5 42 138.5t-42 138.5t-115 51.5q-72 0 -114.5 -50t-42.5 -134v-12q0 -84 42.5 -134
t114.5 -50q73 0 115 51.5z" />
    <glyph glyph-name="thorn" unicode="&#xfe;" horiz-adv-x="630" 
d="M505.5 440.5q61.5 -69.5 61.5 -190.5t-61.5 -190.5t-166.5 -69.5q-55 0 -97.5 21.5t-68.5 57.5v-279h-80v940h80v-299q26 36 68.5 57.5t97.5 21.5q105 0 166.5 -69.5zM445 111.5q42 51.5 42 138.5t-42 138.5t-115 51.5q-72 0 -114.5 -50t-42.5 -134v-12q0 -84 42.5 -134
t114.5 -50q73 0 115 51.5z" />
    <glyph glyph-name="q" unicode="q" horiz-adv-x="631" 
d="M538 500v-710h-80v288q-24 -40 -67.5 -64t-98.5 -24q-105 0 -166.5 69.5t-61.5 190.5t61.5 190.5t166.5 69.5q58 0 103.5 -26.5t67.5 -70.5l5 87h70zM415.5 110q42.5 50 42.5 134v12q0 84 -42.5 134t-114.5 50q-73 0 -115 -51.5t-42 -138.5t42 -138.5t115 -51.5
q72 0 114.5 50z" />
    <glyph glyph-name="r" unicode="r" horiz-adv-x="408" 
d="M384 500l-16 -78q-24 13 -63 13q-32 0 -62.5 -18.5t-50 -56t-19.5 -90.5v-270h-80v500h65l11 -82q42 92 160 92q36 0 55 -10z" />
    <glyph glyph-name="racute" unicode="&#x155;" horiz-adv-x="408" 
d="M384 500l-16 -78q-24 13 -63 13q-32 0 -62.5 -18.5t-50 -56t-19.5 -90.5v-270h-80v500h65l11 -82q42 92 160 92q36 0 55 -10zM334 750l-98 -167h-65l76 167h87z" />
    <glyph glyph-name="rcaron" unicode="&#x159;" horiz-adv-x="408" 
d="M384 500l-16 -78q-24 13 -63 13q-32 0 -62.5 -18.5t-50 -56t-19.5 -90.5v-270h-80v500h65l11 -82q42 92 160 92q36 0 55 -10zM266 583h-92l-112 167h73l85 -111l85 111h73z" />
    <glyph glyph-name="s" unicode="s" horiz-adv-x="527" 
d="M133 18.5q-58 28.5 -85 84.5l65 45q17 -44 59 -66t99 -22q59 0 90 21t31 53q0 29 -29 46.5t-102 30.5q-72 13 -114 31.5t-61 47t-19 70.5q0 41 24 75t69 54.5t104 20.5q80 0 128.5 -29.5t69.5 -90.5l-68 -40q-16 48 -48.5 69t-81.5 21t-83 -22t-34 -51q0 -33 29.5 -51
t105.5 -31q104 -17 147 -51t43 -96q0 -43 -25.5 -76.5t-73 -52.5t-110.5 -19q-72 0 -130 28.5z" />
    <glyph glyph-name="sacute" unicode="&#x15b;" horiz-adv-x="527" 
d="M133 18.5q-58 28.5 -85 84.5l65 45q17 -44 59 -66t99 -22q59 0 90 21t31 53q0 29 -29 46.5t-102 30.5q-72 13 -114 31.5t-61 47t-19 70.5q0 41 24 75t69 54.5t104 20.5q80 0 128.5 -29.5t69.5 -90.5l-68 -40q-16 48 -48.5 69t-81.5 21t-83 -22t-34 -51q0 -33 29.5 -51
t105.5 -31q104 -17 147 -51t43 -96q0 -43 -25.5 -76.5t-73 -52.5t-110.5 -19q-72 0 -130 28.5zM378 750l-98 -167h-65l76 167h87z" />
    <glyph glyph-name="scaron" unicode="&#x161;" horiz-adv-x="527" 
d="M133 18.5q-58 28.5 -85 84.5l65 45q17 -44 59 -66t99 -22q59 0 90 21t31 53q0 29 -29 46.5t-102 30.5q-72 13 -114 31.5t-61 47t-19 70.5q0 41 24 75t69 54.5t104 20.5q80 0 128.5 -29.5t69.5 -90.5l-68 -40q-16 48 -48.5 69t-81.5 21t-83 -22t-34 -51q0 -33 29.5 -51
t105.5 -31q104 -17 147 -51t43 -96q0 -43 -25.5 -76.5t-73 -52.5t-110.5 -19q-72 0 -130 28.5zM310 583h-92l-112 167h73l85 -111l85 111h73z" />
    <glyph glyph-name="germandbls" unicode="&#xdf;" horiz-adv-x="620" 
d="M480 362.5q42 -28.5 61 -72.5t19 -93q0 -55 -25 -102t-75 -76t-121 -29q-32 0 -61.5 9.5t-43.5 23.5l23 65q31 -25 86 -25q67 0 103.5 39.5t36.5 103.5q0 69 -44.5 105t-129.5 36h-39v75h39q66 0 104.5 34t38.5 88q0 116 -134 116q-81 0 -113 -45t-32 -142v-473h-80v497
q0 112 53.5 175t179.5 63q72 0 119 -28t68 -70.5t21 -87.5q0 -36 -17 -72t-53.5 -60t-90.5 -24v-2q65 0 107 -28.5z" />
    <glyph glyph-name="longs" unicode="&#x17f;" horiz-adv-x="260" 
d="M89 584q0 151 135 151q56 0 77 -23l-16 -65q-19 15 -45 15q-71 0 -71 -86v-576h-80v584z" />
    <glyph glyph-name="t" unicode="t" horiz-adv-x="419" 
d="M399 35q-50 -45 -129 -45q-61 0 -99.5 33t-39.5 101v307h-100v69h100v120l80 22v-142h185v-69h-185v-293q0 -36 20.5 -54.5t54.5 -18.5q48 0 85 37z" />
    <glyph glyph-name="tcaron" unicode="&#x165;" horiz-adv-x="419" 
d="M327 570h-55l20 197h76zM399 35q-50 -45 -129 -45q-61 0 -99.5 33t-39.5 101v307h-100v69h100v120l80 22v-142h185v-69h-185v-293q0 -36 20.5 -54.5t54.5 -18.5q48 0 85 37z" />
    <glyph glyph-name="u" unicode="u" horiz-adv-x="619" 
d="M526 500v-500h-70l-5 76q-50 -86 -179 -86q-81 0 -132.5 45t-51.5 138v327h80v-306q0 -73 30 -103.5t88 -30.5q69 0 114.5 42t45.5 126v272h80z" />
    <glyph glyph-name="uacute" unicode="&#xfa;" horiz-adv-x="619" 
d="M526 500v-500h-70l-5 76q-50 -86 -179 -86q-81 0 -132.5 45t-51.5 138v327h80v-306q0 -73 30 -103.5t88 -30.5q69 0 114.5 42t45.5 126v272h80zM422 750l-98 -167h-65l76 167h87z" />
    <glyph glyph-name="ucircumflex" unicode="&#xfb;" horiz-adv-x="619" 
d="M526 500v-500h-70l-5 76q-50 -86 -179 -86q-81 0 -132.5 45t-51.5 138v327h80v-306q0 -73 30 -103.5t88 -30.5q69 0 114.5 42t45.5 126v272h80zM393 576l-85 111l-85 -111h-73l112 167h92l112 -167h-73z" />
    <glyph glyph-name="udieresis" unicode="&#xfc;" horiz-adv-x="619" 
d="M526 500v-500h-70l-5 76q-50 -86 -179 -86q-81 0 -132.5 45t-51.5 138v327h80v-306q0 -73 30 -103.5t88 -30.5q69 0 114.5 42t45.5 126v272h80zM252.5 680.5q15.5 -15.5 15.5 -41.5q0 -25 -15.5 -41t-41.5 -16q-25 0 -41 16t-16 41q0 26 16 41.5t41 15.5q26 0 41.5 -15.5
zM446.5 680.5q15.5 -15.5 15.5 -41.5q0 -25 -15.5 -41t-41.5 -16q-25 0 -41 16t-16 41q0 26 16 41.5t41 15.5q26 0 41.5 -15.5z" />
    <glyph glyph-name="ugrave" unicode="&#xf9;" horiz-adv-x="619" 
d="M526 500v-500h-70l-5 76q-50 -86 -179 -86q-81 0 -132.5 45t-51.5 138v327h80v-306q0 -73 30 -103.5t88 -30.5q69 0 114.5 42t45.5 126v272h80zM350 583h-65l-98 167h87z" />
    <glyph glyph-name="uhungarumlaut" unicode="&#x171;" horiz-adv-x="619" 
d="M526 500v-500h-70l-5 76q-50 -86 -179 -86q-81 0 -132.5 45t-51.5 138v327h80v-306q0 -73 30 -103.5t88 -30.5q69 0 114.5 42t45.5 126v272h80zM232 583h-65l76 167h87zM408 583h-65l76 167h87z" />
    <glyph glyph-name="umacron" unicode="&#x16b;" horiz-adv-x="619" 
d="M526 500v-500h-70l-5 76q-50 -86 -179 -86q-81 0 -132.5 45t-51.5 138v327h80v-306q0 -73 30 -103.5t88 -30.5q69 0 114.5 42t45.5 126v272h80zM482 596h-348v67h348v-67z" />
    <glyph glyph-name="uni0123" unicode="&#x123;" horiz-adv-x="532" 
d="M315 587h-88l70 191h60zM483 32q40 -32 40 -87q0 -48 -33 -84.5t-89.5 -56t-124.5 -19.5q-114 0 -172 36.5t-58 95.5q0 34 23.5 60t64.5 37q-31 15 -49.5 38t-18.5 54q0 37 20 61.5t55 36.5q-36 22 -54.5 57.5t-18.5 79.5q0 49 26 87.5t73 60t106 21.5q56 0 102 -20
q28 102 141 102l18 -70q-98 0 -119 -55q30 -23 46.5 -55t16.5 -71q0 -49 -26 -87.5t-73 -60t-106 -21.5q-44 0 -77 9q-30 -7 -43 -22t-13 -41t18 -40t48 -14h166q71 0 111 -32zM186 416q-35 -29 -35 -75t35 -75t87 -29t87 29t35 75t-35 75t-87 29t-87 -29zM405 -123.5
q44 24.5 44 59.5q0 29 -22.5 44t-76.5 15h-134q-46 0 -71 -16.5t-25 -45.5q0 -38 42 -59.5t123 -21.5q76 0 120 24.5z" />
    <glyph glyph-name="uni0137" unicode="&#x137;" horiz-adv-x="567" 
d="M279 247l-106 -106v-141h-80v730h80v-489l259 259h100l-195 -195l207 -305h-97zM280 -237h-63l44 161h84z" />
    <glyph glyph-name="uni013C" unicode="&#x13c;" horiz-adv-x="306" 
d="M169 134q0 -38 11.5 -52.5t42.5 -14.5q21 0 36.5 3t36.5 11l-13 -77q-33 -14 -74 -14q-61 0 -90.5 33t-29.5 101v606h80v-596zM179 -237h-63l44 161h84z" />
    <glyph glyph-name="uni0146" unicode="&#x146;" horiz-adv-x="619" 
d="M476 461q55 -49 55 -141v-320h-80v292q0 78 -33.5 113t-89.5 35q-40 0 -75 -17.5t-57.5 -57t-22.5 -99.5v-266h-80v500h70l5 -78q25 45 69 66.5t99 21.5q85 0 140 -49zM307 -237h-63l44 161h84z" />
    <glyph glyph-name="uni0157" unicode="&#x157;" horiz-adv-x="408" 
d="M384 500l-16 -78q-24 13 -63 13q-32 0 -62.5 -18.5t-50 -56t-19.5 -90.5v-270h-80v500h65l11 -82q42 92 160 92q36 0 55 -10zM119 -237h-63l44 161h84z" />
    <glyph glyph-name="uni015F" unicode="&#x15f;" horiz-adv-x="527" 
d="M433 46q-39 -38 -107 -51q28 -20 42.5 -47.5t14.5 -55.5q0 -44 -31.5 -75.5t-84.5 -31.5q-71 0 -110 35l30 55q13 -13 31 -21.5t38 -8.5q24 0 40.5 16t16.5 42q0 28 -15.5 47.5t-57.5 40.5q-64 4 -115.5 32.5t-76.5 79.5l65 45q17 -44 59 -66t99 -22q59 0 90 21t31 53
q0 29 -29 46.5t-102 30.5q-72 13 -114 31.5t-61 47t-19 70.5q0 41 24 75t69 54.5t104 20.5q80 0 128.5 -29.5t69.5 -90.5l-68 -40q-16 48 -48.5 69t-81.5 21t-83 -22t-34 -51q0 -33 29.5 -51t105.5 -31q104 -17 147 -51t43 -96q0 -54 -39 -92z" />
    <glyph glyph-name="uni0163" unicode="&#x163;" horiz-adv-x="439" 
d="M352.5 -54q13.5 -27 13.5 -54q0 -44 -31.5 -75.5t-84.5 -31.5q-71 0 -110 35l30 55q13 -13 31 -21.5t38 -8.5q24 0 40.5 16t16.5 42q0 29 -17 49.5t-65 45.5q-38 13 -60 44t-23 82v307h-100v69h100v120l80 22v-142h185v-69h-185v-293q0 -36 20.5 -54.5t54.5 -18.5
q48 0 85 37l28 -67q-37 -32 -87 -41q27 -21 40.5 -48z" />
    <glyph glyph-name="uni0219" unicode="&#x219;" horiz-adv-x="527" 
d="M133 18.5q-58 28.5 -85 84.5l65 45q17 -44 59 -66t99 -22q59 0 90 21t31 53q0 29 -29 46.5t-102 30.5q-72 13 -114 31.5t-61 47t-19 70.5q0 41 24 75t69 54.5t104 20.5q80 0 128.5 -29.5t69.5 -90.5l-68 -40q-16 48 -48.5 69t-81.5 21t-83 -22t-34 -51q0 -33 29.5 -51
t105.5 -31q104 -17 147 -51t43 -96q0 -43 -25.5 -76.5t-73 -52.5t-110.5 -19q-72 0 -130 28.5zM244 -237h-63l44 161h84z" />
    <glyph glyph-name="uni021B" unicode="&#x21b;" horiz-adv-x="419" 
d="M399 35q-50 -45 -129 -45q-61 0 -99.5 33t-39.5 101v307h-100v69h100v120l80 22v-142h185v-69h-185v-293q0 -36 20.5 -54.5t54.5 -18.5q48 0 85 37zM221 -237h-63l44 161h84z" />
    <glyph glyph-name="uogonek" unicode="&#x173;" horiz-adv-x="619" 
d="M537 -195q-14 -9 -36.5 -14.5t-44.5 -5.5q-52 0 -79 25t-27 68t26 73.5t84 58.5l-10 80q-30 -47 -77.5 -73.5t-100.5 -26.5q-81 0 -132.5 45t-51.5 138v327h80v-306q0 -73 29.5 -103.5t83.5 -30.5q43 0 81 21.5t61 61.5t23 93v264h80v-500q-63 -33 -88.5 -57.5
t-25.5 -52.5q0 -48 54 -48q34 0 55 13z" />
    <glyph glyph-name="uring" unicode="&#x16f;" horiz-adv-x="619" 
d="M526 500v-500h-70l-5 76q-50 -86 -179 -86q-81 0 -132.5 45t-51.5 138v327h80v-306q0 -73 30 -103.5t88 -30.5q69 0 114.5 42t45.5 126v272h80zM395.5 779.5q34.5 -32.5 34.5 -85.5t-34.5 -86t-90.5 -33t-91 33t-35 86t35 85.5t91 32.5t90.5 -32.5zM254 743.5
q-20 -19.5 -20 -49.5t20 -49.5t51 -19.5t51 19.5t20 49.5t-20 49.5t-51 19.5t-51 -19.5z" />
    <glyph glyph-name="v" unicode="v" horiz-adv-x="520" 
d="M508 500l-208 -500h-80l-208 500h91l158 -419l163 419h84z" />
    <glyph glyph-name="w" unicode="w" horiz-adv-x="856" 
d="M819 500l-174 -500h-80l-141 398l-133 -398h-80l-174 500h89l126 -407l136 407h80l136 -407l126 407h89z" />
    <glyph glyph-name="x" unicode="x" horiz-adv-x="533" 
d="M402 0l-138 193l-142 -193h-93l192 252l-180 248h100l132 -185l130 185h94l-181 -245l184 -255h-98z" />
    <glyph glyph-name="y" unicode="y" horiz-adv-x="535" 
d="M283 -84q-29 -72 -65 -101.5t-93 -29.5q-38 0 -63.5 10t-46.5 32l28 68q29 -40 81 -40q29 0 51.5 17.5t39.5 63.5l26 65l-209 499h91l125 -326l31 -89l36 99l117 316h86z" />
    <glyph glyph-name="yacute" unicode="&#xfd;" horiz-adv-x="535" 
d="M283 -84q-29 -72 -65 -101.5t-93 -29.5q-38 0 -63.5 10t-46.5 32l28 68q29 -40 81 -40q29 0 51.5 17.5t39.5 63.5l26 65l-209 499h91l125 -326l31 -89l36 99l117 316h86zM387 750l-98 -167h-65l76 167h87z" />
    <glyph glyph-name="ydieresis" unicode="&#xff;" horiz-adv-x="535" 
d="M283 -84q-29 -72 -65 -101.5t-93 -29.5q-38 0 -63.5 10t-46.5 32l28 68q29 -40 81 -40q29 0 51.5 17.5t39.5 63.5l26 65l-209 499h91l125 -326l31 -89l36 99l117 316h86zM217.5 680.5q15.5 -15.5 15.5 -41.5q0 -25 -15.5 -41t-41.5 -16q-25 0 -41 16t-16 41q0 26 16 41.5
t41 15.5q26 0 41.5 -15.5zM411.5 680.5q15.5 -15.5 15.5 -41.5q0 -25 -15.5 -41t-41.5 -16q-25 0 -41 16t-16 41q0 26 16 41.5t41 15.5q26 0 41.5 -15.5z" />
    <glyph glyph-name="z" unicode="z" horiz-adv-x="534" 
d="M57 61l262 307l63 65l-89 -2h-233v69h411v-61l-262 -307l-62 -65l97 2h235v-69h-422v61z" />
    <glyph glyph-name="zacute" unicode="&#x17a;" horiz-adv-x="534" 
d="M57 61l262 307l63 65l-89 -2h-233v69h411v-61l-262 -307l-62 -65l97 2h235v-69h-422v61zM366 750l-98 -167h-65l76 167h87z" />
    <glyph glyph-name="zcaron" unicode="&#x17e;" horiz-adv-x="534" 
d="M57 61l262 307l63 65l-89 -2h-233v69h411v-61l-262 -307l-62 -65l97 2h235v-69h-422v61zM298 583h-92l-112 167h73l85 -111l85 111h73z" />
    <glyph glyph-name="zdotaccent" unicode="&#x17c;" horiz-adv-x="534" 
d="M57 61l262 307l63 65l-89 -2h-233v69h411v-61l-262 -307l-62 -65l97 2h235v-69h-422v61zM295.5 699.5q16.5 -16.5 16.5 -43.5t-16.5 -43.5t-43.5 -16.5t-43.5 16.5t-16.5 43.5t16.5 43.5t43.5 16.5t43.5 -16.5z" />
    <glyph glyph-name="germandbls.calt" horiz-adv-x="691" 
d="M595.5 321q55.5 -49 55.5 -136q0 -57 -26.5 -100t-73 -66.5t-105.5 -23.5q-60 0 -106 18t-65 46l34 59q19 -23 54 -36.5t75 -13.5q58 0 93.5 32.5t35.5 84.5q0 54 -40 85.5t-111 31.5h-77v68l174 215h-183q-38 0 -70.5 -18.5t-52 -51t-19.5 -73.5v-442h-80v443
q0 64 29 113.5t79.5 76.5t113.5 27h278v-76l-183 -214h23q92 0 147.5 -49z" />
    <glyph glyph-name="longs.component" horiz-adv-x="256" 
d="M89 584q0 72 29 111.5t99 39.5q37 0 57 -16l-8 -72q-17 15 -36 15q-61 0 -61 -86v-576h-80v584z" />
    <glyph glyph-name="iacute_j.loclNLD" horiz-adv-x="532" 
d="M257 750l-98 -167h-65l76 167h87zM521 750l-98 -167h-65l76 167h87zM173 0h-80v500h80v-500zM439 -51q0 -85 -45.5 -124.5t-106.5 -39.5q-30 0 -56 9t-44 24l17 76q35 -31 82 -31q73 0 73 94v543h80v-551z" />
    <glyph glyph-name="g.ss01" horiz-adv-x="630" 
d="M537 500v-460q0 -255 -254 -255q-81 0 -136.5 31t-68.5 92l76 33q9 -43 43.5 -64.5t97.5 -21.5q71 0 116 46.5t45 119.5v57q-25 -36 -68 -57t-98 -21q-105 0 -166.5 68t-61.5 187t61.5 187t166.5 68q58 0 102.5 -23t68.5 -63l10 76h66zM413.5 118.5q42.5 48.5 42.5 130.5
v12q0 82 -42.5 130.5t-114.5 48.5q-73 0 -115 -50t-42 -135t42 -135t115 -50q72 0 114.5 48.5z" />
    <glyph glyph-name="gbreve.ss01" horiz-adv-x="630" 
d="M537 500v-460q0 -255 -254 -255q-81 0 -136.5 31t-68.5 92l76 33q9 -43 43.5 -64.5t97.5 -21.5q71 0 116 46.5t45 119.5v57q-25 -36 -68 -57t-98 -21q-105 0 -166.5 68t-61.5 187t61.5 187t166.5 68q58 0 102.5 -23t68.5 -63l10 76h66zM413.5 118.5q42.5 48.5 42.5 130.5
v12q0 82 -42.5 130.5t-114.5 48.5q-73 0 -115 -50t-42 -135t42 -135t115 -50q72 0 114.5 48.5zM394 618q-41 -41 -107 -41t-107 41t-41 107h66q0 -36 23.5 -62t58.5 -26t58.5 26t23.5 62h66q0 -66 -41 -107z" />
    <glyph glyph-name="gcommaaccent.ss01" horiz-adv-x="630" 
d="M358 587h-88l70 191h60zM537 500v-460q0 -255 -254 -255q-81 0 -136.5 31t-68.5 92l76 33q9 -43 43.5 -64.5t97.5 -21.5q71 0 116 46.5t45 119.5v57q-25 -36 -68 -57t-98 -21q-105 0 -166.5 68t-61.5 187t61.5 187t166.5 68q58 0 102.5 -23t68.5 -63l10 76h66z
M413.5 118.5q42.5 48.5 42.5 130.5v12q0 82 -42.5 130.5t-114.5 48.5q-73 0 -115 -50t-42 -135t42 -135t115 -50q72 0 114.5 48.5z" />
    <glyph glyph-name="l.ss02" horiz-adv-x="270" 
d="M175 0h-80v730h80v-730z" />
    <glyph glyph-name="lacute.ss02" horiz-adv-x="270" 
d="M224 930l-61 -130h-64l37 130h88zM175 0h-80v730h80v-730z" />
    <glyph glyph-name="lcaron.ss02" horiz-adv-x="280" 
d="M175 0h-80v730h80v-730zM290 533h-55l20 197h76z" />
    <glyph glyph-name="lcommaaccent.ss02" horiz-adv-x="270" 
d="M175 0h-80v730h80v-730zM115 -237h-63l44 161h84z" />
    <glyph glyph-name="ldot.ss02" horiz-adv-x="430" 
d="M175 0h-80v730h80v-730zM397 402q18 -18 18 -47t-18 -47t-47 -18t-47 18t-18 47t18 47t47 18t47 -18z" />
    <glyph glyph-name="lslash.ss02" horiz-adv-x="323" 
d="M284 395l-81 -51v-344h-80v293l-81 -52v83l81 52v354h80v-303l81 51v-83z" />
    <glyph glyph-name="n.swsh" horiz-adv-x="619" 
d="M624 -18l-12 -59q-11 -7 -24 -10t-36 -3q-50 0 -75.5 32.5t-25.5 87.5v262q0 78 -33.5 113t-89.5 35q-40 0 -75 -17.5t-57.5 -57t-22.5 -99.5v-266h-80v500h70l5 -78q25 45 69 66.5t99 21.5q85 0 140 -49t55 -141v-293q0 -28 13 -41t34 -13q25 0 46 9z" />
    <glyph glyph-name="nacute.swsh" horiz-adv-x="619" 
d="M624 -18l-12 -59q-11 -7 -24 -10t-36 -3q-50 0 -75.5 32.5t-25.5 87.5v262q0 78 -33.5 113t-89.5 35q-40 0 -75 -17.5t-57.5 -57t-22.5 -99.5v-266h-80v500h70l5 -78q25 45 69 66.5t99 21.5q85 0 140 -49t55 -141v-293q0 -28 13 -41t34 -13q25 0 46 9zM432 750l-98 -167
h-65l76 167h87z" />
    <glyph glyph-name="ncaron.swsh" horiz-adv-x="619" 
d="M624 -18l-12 -59q-11 -7 -24 -10t-36 -3q-50 0 -75.5 32.5t-25.5 87.5v262q0 78 -33.5 113t-89.5 35q-40 0 -75 -17.5t-57.5 -57t-22.5 -99.5v-266h-80v500h70l5 -78q25 45 69 66.5t99 21.5q85 0 140 -49t55 -141v-293q0 -28 13 -41t34 -13q25 0 46 9zM364 583h-92
l-112 167h73l85 -111l85 111h73z" />
    <glyph glyph-name="ncommaaccent.swsh" horiz-adv-x="619" 
d="M624 -18l-12 -59q-11 -7 -24 -10t-36 -3q-50 0 -75.5 32.5t-25.5 87.5v262q0 78 -33.5 113t-89.5 35q-40 0 -75 -17.5t-57.5 -57t-22.5 -99.5v-266h-80v500h70l5 -78q25 45 69 66.5t99 21.5q85 0 140 -49t55 -141v-293q0 -28 13 -41t34 -13q25 0 46 9zM307 -237h-63
l44 161h84z" />
    <glyph glyph-name="ntilde.swsh" horiz-adv-x="619" 
d="M624 -18l-12 -59q-11 -7 -24 -10t-36 -3q-50 0 -75.5 32.5t-25.5 87.5v262q0 78 -33.5 113t-89.5 35q-40 0 -75 -17.5t-57.5 -57t-22.5 -99.5v-266h-80v500h70l5 -78q25 45 69 66.5t99 21.5q85 0 140 -49t55 -141v-293q0 -28 13 -41t34 -13q25 0 46 9zM386 583
q-29 0 -48 10.5t-41 30.5q-16 14 -26 20.5t-23 6.5q-21 0 -32 -17t-17 -52h-63q5 67 32.5 100.5t80.5 33.5q28 0 47.5 -11t41.5 -31q15 -13 25.5 -19.5t21.5 -6.5q21 0 32.5 17.5t17.5 51.5h63q-11 -134 -112 -134z" />
    <glyph glyph-name="r.swsh" horiz-adv-x="493" 
d="M375 501q25 -9 55 -27q21 -13 36.5 -20.5t36.5 -10.5l-43 -60q-18 4 -34 11t-30 15q-24 13 -42 19.5t-45 6.5q-36 0 -67 -18.5t-50 -55.5t-19 -91v-270h-80v500h65l11 -82q20 45 56.5 68.5t83.5 23.5q41 0 66 -9z" />
    <glyph glyph-name="racute.swsh" horiz-adv-x="493" 
d="M375 501q25 -9 55 -27q21 -13 36.5 -20.5t36.5 -10.5l-43 -60q-18 4 -34 11t-30 15q-24 13 -42 19.5t-45 6.5q-36 0 -67 -18.5t-50 -55.5t-19 -91v-270h-80v500h65l11 -82q20 45 56.5 68.5t83.5 23.5q41 0 66 -9zM334 750l-98 -167h-65l76 167h87z" />
    <glyph glyph-name="rcaron.swsh" horiz-adv-x="493" 
d="M375 501q25 -9 55 -27q21 -13 36.5 -20.5t36.5 -10.5l-43 -60q-18 4 -34 11t-30 15q-24 13 -42 19.5t-45 6.5q-36 0 -67 -18.5t-50 -55.5t-19 -91v-270h-80v500h65l11 -82q20 45 56.5 68.5t83.5 23.5q41 0 66 -9zM266 583h-92l-112 167h73l85 -111l85 111h73z" />
    <glyph glyph-name="rcommaaccent.swsh" horiz-adv-x="493" 
d="M375 501q25 -9 55 -27q21 -13 36.5 -20.5t36.5 -10.5l-43 -60q-18 4 -34 11t-30 15q-24 13 -42 19.5t-45 6.5q-36 0 -67 -18.5t-50 -55.5t-19 -91v-270h-80v500h65l11 -82q20 45 56.5 68.5t83.5 23.5q41 0 66 -9zM119 -237h-63l44 161h84z" />
    <glyph glyph-name="t.swsh" horiz-adv-x="439" 
d="M211 431v-293q0 -36 20.5 -54.5t54.5 -18.5q48 0 85 37l28 -67q-50 -45 -129 -45q-61 0 -99.5 33t-39.5 101v307h-100v69h100v120l80 22v-142h138q62 0 97.5 11t57.5 37l35 -52q-30 -36 -72 -50.5t-120 -14.5h-136z" />
    <glyph glyph-name="tcaron.swsh" horiz-adv-x="439" 
d="M327 570h-55l20 197h76zM211 431v-293q0 -36 20.5 -54.5t54.5 -18.5q48 0 85 37l28 -67q-50 -45 -129 -45q-61 0 -99.5 33t-39.5 101v307h-100v69h100v120l80 22v-142h138q62 0 97.5 11t57.5 37l35 -52q-30 -36 -72 -50.5t-120 -14.5h-136z" />
    <glyph glyph-name="uni0163.swsh" horiz-adv-x="419" 
d="M211 431v-293q0 -36 20.5 -54.5t54.5 -18.5q48 0 85 37l28 -67q-33 -30 -79 -40q28 -20 42 -47.5t14 -55.5q0 -44 -31.5 -75.5t-84.5 -31.5q-71 0 -110 35l30 55q13 -13 31 -21.5t38 -8.5q24 0 40.5 16t16.5 42q0 28 -15.5 47.5t-57.5 42.5q-46 9 -73.5 41.5t-28.5 89.5
v307h-100v69h100v120l80 22v-142h138q62 0 97.5 11t57.5 37l35 -52q-30 -36 -72 -50.5t-120 -14.5h-136z" />
    <glyph glyph-name="uni021B.swsh" horiz-adv-x="439" 
d="M211 431v-293q0 -36 20.5 -54.5t54.5 -18.5q48 0 85 37l28 -67q-50 -45 -129 -45q-61 0 -99.5 33t-39.5 101v307h-100v69h100v120l80 22v-142h138q62 0 97.5 11t57.5 37l35 -52q-30 -36 -72 -50.5t-120 -14.5h-136zM221 -237h-63l44 161h84z" />
    <glyph glyph-name="y.swsh" horiz-adv-x="547" 
d="M61.5 -205q-25.5 10 -46.5 32l28 68q29 -40 81 -40q29 0 51.5 17.5t39.5 63.5l26 65l-209 499h91l125 -326l31 -89l36 99l110 284q24 64 55.5 92.5t79.5 28.5q53 0 78 -25l-16 -51q-10 8 -19.5 11t-25.5 3q-28 0 -46 -15.5t-32 -51.5l-216 -544q-29 -72 -65 -101.5
t-93 -29.5q-38 0 -63.5 10z" />
    <glyph glyph-name="yacute.swsh" horiz-adv-x="547" 
d="M61.5 -205q-25.5 10 -46.5 32l28 68q29 -40 81 -40q29 0 51.5 17.5t39.5 63.5l26 65l-209 499h91l125 -326l31 -89l36 99l110 284q24 64 55.5 92.5t79.5 28.5q53 0 78 -25l-16 -51q-10 8 -19.5 11t-25.5 3q-28 0 -46 -15.5t-32 -51.5l-216 -544q-29 -72 -65 -101.5
t-93 -29.5q-38 0 -63.5 10zM387 750l-98 -167h-65l76 167h87z" />
    <glyph glyph-name="ydieresis.swsh" horiz-adv-x="547" 
d="M61.5 -205q-25.5 10 -46.5 32l28 68q29 -40 81 -40q29 0 51.5 17.5t39.5 63.5l26 65l-209 499h91l125 -326l31 -89l36 99l110 284q24 64 55.5 92.5t79.5 28.5q53 0 78 -25l-16 -51q-10 8 -19.5 11t-25.5 3q-28 0 -46 -15.5t-32 -51.5l-216 -544q-29 -72 -65 -101.5
t-93 -29.5q-38 0 -63.5 10zM217.5 680.5q15.5 -15.5 15.5 -41.5q0 -25 -15.5 -41t-41.5 -16q-25 0 -41 16t-16 41q0 26 16 41.5t41 15.5q26 0 41.5 -15.5zM411.5 680.5q15.5 -15.5 15.5 -41.5q0 -25 -15.5 -41t-41.5 -16q-25 0 -41 16t-16 41q0 26 16 41.5t41 15.5
q26 0 41.5 -15.5z" />
    <glyph glyph-name="c_t" horiz-adv-x="907" 
d="M887 35q-50 -45 -129 -45q-61 0 -100 33t-39 101v418q0 61 -22 90.5t-61 29.5t-60.5 -24t-21.5 -81q0 -81 55 -180l-76 -36q-16 48 -49.5 73.5t-81.5 25.5q-75 0 -117.5 -50.5t-42.5 -139.5t42.5 -139.5t117.5 -50.5q54 0 89.5 26.5t50.5 76.5l72 -25q-24 -70 -78 -109
t-132 -39q-113 0 -177.5 69t-64.5 191t64.5 191t177.5 69q53 0 91 -19q-13 34 -13 76q0 84 45 124t114 40t113.5 -39.5t44.5 -118.5v-73h185v-69h-185v-293q0 -36 20.5 -54.5t54.5 -18.5q48 0 85 37z" />
    <glyph glyph-name="s_t" horiz-adv-x="860" 
d="M840 35q-50 -45 -129 -45q-61 0 -100 33t-39 101v418q0 61 -23 90.5t-61 29.5q-39 0 -60 -26t-21 -73q0 -40 11.5 -79t45.5 -93l-66 -31q-31 80 -134 80q-49 0 -83 -22t-34 -51q0 -32 29.5 -50.5t105.5 -31.5q104 -18 147 -51.5t43 -95.5q0 -43 -25.5 -76.5t-73 -52.5
t-110.5 -19q-72 0 -130 28.5t-85 84.5l65 45q17 -44 59 -66t99 -22q59 0 90 21t31 53q0 29 -29 47t-102 30q-105 18 -149.5 52.5t-44.5 96.5q0 41 24 75t69 54.5t104 20.5q50 0 88 -12q-18 33 -18 65q0 85 44.5 126.5t115.5 41.5q69 0 113.5 -39.5t44.5 -118.5v-73h185v-69
h-185v-293q0 -36 20.5 -54.5t54.5 -18.5q48 0 85 37z" />
    <glyph glyph-name="longs_i" horiz-adv-x="522" 
d="M89 584q0 72 29 111.5t99 39.5q37 0 57 -16l-8 -72q-17 15 -36 15q-61 0 -61 -86v-576h-80v584zM345.5 612.5q-16.5 16.5 -16.5 43.5t16.5 43.5t43.5 16.5t43.5 -16.5t16.5 -43.5t-16.5 -43.5t-43.5 -16.5t-43.5 16.5zM429 0h-80v500h80v-500z" />
    <glyph glyph-name="longs_l" horiz-adv-x="566" 
d="M89 584q0 151 135 151q56 0 77 -23l-16 -65q-19 15 -45 15q-71 0 -71 -86v-576h-80v584zM429 134q0 -38 11.5 -52.5t42.5 -14.5q21 0 36.5 3t36.5 11l-13 -77q-33 -14 -74 -14q-61 0 -90.5 33t-29.5 101v606h80v-596z" />
    <glyph glyph-name="longs_s" horiz-adv-x="777" 
d="M89 584q0 151 135 151q56 0 77 -23l-16 -65q-19 15 -45 15q-71 0 -71 -86v-576h-80v584zM383 18.5q-58 28.5 -85 84.5l65 45q17 -44 59 -66t99 -22q59 0 90 21t31 53q0 29 -29 46.5t-102 30.5q-72 13 -114 31.5t-61 47t-19 70.5q0 41 24 75t69 54.5t104 20.5
q80 0 128.5 -29.5t69.5 -90.5l-68 -40q-16 48 -48.5 69t-81.5 21t-83 -22t-34 -51q0 -33 29.5 -51t105.5 -31q104 -17 147 -51t43 -96q0 -43 -25.5 -76.5t-73 -52.5t-110.5 -19q-72 0 -130 28.5z" />
    <glyph glyph-name="fl.ss02" horiz-adv-x="663" 
d="M212 500h167v-69h-167v-431h-80v431h-100v69h100v84q0 69 42 110t122 41q27 0 49.5 -6t35.5 -17l-21 -65q-24 15 -57 15q-91 0 -91 -86v-76zM568 0h-80v730h80v-730z" />
    <glyph glyph-name="longs_l.ss02" horiz-adv-x="524" 
d="M89 584q0 151 135 151q56 0 77 -23l-16 -65q-19 15 -45 15q-71 0 -71 -86v-576h-80v584zM429 0h-80v730h80v-730z" />
    <glyph glyph-name="Gcommaaccent.sc" horiz-adv-x="650" 
d="M584 285v-285h-63l-3 78q-25 -41 -72 -63.5t-114 -22.5q-82 0 -143.5 34.5t-95 100t-33.5 153.5t34.5 153t97 100t145.5 35q90 0 148 -32t92 -101l-72 -40q-18 52 -61.5 78t-105.5 26q-89 0 -143.5 -58.5t-54.5 -160.5q0 -104 52 -161.5t147 -57.5q77 0 123 37t46 101v20
h-180v66h256zM323 -237h-63l44 161h84z" />
    <glyph glyph-name="Kcommaaccent.sc" horiz-adv-x="591" 
d="M276 279l-102 -99v-180h-80v560h80v-286l289 286h98l-225 -230l230 -330h-98zM296 -237h-63l44 161h84z" />
    <glyph glyph-name="Lcommaaccent.sc" horiz-adv-x="588" 
d="M508 69v-69h-414v560h80v-491h334zM293 -237h-63l44 161h84z" />
    <glyph glyph-name="Ncommaaccent.sc" horiz-adv-x="661" 
d="M567 0h-107l-244 392l-48 85h-1l4 -70v-407h-77v560h107l244 -393l48 -84h1l-4 70v407h77v-560zM317 -237h-63l44 161h84z" />
    <glyph glyph-name="Rcommaaccent.sc" horiz-adv-x="601" 
d="M315 228h-141v-228h-80v560h233q93 0 147.5 -44.5t54.5 -121.5q0 -60 -33.5 -101t-94.5 -56l162 -237h-92zM174 296h151q124 0 124 97q0 98 -124 98h-151v-195zM293 -237h-63l44 161h84z" />
    <glyph glyph-name="Scedilla.sc" horiz-adv-x="577" 
d="M477.5 47.5q-47.5 -41.5 -128.5 -52.5q28 -20 42.5 -47.5t14.5 -55.5q0 -44 -31.5 -75.5t-84.5 -31.5q-71 0 -110 35l30 55q13 -13 31 -21.5t38 -8.5q24 0 40.5 16t16.5 42q0 29 -17 49t-62 41q-77 7 -130.5 37.5t-83.5 79.5l60 55q24 -50 72 -77t120 -27q68 0 109 23
t41 64q0 29 -21 46.5t-52 26t-86 19.5q-70 13 -114.5 27t-75.5 46t-31 87q0 46 27 84.5t78.5 61t119.5 22.5q81 0 138 -28.5t93 -87.5l-60 -54q-27 54 -66 77.5t-104 23.5q-67 0 -106.5 -26t-39.5 -65q0 -30 21 -48t53 -27.5t87 -19.5q71 -14 114 -28t74 -46t31 -87
q0 -63 -47.5 -104.5z" />
    <glyph glyph-name="Scommaaccent.sc" horiz-adv-x="577" 
d="M428 539.5q57 -28.5 93 -87.5l-60 -54q-27 54 -66 77.5t-104 23.5q-67 0 -106.5 -26t-39.5 -65q0 -30 21 -48t53 -27.5t87 -19.5q71 -14 114 -28t74 -46t31 -87q0 -73 -63.5 -116.5t-166.5 -43.5q-92 0 -155.5 31.5t-96.5 86.5l60 55q24 -50 72 -77t120 -27q68 0 109 23
t41 64q0 29 -21 46.5t-52 26t-86 19.5q-70 13 -114.5 27t-75.5 46t-31 87q0 46 27 84.5t78.5 61t119.5 22.5q81 0 138 -28.5zM284 -237h-63l44 161h84z" />
    <glyph glyph-name="uni0162.sc" horiz-adv-x="551" 
d="M316 491v-482q71 -49 71 -118q0 -43 -32.5 -74.5t-84.5 -31.5q-71 0 -110 35l30 55q13 -13 31 -21.5t38 -8.5q24 0 40.5 16t16.5 42q0 27 -17 46.5t-63 50.5v491h-206v69h491v-69h-205z" />
    <glyph glyph-name="uni021A.sc" horiz-adv-x="551" 
d="M521 491h-205v-491h-80v491h-206v69h491v-69zM251 -237h-63l44 161h84z" />
    <glyph glyph-name="a.sc" horiz-adv-x="595" 
d="M427 153h-259l-61 -153h-84l227 560h95l227 -560h-84zM400 222l-77 193l-25 74h-1l-25 -74l-77 -193h205z" />
    <glyph glyph-name="aacute.sc" horiz-adv-x="595" 
d="M320 643h-65l57 148h94zM427 153h-259l-61 -153h-84l227 560h95l227 -560h-84zM400 222l-77 193l-25 74h-1l-25 -74l-77 -193h205z" />
    <glyph glyph-name="abreve.sc" horiz-adv-x="595" 
d="M427 153h-259l-61 -153h-84l227 560h95l227 -560h-84zM400 222l-77 193l-25 74h-1l-25 -74l-77 -193h205zM404 678q-41 -41 -107 -41t-107 41t-41 107h66q0 -36 23.5 -62t58.5 -26t58.5 26t23.5 62h66q0 -66 -41 -107z" />
    <glyph glyph-name="acircumflex.sc" horiz-adv-x="595" 
d="M211 636h-73l114 167h90l114 -167h-73l-86 115zM427 153h-259l-61 -153h-84l227 560h95l227 -560h-84zM400 222l-77 193l-25 74h-1l-25 -74l-77 -193h205z" />
    <glyph glyph-name="adieresis.sc" horiz-adv-x="595" 
d="M427 153h-259l-61 -153h-84l227 560h95l227 -560h-84zM400 222l-77 193l-25 74h-1l-25 -74l-77 -193h205zM241.5 740.5q15.5 -15.5 15.5 -41.5q0 -25 -15.5 -41t-41.5 -16q-25 0 -41 16t-16 41q0 26 16 41.5t41 15.5q26 0 41.5 -15.5zM435.5 740.5q15.5 -15.5 15.5 -41.5
q0 -25 -15.5 -41t-41.5 -16q-25 0 -41 16t-16 41q0 26 16 41.5t41 15.5q26 0 41.5 -15.5z" />
    <glyph glyph-name="agrave.sc" horiz-adv-x="595" 
d="M265 643l-86 148h94l57 -148h-65zM427 153h-259l-61 -153h-84l227 560h95l227 -560h-84zM400 222l-77 193l-25 74h-1l-25 -74l-77 -193h205z" />
    <glyph glyph-name="amacron.sc" horiz-adv-x="595" 
d="M427 153h-259l-61 -153h-84l227 560h95l227 -560h-84zM400 222l-77 193l-25 74h-1l-25 -74l-77 -193h205zM471 656h-348v67h348v-67z" />
    <glyph glyph-name="aogonek.sc" horiz-adv-x="595" 
d="M584 -196q-14 -9 -36.5 -14t-45.5 -5q-55 0 -87 27.5t-32 76.5q0 42 24 73t75 53l-55 138h-259l-61 -153h-84l227 560h95l227 -560q-71 -23 -97.5 -48.5t-26.5 -57.5q0 -25 17 -38.5t47 -13.5q37 0 56 13zM400 222l-77 193l-25 74h-1l-25 -74l-77 -193h205z" />
    <glyph glyph-name="aring.sc" horiz-adv-x="595" 
d="M427 153h-259l-61 -153h-84l214 528q-30 14 -47.5 42t-17.5 64q0 53 35 85.5t91 32.5t90.5 -32.5t34.5 -85.5q0 -37 -17 -65t-48 -42l214 -527h-84zM246 683.5q-20 -19.5 -20 -49.5t20 -49.5t51 -19.5t51 19.5t20 49.5t-20 49.5t-51 19.5t-51 -19.5zM400 222l-77 193
l-25 74h-1l-25 -74l-77 -193h205z" />
    <glyph glyph-name="atilde.sc" horiz-adv-x="595" 
d="M427 153h-259l-61 -153h-84l227 560h95l227 -560h-84zM400 222l-77 193l-25 74h-1l-25 -74l-77 -193h205zM365 643q-29 0 -48 10.5t-41 30.5q-16 14 -26 20.5t-23 6.5q-21 0 -32 -17t-17 -52h-63q5 67 32.5 100.5t80.5 33.5q28 0 47.5 -11t41.5 -31q15 -13 25.5 -19.5
t21.5 -6.5q21 0 32.5 17.5t17.5 51.5h63q-11 -134 -112 -134z" />
    <glyph glyph-name="ae.sc" horiz-adv-x="813" 
d="M768 69v-69h-404v181h-194l-99 -181h-81l312 560h453v-69h-313v-173h240v-69h-240v-180h326zM364 250v242h-23l-133 -242h156z" />
    <glyph glyph-name="b.sc" horiz-adv-x="593" 
d="M94 560h225q101 0 150.5 -39.5t49.5 -113.5q0 -45 -27 -78.5t-74 -44.5v-1q56 -5 86.5 -42t30.5 -87q0 -72 -56 -113t-159 -41h-226v560zM325 316q114 0 114 88t-114 88h-151v-176h151zM332 68q61 0 92 23t31 67t-31 67t-92 23h-158v-180h158z" />
    <glyph glyph-name="c.sc" horiz-adv-x="614" 
d="M492 33q-66 -41 -161 -41q-81 0 -142 35t-95 100t-34 153t34 153t95.5 100t144.5 35q90 0 150.5 -38.5t83.5 -113.5l-76 -34q-15 61 -53 89t-107 28q-87 0 -139.5 -58.5t-52.5 -160.5q0 -67 24 -117t67 -76t97 -26q77 0 119.5 28.5t53.5 87.5l77 -26q-20 -77 -86 -118z
" />
    <glyph glyph-name="cacute.sc" horiz-adv-x="614" 
d="M442 791l-86 -148h-65l57 148h94zM492 33q-66 -41 -161 -41q-81 0 -142 35t-95 100t-34 153t34 153t95.5 100t144.5 35q90 0 150.5 -38.5t83.5 -113.5l-76 -34q-15 61 -53 89t-107 28q-87 0 -139.5 -58.5t-52.5 -160.5q0 -67 24 -117t67 -76t97 -26q77 0 119.5 28.5
t53.5 87.5l77 -26q-20 -77 -86 -118z" />
    <glyph glyph-name="ccaron.sc" horiz-adv-x="614" 
d="M378 638h-90l-114 167h73l86 -115l86 115h73zM492 33q-66 -41 -161 -41q-81 0 -142 35t-95 100t-34 153t34 153t95.5 100t144.5 35q90 0 150.5 -38.5t83.5 -113.5l-76 -34q-15 61 -53 89t-107 28q-87 0 -139.5 -58.5t-52.5 -160.5q0 -67 24 -117t67 -76t97 -26
q77 0 119.5 28.5t53.5 87.5l77 -26q-20 -77 -86 -118z" />
    <glyph glyph-name="ccedilla.sc" horiz-adv-x="614" 
d="M511 46.5q-50 -39.5 -124 -50.5q29 -21 43.5 -48.5t14.5 -55.5q0 -44 -31.5 -75.5t-84.5 -31.5q-71 0 -110 35l30 55q13 -13 31 -21.5t38 -8.5q24 0 40.5 16t16.5 42q0 29 -16.5 49t-62.5 42q-108 11 -172 87t-64 199q0 88 34 153t95.5 100t144.5 35q90 0 150.5 -38.5
t83.5 -113.5l-76 -34q-15 61 -53 89t-107 28q-87 0 -139.5 -58.5t-52.5 -160.5q0 -67 24 -117t67 -76t97 -26q77 0 119.5 28.5t53.5 87.5l77 -26q-17 -65 -67 -104.5z" />
    <glyph glyph-name="d.sc" horiz-adv-x="648" 
d="M511 487.5q77 -72.5 77 -206.5q0 -135 -77 -208t-217 -73h-200v560h200q140 0 217 -72.5zM454 124.5q54 55.5 54 156.5t-54 155.5t-154 54.5h-126v-422h126q100 0 154 55.5z" />
    <glyph glyph-name="eth.sc" horiz-adv-x="664" 
d="M530 487.5q77 -72.5 77 -206.5q0 -135 -77 -208t-217 -73h-200v253h-89v58h89v249h200q140 0 217 -72.5zM473 124.5q54 55.5 54 156.5t-54 155.5t-154 54.5h-126v-180h163v-58h-163v-184h126q100 0 154 55.5z" />
    <glyph glyph-name="dcaron.sc" horiz-adv-x="648" 
d="M248 638l-114 167h73l86 -115l86 115h73l-114 -167h-90zM511 487.5q77 -72.5 77 -206.5q0 -135 -77 -208t-217 -73h-200v560h200q140 0 217 -72.5zM454 124.5q54 55.5 54 156.5t-54 155.5t-154 54.5h-126v-422h126q100 0 154 55.5z" />
    <glyph glyph-name="dcroat.sc" horiz-adv-x="664" 
d="M530 487.5q77 -72.5 77 -206.5q0 -135 -77 -208t-217 -73h-200v253h-89v58h89v249h200q140 0 217 -72.5zM473 124.5q54 55.5 54 156.5t-54 155.5t-154 54.5h-126v-180h163v-58h-163v-184h126q100 0 154 55.5z" />
    <glyph glyph-name="e.sc" horiz-adv-x="572" 
d="M527 69v-69h-433v560h420v-69h-340v-173h266v-69h-266v-180h353z" />
    <glyph glyph-name="eacute.sc" horiz-adv-x="572" 
d="M328 643h-65l57 148h94zM527 69v-69h-433v560h420v-69h-340v-173h266v-69h-266v-180h353z" />
    <glyph glyph-name="ecaron.sc" horiz-adv-x="572" 
d="M253 638l-114 167h73l86 -115l86 115h73l-114 -167h-90zM527 69v-69h-433v560h420v-69h-340v-173h266v-69h-266v-180h353z" />
    <glyph glyph-name="ecircumflex.sc" horiz-adv-x="572" 
d="M212 636h-73l114 167h90l114 -167h-73l-86 115zM527 69v-69h-433v560h420v-69h-340v-173h266v-69h-266v-180h353z" />
    <glyph glyph-name="edieresis.sc" horiz-adv-x="572" 
d="M527 69v-69h-433v560h420v-69h-340v-173h266v-69h-266v-180h353zM242.5 740.5q15.5 -15.5 15.5 -41.5q0 -25 -15.5 -41t-41.5 -16q-25 0 -41 16t-16 41q0 26 16 41.5t41 15.5q26 0 41.5 -15.5zM436.5 740.5q15.5 -15.5 15.5 -41.5q0 -25 -15.5 -41t-41.5 -16
q-25 0 -41 16t-16 41q0 26 16 41.5t41 15.5q26 0 41.5 -15.5z" />
    <glyph glyph-name="edotaccent.sc" horiz-adv-x="572" 
d="M527 69v-69h-433v560h420v-69h-340v-173h266v-69h-266v-180h353zM341.5 759.5q16.5 -16.5 16.5 -43.5t-16.5 -43.5t-43.5 -16.5t-43.5 16.5t-16.5 43.5t16.5 43.5t43.5 16.5t43.5 -16.5z" />
    <glyph glyph-name="egrave.sc" horiz-adv-x="572" 
d="M276 643l-86 148h94l57 -148h-65zM527 69v-69h-433v560h420v-69h-340v-173h266v-69h-266v-180h353z" />
    <glyph glyph-name="emacron.sc" horiz-adv-x="572" 
d="M527 69v-69h-433v560h420v-69h-340v-173h266v-69h-266v-180h353zM472 656h-348v67h348v-67z" />
    <glyph glyph-name="eogonek.sc" horiz-adv-x="572" 
d="M539 -196q-14 -9 -36.5 -14t-45.5 -5q-54 0 -86.5 26.5t-32.5 71.5q0 42 21.5 70t65.5 47h-331v560h420v-69h-340v-173h266v-69h-266v-180h353v-69q-71 -24 -97.5 -49t-26.5 -57q0 -25 17 -38.5t47 -13.5q37 0 56 13z" />
    <glyph glyph-name="f.sc" horiz-adv-x="549" 
d="M174 491v-173h266v-69h-266v-249h-80v560h420v-69h-340z" />
    <glyph glyph-name="g.sc" horiz-adv-x="650" 
d="M584 285v-285h-63l-3 78q-25 -41 -72 -63.5t-114 -22.5q-82 0 -143.5 34.5t-95 100t-33.5 153.5t34.5 153t97 100t145.5 35q90 0 148 -32t92 -101l-72 -40q-18 52 -61.5 78t-105.5 26q-89 0 -143.5 -58.5t-54.5 -160.5q0 -104 52 -161.5t147 -57.5q77 0 123 37t46 101v20
h-180v66h256z" />
    <glyph glyph-name="gbreve.sc" horiz-adv-x="650" 
d="M584 285v-285h-63l-3 78q-25 -41 -72 -63.5t-114 -22.5q-82 0 -143.5 34.5t-95 100t-33.5 153.5t34.5 153t97 100t145.5 35q90 0 148 -32t92 -101l-72 -40q-18 52 -61.5 78t-105.5 26q-89 0 -143.5 -58.5t-54.5 -160.5q0 -104 52 -161.5t147 -57.5q77 0 123 37t46 101v20
h-180v66h256zM445 678q-41 -41 -107 -41t-107 41t-41 107h66q0 -36 23.5 -62t58.5 -26t58.5 26t23.5 62h66q0 -66 -41 -107z" />
    <glyph glyph-name="h.sc" horiz-adv-x="661" 
d="M567 560v-560h-80v249h-313v-249h-80v560h80v-242h313v242h80z" />
    <glyph glyph-name="i.sc" horiz-adv-x="268" 
d="M174 0h-80v560h80v-560z" />
    <glyph glyph-name="iacute.sc" horiz-adv-x="268" 
d="M247 791l-86 -148h-65l57 148h94zM174 0h-80v560h80v-560z" />
    <glyph glyph-name="iacute_j.loclNLD.sc" horiz-adv-x="784" 
d="M245 791l-86 -148h-65l57 148h94zM771 791l-86 -148h-65l57 148h94zM174 0h-80v560h80v-560zM697 196q0 -96 -54.5 -150t-151.5 -54q-89 0 -137 41t-48 113q0 19 5 46l76 15q-3 -22 -3 -42q0 -53 26 -78.5t80 -25.5q70 0 98.5 36.5t28.5 112.5v350h80v-364z" />
    <glyph glyph-name="icircumflex.sc" horiz-adv-x="268" 
d="M220 636l-86 115l-86 -115h-73l114 167h90l114 -167h-73zM174 0h-80v560h80v-560z" />
    <glyph glyph-name="idieresis.sc" horiz-adv-x="268" 
d="M94.5 740.5q15.5 -15.5 15.5 -41.5q0 -25 -15.5 -41t-41.5 -16q-25 0 -41 16t-16 41q0 26 16 41.5t41 15.5q26 0 41.5 -15.5zM256.5 740.5q15.5 -15.5 15.5 -41.5q0 -25 -15.5 -41t-41.5 -16q-25 0 -41 16t-16 41q0 26 16 41.5t41 15.5q26 0 41.5 -15.5zM174 0h-80v560
h80v-560z" />
    <glyph glyph-name="i.sc.loclTRK" horiz-adv-x="268" 
d="M174 0h-80v560h80v-560zM177.5 714.5q16.5 -16.5 16.5 -43.5t-16.5 -43.5t-43.5 -16.5t-43.5 16.5t-16.5 43.5t16.5 43.5t43.5 16.5t43.5 -16.5z" />
    <glyph glyph-name="igrave.sc" horiz-adv-x="268" 
d="M167 643h-65l-86 148h94zM174 0h-80v560h80v-560z" />
    <glyph glyph-name="ij.sc" horiz-adv-x="784" 
d="M174 0h-80v560h80v-560zM697 196q0 -96 -54.5 -150t-151.5 -54q-89 0 -137 41t-48 113q0 19 5 46l76 15q-3 -22 -3 -42q0 -53 26 -78.5t80 -25.5q70 0 98.5 36.5t28.5 112.5v350h80v-364z" />
    <glyph glyph-name="imacron.sc" horiz-adv-x="268" 
d="M242 656h-216v67h216v-67zM174 0h-80v560h80v-560z" />
    <glyph glyph-name="iogonek.sc" horiz-adv-x="268" 
d="M204 -193q-32 -22 -85 -22t-84.5 26.5t-31.5 71.5q0 38 23 70t68 54v553h80v-560q-60 -28 -83.5 -53t-23.5 -50q0 -54 59 -54q37 0 59 15z" />
    <glyph glyph-name="j.sc" horiz-adv-x="516" 
d="M429 196q0 -96 -54.5 -150t-151.5 -54q-89 0 -137 41t-48 113q0 19 5 46l76 15q-3 -22 -3 -42q0 -53 26 -78.5t80 -25.5q70 0 98.5 36.5t28.5 112.5v350h80v-364z" />
    <glyph glyph-name="k.sc" horiz-adv-x="591" 
d="M276 279l-102 -99v-180h-80v560h80v-286l289 286h98l-225 -230l230 -330h-98z" />
    <glyph glyph-name="l.sc" horiz-adv-x="588" 
d="M508 69v-69h-414v560h80v-491h334z" />
    <glyph glyph-name="lacute.sc" horiz-adv-x="588" 
d="M165 643h-65l57 148h94zM508 69v-69h-414v560h80v-491h334z" />
    <glyph glyph-name="lcaron.sc" horiz-adv-x="588" 
d="M508 69v-69h-414v560h80v-491h334zM319 363h-55l20 197h76z" />
    <glyph glyph-name="ldot.sc" horiz-adv-x="589" 
d="M508 69v-69h-414v560h80v-491h334zM523 342q18 -18 18 -47t-18 -47t-47 -18t-47 18t-18 47t18 47t47 18t47 -18z" />
    <glyph glyph-name="lslash.sc" horiz-adv-x="545" 
d="M519 69v-69h-414v213l-98 -51v73l98 51v274h80v-232l156 81v-73l-156 -81v-186h334z" />
    <glyph glyph-name="m.sc" horiz-adv-x="774" 
d="M94 560h120l136 -365l36 -109h3l36 109l136 365h119v-560h-77v325l7 160h-2l-184 -485h-74l-184 485h-2l6 -160v-325h-76v560z" />
    <glyph glyph-name="n.sc" horiz-adv-x="661" 
d="M567 0h-107l-244 392l-48 85h-1l4 -70v-407h-77v560h107l244 -393l48 -84h1l-4 70v407h77v-560z" />
    <glyph glyph-name="nacute.sc" horiz-adv-x="661" 
d="M443 791l-86 -148h-65l57 148h94zM567 0h-107l-244 392l-48 85h-1l4 -70v-407h-77v560h107l244 -393l48 -84h1l-4 70v407h77v-560z" />
    <glyph glyph-name="ncaron.sc" horiz-adv-x="661" 
d="M379 638h-90l-114 167h73l86 -115l86 115h73zM567 0h-107l-244 392l-48 85h-1l4 -70v-407h-77v560h107l244 -393l48 -84h1l-4 70v407h77v-560z" />
    <glyph glyph-name="ntilde.sc" horiz-adv-x="661" 
d="M567 0h-107l-244 392l-48 85h-1l4 -70v-407h-77v560h107l244 -393l48 -84h1l-4 70v407h77v-560zM402 643q-29 0 -48 10.5t-41 30.5q-16 14 -26 20.5t-23 6.5q-21 0 -32 -17t-17 -52h-63q5 67 32.5 100.5t80.5 33.5q28 0 47.5 -11t41.5 -31q15 -13 25.5 -19.5t21.5 -6.5
q21 0 32.5 17.5t17.5 51.5h63q-11 -134 -112 -134z" />
    <glyph glyph-name="o.sc" horiz-adv-x="672" 
d="M482.5 533q62.5 -35 96 -100t33.5 -153t-33.5 -153t-96 -100t-146.5 -35t-146.5 35t-96 100t-33.5 153t33.5 153t96 100t146.5 35t146.5 -35zM192.5 441q-52.5 -58 -52.5 -161t52.5 -161t143.5 -58t143.5 58t52.5 161t-52.5 161t-143.5 58t-143.5 -58z" />
    <glyph glyph-name="oacute.sc" horiz-adv-x="672" 
d="M445 791l-86 -148h-65l57 148h94zM482.5 533q62.5 -35 96 -100t33.5 -153t-33.5 -153t-96 -100t-146.5 -35t-146.5 35t-96 100t-33.5 153t33.5 153t96 100t146.5 35t146.5 -35zM192.5 441q-52.5 -58 -52.5 -161t52.5 -161t143.5 -58t143.5 58t52.5 161t-52.5 161
t-143.5 58t-143.5 -58z" />
    <glyph glyph-name="ocircumflex.sc" horiz-adv-x="672" 
d="M422 636l-86 115l-86 -115h-73l114 167h90l114 -167h-73zM482.5 533q62.5 -35 96 -100t33.5 -153t-33.5 -153t-96 -100t-146.5 -35t-146.5 35t-96 100t-33.5 153t33.5 153t96 100t146.5 35t146.5 -35zM192.5 441q-52.5 -58 -52.5 -161t52.5 -161t143.5 -58t143.5 58
t52.5 161t-52.5 161t-143.5 58t-143.5 -58z" />
    <glyph glyph-name="odieresis.sc" horiz-adv-x="672" 
d="M482.5 533q62.5 -35 96 -100t33.5 -153t-33.5 -153t-96 -100t-146.5 -35t-146.5 35t-96 100t-33.5 153t33.5 153t96 100t146.5 35t146.5 -35zM192.5 441q-52.5 -58 -52.5 -161t52.5 -161t143.5 -58t143.5 58t52.5 161t-52.5 161t-143.5 58t-143.5 -58zM280.5 740.5
q15.5 -15.5 15.5 -41.5q0 -25 -15.5 -41t-41.5 -16q-25 0 -41 16t-16 41q0 26 16 41.5t41 15.5q26 0 41.5 -15.5zM474.5 740.5q15.5 -15.5 15.5 -41.5q0 -25 -15.5 -41t-41.5 -16q-25 0 -41 16t-16 41q0 26 16 41.5t41 15.5q26 0 41.5 -15.5z" />
    <glyph glyph-name="ograve.sc" horiz-adv-x="672" 
d="M369 643h-65l-86 148h94zM482.5 533q62.5 -35 96 -100t33.5 -153t-33.5 -153t-96 -100t-146.5 -35t-146.5 35t-96 100t-33.5 153t33.5 153t96 100t146.5 35t146.5 -35zM192.5 441q-52.5 -58 -52.5 -161t52.5 -161t143.5 -58t143.5 58t52.5 161t-52.5 161t-143.5 58
t-143.5 -58z" />
    <glyph glyph-name="ohungarumlaut.sc" horiz-adv-x="672" 
d="M356 791l-86 -148h-65l57 148h94zM518 791l-86 -148h-65l57 148h94zM482.5 533q62.5 -35 96 -100t33.5 -153t-33.5 -153t-96 -100t-146.5 -35t-146.5 35t-96 100t-33.5 153t33.5 153t96 100t146.5 35t146.5 -35zM192.5 441q-52.5 -58 -52.5 -161t52.5 -161t143.5 -58
t143.5 58t52.5 161t-52.5 161t-143.5 58t-143.5 -58z" />
    <glyph glyph-name="omacron.sc" horiz-adv-x="672" 
d="M482.5 533q62.5 -35 96 -100t33.5 -153t-33.5 -153t-96 -100t-146.5 -35t-146.5 35t-96 100t-33.5 153t33.5 153t96 100t146.5 35t146.5 -35zM192.5 441q-52.5 -58 -52.5 -161t52.5 -161t143.5 -58t143.5 58t52.5 161t-52.5 161t-143.5 58t-143.5 -58zM510 656h-348v67
h348v-67z" />
    <glyph glyph-name="oslash.sc" horiz-adv-x="672" 
d="M591.5 403.5q20.5 -54.5 20.5 -123.5q0 -88 -33.5 -153t-96 -100t-146.5 -35q-88 0 -152 38l-44 -59h-61l65 89q-41 38 -62.5 93.5t-21.5 126.5q0 88 33.5 153t96 100t146.5 35q91 0 158 -42l39 53h61l-62 -83q39 -38 59.5 -92.5zM192.5 441q-52.5 -58 -52.5 -161
q0 -101 51 -158l258 345q-47 32 -113 32q-91 0 -143.5 -58zM479.5 119q52.5 58 52.5 161q0 96 -47 154l-257 -345q47 -28 108 -28q91 0 143.5 58z" />
    <glyph glyph-name="otilde.sc" horiz-adv-x="672" 
d="M482.5 533q62.5 -35 96 -100t33.5 -153t-33.5 -153t-96 -100t-146.5 -35t-146.5 35t-96 100t-33.5 153t33.5 153t96 100t146.5 35t146.5 -35zM192.5 441q-52.5 -58 -52.5 -161t52.5 -161t143.5 -58t143.5 58t52.5 161t-52.5 161t-143.5 58t-143.5 -58zM404 643
q-29 0 -48 10.5t-41 30.5q-16 14 -26 20.5t-23 6.5q-21 0 -32 -17t-17 -52h-63q5 67 32.5 100.5t80.5 33.5q28 0 47.5 -11t41.5 -31q15 -13 25.5 -19.5t21.5 -6.5q21 0 32.5 17.5t17.5 51.5h63q-11 -134 -112 -134z" />
    <glyph glyph-name="oe.sc" horiz-adv-x="966" 
d="M921 69v-69h-397v81q-66 -89 -194 -89q-82 0 -143 35t-94 100t-33 153q0 134 72.5 211t200.5 77q63 0 111.5 -22.5t79.5 -64.5v79h383v-69h-316v-173h244v-69h-244v-180h330zM467.5 118.5q48.5 57.5 48.5 161.5q0 103 -48.5 161t-132.5 58q-92 0 -143.5 -58t-51.5 -161
t51.5 -161t143.5 -58q84 0 132.5 57.5z" />
    <glyph glyph-name="p.sc" horiz-adv-x="558" 
d="M460 513.5q55 -46.5 55 -126.5q0 -79 -55.5 -125t-148.5 -46h-137v-216h-80v560h217q94 0 149 -46.5zM404 311q31 26 31 76q0 51 -31 77.5t-92 26.5h-138v-206h138q61 0 92 26z" />
    <glyph glyph-name="thorn.sc" horiz-adv-x="569" 
d="M465 416.5q56 -44.5 56 -130.5q0 -85 -56 -130t-166 -45h-125v-111h-80v560h80v-99h125q110 0 166 -44.5zM441 286q0 106 -127 106h-140v-212h140q127 0 127 106z" />
    <glyph glyph-name="q.sc" horiz-adv-x="672" 
d="M536 -88q28 10 46 26l24 -68q-20 -16 -55.5 -26.5t-70.5 -10.5q-79 0 -128 39t-53 122q-111 11 -175 87t-64 199q0 88 33.5 153t96 100t146.5 35t146.5 -35t96 -100t33.5 -153q0 -126 -66 -202t-182 -85q5 -50 34.5 -70.5t78.5 -20.5q31 0 59 10zM192.5 119
q52.5 -58 143.5 -58t143.5 58t52.5 161t-52.5 161t-143.5 58t-143.5 -58t-52.5 -161t52.5 -161z" />
    <glyph glyph-name="r.sc" horiz-adv-x="601" 
d="M315 228h-141v-228h-80v560h233q93 0 147.5 -44.5t54.5 -121.5q0 -60 -33.5 -101t-94.5 -56l162 -237h-92zM174 296h151q124 0 124 97q0 98 -124 98h-151v-195z" />
    <glyph glyph-name="racute.sc" horiz-adv-x="601" 
d="M313 643h-65l57 148h94zM315 228h-141v-228h-80v560h233q93 0 147.5 -44.5t54.5 -121.5q0 -60 -33.5 -101t-94.5 -56l162 -237h-92zM174 296h151q124 0 124 97q0 98 -124 98h-151v-195z" />
    <glyph glyph-name="rcaron.sc" horiz-adv-x="601" 
d="M245 638l-114 167h73l86 -115l86 115h73l-114 -167h-90zM315 228h-141v-228h-80v560h233q93 0 147.5 -44.5t54.5 -121.5q0 -60 -33.5 -101t-94.5 -56l162 -237h-92zM174 296h151q124 0 124 97q0 98 -124 98h-151v-195z" />
    <glyph glyph-name="s.sc" horiz-adv-x="577" 
d="M428 539.5q57 -28.5 93 -87.5l-60 -54q-27 54 -66 77.5t-104 23.5q-67 0 -106.5 -26t-39.5 -65q0 -30 21 -48t53 -27.5t87 -19.5q71 -14 114 -28t74 -46t31 -87q0 -73 -63.5 -116.5t-166.5 -43.5q-92 0 -155.5 31.5t-96.5 86.5l60 55q24 -50 72 -77t120 -27q68 0 109 23
t41 64q0 29 -21 46.5t-52 26t-86 19.5q-70 13 -114.5 27t-75.5 46t-31 87q0 46 27 84.5t78.5 61t119.5 22.5q81 0 138 -28.5z" />
    <glyph glyph-name="sacute.sc" horiz-adv-x="577" 
d="M402 791l-86 -148h-65l57 148h94zM428 539.5q57 -28.5 93 -87.5l-60 -54q-27 54 -66 77.5t-104 23.5q-67 0 -106.5 -26t-39.5 -65q0 -30 21 -48t53 -27.5t87 -19.5q71 -14 114 -28t74 -46t31 -87q0 -73 -63.5 -116.5t-166.5 -43.5q-92 0 -155.5 31.5t-96.5 86.5l60 55
q24 -50 72 -77t120 -27q68 0 109 23t41 64q0 29 -21 46.5t-52 26t-86 19.5q-70 13 -114.5 27t-75.5 46t-31 87q0 46 27 84.5t78.5 61t119.5 22.5q81 0 138 -28.5z" />
    <glyph glyph-name="scaron.sc" horiz-adv-x="577" 
d="M338 638h-90l-114 167h73l86 -115l86 115h73zM428 539.5q57 -28.5 93 -87.5l-60 -54q-27 54 -66 77.5t-104 23.5q-67 0 -106.5 -26t-39.5 -65q0 -30 21 -48t53 -27.5t87 -19.5q71 -14 114 -28t74 -46t31 -87q0 -73 -63.5 -116.5t-166.5 -43.5q-92 0 -155.5 31.5
t-96.5 86.5l60 55q24 -50 72 -77t120 -27q68 0 109 23t41 64q0 29 -21 46.5t-52 26t-86 19.5q-70 13 -114.5 27t-75.5 46t-31 87q0 46 27 84.5t78.5 61t119.5 22.5q81 0 138 -28.5z" />
    <glyph glyph-name="germandbls.sc" horiz-adv-x="625" 
d="M538.5 270.5q49.5 -39.5 49.5 -113.5q0 -73 -51.5 -117t-132.5 -44q-54 0 -93 14.5t-60 38.5l35 61q19 -20 47 -32.5t62 -12.5q51 0 82 25t31 68q0 53 -32 72.5t-96 19.5h-76v60l158 181h-158q-55 0 -92.5 -35t-37.5 -90v-366h-80v371q0 56 26 99t72.5 66.5t106.5 23.5
h251v-69l-163 -181h17q85 0 134.5 -39.5z" />
    <glyph glyph-name="t.sc" horiz-adv-x="551" 
d="M521 491h-205v-491h-80v491h-206v69h491v-69z" />
    <glyph glyph-name="tcaron.sc" horiz-adv-x="551" 
d="M231 638l-114 167h73l86 -115l86 115h73l-114 -167h-90zM521 491h-205v-491h-80v491h-206v69h491v-69z" />
    <glyph glyph-name="u.sc" horiz-adv-x="647" 
d="M560 212q0 -109 -60.5 -164.5t-176.5 -55.5q-115 0 -175.5 55.5t-60.5 164.5v348h80v-337q0 -82 38.5 -122t117.5 -40q80 0 118.5 40t38.5 122v337h80v-348z" />
    <glyph glyph-name="uacute.sc" horiz-adv-x="647" 
d="M432 791l-86 -148h-65l57 148h94zM560 212q0 -109 -60.5 -164.5t-176.5 -55.5q-115 0 -175.5 55.5t-60.5 164.5v348h80v-337q0 -82 38.5 -122t117.5 -40q80 0 118.5 40t38.5 122v337h80v-348z" />
    <glyph glyph-name="ucircumflex.sc" horiz-adv-x="647" 
d="M409 636l-86 115l-86 -115h-73l114 167h90l114 -167h-73zM560 212q0 -109 -60.5 -164.5t-176.5 -55.5q-115 0 -175.5 55.5t-60.5 164.5v348h80v-337q0 -82 38.5 -122t117.5 -40q80 0 118.5 40t38.5 122v337h80v-348z" />
    <glyph glyph-name="udieresis.sc" horiz-adv-x="647" 
d="M560 212q0 -109 -60.5 -164.5t-176.5 -55.5q-115 0 -175.5 55.5t-60.5 164.5v348h80v-337q0 -82 38.5 -122t117.5 -40q80 0 118.5 40t38.5 122v337h80v-348zM267.5 740.5q15.5 -15.5 15.5 -41.5q0 -25 -15.5 -41t-41.5 -16q-25 0 -41 16t-16 41q0 26 16 41.5t41 15.5
q26 0 41.5 -15.5zM461.5 740.5q15.5 -15.5 15.5 -41.5q0 -25 -15.5 -41t-41.5 -16q-25 0 -41 16t-16 41q0 26 16 41.5t41 15.5q26 0 41.5 -15.5z" />
    <glyph glyph-name="ugrave.sc" horiz-adv-x="647" 
d="M356 643h-65l-86 148h94zM560 212q0 -109 -60.5 -164.5t-176.5 -55.5q-115 0 -175.5 55.5t-60.5 164.5v348h80v-337q0 -82 38.5 -122t117.5 -40q80 0 118.5 40t38.5 122v337h80v-348z" />
    <glyph glyph-name="uhungarumlaut.sc" horiz-adv-x="647" 
d="M355 791l-86 -148h-65l57 148h94zM517 791l-86 -148h-65l57 148h94zM560 212q0 -109 -60.5 -164.5t-176.5 -55.5q-115 0 -175.5 55.5t-60.5 164.5v348h80v-337q0 -82 38.5 -122t117.5 -40q80 0 118.5 40t38.5 122v337h80v-348z" />
    <glyph glyph-name="umacron.sc" horiz-adv-x="647" 
d="M560 212q0 -109 -60.5 -164.5t-176.5 -55.5q-115 0 -175.5 55.5t-60.5 164.5v348h80v-337q0 -82 38.5 -122t117.5 -40q80 0 118.5 40t38.5 122v337h80v-348zM497 656h-348v67h348v-67z" />
    <glyph glyph-name="uogonek.sc" horiz-adv-x="647" 
d="M560 560v-348q0 -87 -39.5 -140.5t-115.5 -70.5q-109 -54 -109 -110q0 -24 17.5 -38.5t46.5 -14.5q36 0 55 12l16 -51q-14 -9 -36 -13.5t-45 -4.5q-54 0 -86.5 27.5t-32.5 71.5q0 36 16.5 63t50.5 50q-103 6 -157 61t-54 158v348h80v-337q0 -82 38.5 -122t117.5 -40
q80 0 118.5 40t38.5 122v337h80z" />
    <glyph glyph-name="uring.sc" horiz-adv-x="647" 
d="M560 212q0 -109 -60.5 -164.5t-176.5 -55.5q-115 0 -175.5 55.5t-60.5 164.5v348h80v-337q0 -82 38.5 -122t117.5 -40q80 0 118.5 40t38.5 122v337h80v-348zM414.5 739.5q34.5 -32.5 34.5 -85.5t-34.5 -86t-90.5 -33t-91 33t-35 86t35 85.5t91 32.5t90.5 -32.5z
M273 703.5q-20 -19.5 -20 -49.5t20 -49.5t51 -19.5t51 19.5t20 49.5t-20 49.5t-51 19.5t-51 -19.5z" />
    <glyph glyph-name="v.sc" horiz-adv-x="588" 
d="M341 0h-93l-223 560h85l149 -386l35 -106h1l35 105l149 387h84z" />
    <glyph glyph-name="w.sc" horiz-adv-x="869" 
d="M397 339l-94 -339h-100l-171 560h83l97 -339l44 -153l135 492h90l136 -493l141 493h79l-170 -560h-99l-95 339l-38 152h-1z" />
    <glyph glyph-name="x.sc" horiz-adv-x="546" 
d="M425 0l-155 229l-156 -229h-97l208 288l-187 272h94l143 -212l146 212h90l-192 -271l199 -289h-93z" />
    <glyph glyph-name="y.sc" horiz-adv-x="526" 
d="M303 215v-215h-80v215l-210 345h91l109 -188l50 -89l51 89l109 188h90z" />
    <glyph glyph-name="yacute.sc" horiz-adv-x="526" 
d="M372 791l-86 -148h-65l57 148h94zM303 215v-215h-80v215l-210 345h91l109 -188l50 -89l51 89l109 188h90z" />
    <glyph glyph-name="ydieresis.sc" horiz-adv-x="526" 
d="M303 215v-215h-80v215l-210 345h91l109 -188l50 -89l51 89l109 188h90zM207.5 740.5q15.5 -15.5 15.5 -41.5q0 -25 -15.5 -41t-41.5 -16q-25 0 -41 16t-16 41q0 26 16 41.5t41 15.5q26 0 41.5 -15.5zM401.5 740.5q15.5 -15.5 15.5 -41.5q0 -25 -15.5 -41t-41.5 -16
q-25 0 -41 16t-16 41q0 26 16 41.5t41 15.5q26 0 41.5 -15.5z" />
    <glyph glyph-name="z.sc" horiz-adv-x="566" 
d="M519 69v-69h-470v64l318 371l54 56h-374v69h459v-67l-297 -345l-76 -79h386z" />
    <glyph glyph-name="zacute.sc" horiz-adv-x="566" 
d="M300 643h-65l57 148h94zM519 69v-69h-470v64l318 371l54 56h-374v69h459v-67l-297 -345l-76 -79h386z" />
    <glyph glyph-name="zcaron.sc" horiz-adv-x="566" 
d="M238 638l-114 167h73l86 -115l86 115h73l-114 -167h-90zM519 69v-69h-470v64l318 371l54 56h-374v69h459v-67l-297 -345l-76 -79h386z" />
    <glyph glyph-name="zdotaccent.sc" horiz-adv-x="566" 
d="M519 69v-69h-470v64l318 371l54 56h-374v69h459v-67l-297 -345l-76 -79h386zM320.5 759.5q16.5 -16.5 16.5 -43.5t-16.5 -43.5t-43.5 -16.5t-43.5 16.5t-16.5 43.5t16.5 43.5t43.5 16.5t43.5 -16.5z" />
    <glyph glyph-name="Rcommaaccent.sc.ss03" horiz-adv-x="594" 
d="M94 560h233q93 0 147.5 -44.5t54.5 -120.5q0 -56 -32 -92t-91 -50v-2q98 -16 104 -111q4 -66 10.5 -93t17.5 -44v-3h-85q-15 34 -21 132q-3 48 -36 72t-100 24h-122v-228h-80v560zM322 296q127 0 127 97q0 49 -32.5 73.5t-94.5 24.5h-148v-195h148zM293 -237h-63l44 161
h84z" />
    <glyph glyph-name="r.sc.ss03" horiz-adv-x="594" 
d="M94 560h233q93 0 147.5 -44.5t54.5 -120.5q0 -56 -32 -92t-91 -50v-2q98 -16 104 -111q4 -66 10.5 -93t17.5 -44v-3h-85q-15 34 -21 132q-3 48 -36 72t-100 24h-122v-228h-80v560zM322 296q127 0 127 97q0 49 -32.5 73.5t-94.5 24.5h-148v-195h148z" />
    <glyph glyph-name="racute.sc.ss03" horiz-adv-x="594" 
d="M94 560h233q93 0 147.5 -44.5t54.5 -120.5q0 -56 -32 -92t-91 -50v-2q98 -16 104 -111q4 -66 10.5 -93t17.5 -44v-3h-85q-15 34 -21 132q-3 48 -36 72t-100 24h-122v-228h-80v560zM322 296q127 0 127 97q0 49 -32.5 73.5t-94.5 24.5h-148v-195h148zM404 810l-98 -167h-65
l76 167h87z" />
    <glyph glyph-name="rcaron.sc.ss03" horiz-adv-x="594" 
d="M94 560h233q93 0 147.5 -44.5t54.5 -120.5q0 -56 -32 -92t-91 -50v-2q98 -16 104 -111q4 -66 10.5 -93t17.5 -44v-3h-85q-15 34 -21 132q-3 48 -36 72t-100 24h-122v-228h-80v560zM322 296q127 0 127 97q0 49 -32.5 73.5t-94.5 24.5h-148v-195h148zM336 643h-92l-112 167
h73l85 -111l85 111h73z" />
    <glyph glyph-name="Gcommaaccent.sc.ss04" horiz-adv-x="644" 
d="M591 285v-32q0 -126 -65.5 -193.5t-190.5 -67.5q-84 0 -146 34.5t-95.5 99.5t-33.5 154q0 88 34.5 153t97 100t145.5 35q90 0 148 -32t92 -101l-74 -36q-18 49 -60.5 74.5t-105.5 25.5q-90 0 -143.5 -58.5t-53.5 -160.5q0 -105 52 -162t150 -57q61 0 100.5 23t57 58.5
t17.5 73.5v3h-189v66h263zM324 -237h-63l44 161h84z" />
    <glyph glyph-name="g.sc.ss04" horiz-adv-x="644" 
d="M591 285v-32q0 -126 -65.5 -193.5t-190.5 -67.5q-84 0 -146 34.5t-95.5 99.5t-33.5 154q0 88 34.5 153t97 100t145.5 35q90 0 148 -32t92 -101l-74 -36q-18 49 -60.5 74.5t-105.5 25.5q-90 0 -143.5 -58.5t-53.5 -160.5q0 -105 52 -162t150 -57q61 0 100.5 23t57 58.5
t17.5 73.5v3h-189v66h263z" />
    <glyph glyph-name="gbreve.sc.ss04" horiz-adv-x="644" 
d="M591 285v-32q0 -126 -65.5 -193.5t-190.5 -67.5q-84 0 -146 34.5t-95.5 99.5t-33.5 154q0 88 34.5 153t97 100t145.5 35q90 0 148 -32t92 -101l-74 -36q-18 49 -60.5 74.5t-105.5 25.5q-90 0 -143.5 -58.5t-53.5 -160.5q0 -105 52 -162t150 -57q61 0 100.5 23t57 58.5
t17.5 73.5v3h-189v66h263zM441 678q-41 -41 -107 -41t-107 41t-41 107h66q0 -36 23.5 -62t58.5 -26t58.5 26t23.5 62h66q0 -66 -41 -107z" />
    <glyph glyph-name="iacute_j.loclNLD.sc.ss05" horiz-adv-x="565" 
d="M247 791l-86 -148h-65l57 148h94zM555 791l-86 -148h-65l57 148h94zM478 196q0 -95 -54 -149.5t-148 -54.5q-190 0 -190 145q0 9 2 29h79q-1 -6 -1 -17q0 -44 28.5 -66t82.5 -22q58 0 89.5 37.5t31.5 109.5v352h80v-364zM167 242h-80v318h80v-318z" />
    <glyph glyph-name="ij.sc.ss05" horiz-adv-x="565" 
d="M478 196q0 -95 -54 -149.5t-148 -54.5q-190 0 -190 145q0 9 2 29h79q-1 -6 -1 -17q0 -44 28.5 -66t82.5 -22q58 0 89.5 37.5t31.5 109.5v352h80v-364zM167 242h-80v318h80v-318z" />
    <glyph glyph-name="ordfeminine" unicode="&#xaa;" horiz-adv-x="382" 
d="M365 380l-5 -44q-20 -9 -39 -9q-26 0 -43.5 12.5t-23.5 37.5q-17 -23 -50 -36.5t-75 -13.5q-51 0 -80.5 21.5t-29.5 61.5q0 42 31.5 67.5t98.5 37.5l93 16v14q0 31 -19.5 48.5t-54.5 17.5q-34 0 -57.5 -14t-36.5 -47l-49 29q12 39 49.5 62.5t96.5 23.5q68 0 103.5 -30
t35.5 -88v-140q0 -31 31 -31q16 0 24 4zM212.5 399.5q29.5 18.5 29.5 48.5v38l-71 -14q-44 -9 -63 -20.5t-19 -33.5q0 -20 14 -28.5t44 -8.5q36 0 65.5 18.5zM26 254h320v-53h-320v53z" />
    <glyph glyph-name="ordmasculine" unicode="&#xba;" horiz-adv-x="360" 
d="M63.5 371.5q-40.5 44.5 -40.5 124.5t40.5 124.5t116.5 44.5t116.5 -44.5t40.5 -124.5t-40.5 -124.5t-116.5 -44.5t-116.5 44.5zM245.5 411.5q21.5 29.5 21.5 84.5t-22 85t-65 30t-65 -30t-22 -85t21.5 -84.5t65.5 -29.5t65.5 29.5zM36 254h288v-53h-288v53z" />
    <glyph glyph-name="pi" unicode="&#x3c0;" horiz-adv-x="736" 
d="M543 433v-297q0 -39 25 -54t84 -15l-16 -67q-64 0 -101.5 11.5t-54.5 38.5t-17 75v308h-216v-433h-80v433h-136v67h664v-67h-152z" />
    <glyph glyph-name="zero" unicode="0" horiz-adv-x="622" 
d="M128 77q-63 87 -63 253t63 253t183 87t183 -87t63 -253t-63 -253t-183 -87t-183 87zM432 130.5q42 68.5 42 199.5t-42 199.5t-121 68.5t-121 -68.5t-42 -199.5t42 -199.5t121 -68.5t121 68.5z" />
    <glyph glyph-name="one" unicode="1" horiz-adv-x="409" 
d="M307 660v-660h-80v484q0 21 2 77q-34 -33 -79 -57.5t-92 -35.5l-21 73q24 3 65 22.5t79 46t56 50.5h70z" />
    <glyph glyph-name="two" unicode="2" horiz-adv-x="583" 
d="M74 65q137 101 210 166.5t104.5 119t31.5 112.5t-38 95.5t-102 36.5q-67 0 -108.5 -44t-48.5 -119l-70 42q13 89 72.5 142.5t157.5 53.5q66 0 116.5 -26t77.5 -73t27 -108q0 -64 -30.5 -123t-99.5 -124t-186 -143v-1q66 3 99 3h231v-75h-444v65z" />
    <glyph glyph-name="three" unicode="3" horiz-adv-x="583" 
d="M402.5 646.5q46.5 -23.5 70.5 -62.5t24 -86q0 -46 -17 -83t-45.5 -58.5t-61.5 -21.5v-2q63 0 101 -45.5t38 -110.5q0 -53 -28.5 -96t-81.5 -67t-122 -24q-165 0 -228 158l74 39q20 -61 55.5 -91.5t104.5 -30.5q67 0 105 33.5t38 86.5q0 61 -36.5 85.5t-115.5 24.5h-26v75
h26q137 0 137 112q0 56 -31.5 84.5t-90.5 28.5q-58 0 -92.5 -26.5t-47.5 -74.5l-75 35q24 65 81.5 103t132.5 38q65 0 111.5 -23.5z" />
    <glyph glyph-name="four" unicode="4" horiz-adv-x="611" 
d="M563 173h-117v-173h-80v173h-322v59l301 428h101v-418h117v-69zM129 242h237v247l4 106h-2q-25 -51 -66 -110z" />
    <glyph glyph-name="five" unicode="5" horiz-adv-x="582" 
d="M462 364.5q57 -58.5 57 -154.5q0 -103 -60 -161.5t-166 -58.5q-89 0 -144.5 38.5t-85.5 112.5l78 41q17 -58 50.5 -87.5t98.5 -29.5q68 0 107 37t39 102q0 70 -36 107t-104 37q-103 0 -147 -64h-71l40 376h371v-75h-303l-26 -208l-1 -9h1q53 55 151 55q94 0 151 -58.5z
" />
    <glyph glyph-name="six" unicode="6" horiz-adv-x="618" 
d="M458 637q50 -33 81 -106l-74 -35q-32 99 -141 99q-52 0 -92.5 -37t-63 -101t-22.5 -142v-18h4q15 59 68 90t113 31q101 0 161.5 -58t60.5 -156t-61.5 -156t-165.5 -58q-81 0 -138.5 43.5t-87 120t-29.5 176.5q0 108 33.5 184.5t92 116t132.5 39.5q79 0 129 -33zM221 303
q-40 -38 -40 -98q0 -62 39.5 -100t104.5 -38q68 0 106 36.5t38 101.5q0 63 -38 99.5t-106 36.5q-64 0 -104 -38z" />
    <glyph glyph-name="seven" unicode="7" horiz-adv-x="561" 
d="M526 660v-75q-123 -129 -179.5 -272t-56.5 -313h-82q0 162 58.5 311.5t172.5 273.5h-399v75h486z" />
    <glyph glyph-name="eight" unicode="8" horiz-adv-x="616" 
d="M461 622.5q57 -46.5 57 -126.5q0 -51 -24.5 -89.5t-68.5 -58.5v-1q58 -22 90.5 -65t32.5 -104q0 -57 -29.5 -99.5t-84 -65.5t-126.5 -23t-126 23t-84 65.5t-30 99.5q0 60 32.5 104t91.5 65v1q-44 19 -69 58t-25 90q0 80 57 126.5t153 46.5t153 -46.5zM215 566
q-34 -28 -34 -78q0 -48 35 -76.5t92 -28.5t92 28.5t35 76.5q0 50 -34 78t-93 28t-93 -28zM423 97.5q42 32.5 42 88.5q0 57 -42.5 89.5t-114.5 32.5q-71 0 -114 -33t-43 -89t42.5 -88.5t114.5 -32.5q73 0 115 32.5z" />
    <glyph glyph-name="nine" unicode="9" horiz-adv-x="623" 
d="M435.5 627q57.5 -43 87 -119.5t29.5 -177.5q0 -166 -65 -253t-189 -87q-89 0 -144.5 37t-84.5 112l79 42q18 -59 49.5 -87.5t99.5 -28.5q99 0 140.5 75t41.5 217v9h-4q-14 -66 -66.5 -95t-117.5 -29q-100 0 -160.5 58t-60.5 156t61.5 156t165.5 58q81 0 138.5 -43z
M192 556.5q-38 -36.5 -38 -101.5q0 -63 38 -99.5t106 -36.5q64 0 104 38t40 98q0 62 -39.5 100t-104.5 38q-68 0 -106 -36.5z" />
    <glyph glyph-name="zero.osf" horiz-adv-x="598" 
d="M476 496q60 -74 60 -216t-60 -216t-177 -74t-177 74t-60 216t60 216t177 74t177 -74zM182 445.5q-40 -56.5 -40 -165.5t40 -165.5t117 -56.5t117 56.5t40 165.5t-40 165.5t-117 56.5t-117 -56.5z" />
    <glyph glyph-name="one.osf" horiz-adv-x="378" 
d="M286 560v-560h-80v396q0 23 2 71q-33 -31 -75.5 -53.5t-87.5 -33.5l-19 67q48 12 106 44.5t84 68.5h70z" />
    <glyph glyph-name="two.osf" horiz-adv-x="533" 
d="M416 520q57 -50 57 -145q0 -90 -63.5 -155.5t-182.5 -129.5q-21 -11 -58 -25v-2q9 1 35 3t52 2h240v-68h-445v71q123 58 192 99.5t109.5 92t40.5 115.5t-38 94.5t-94 29.5q-63 0 -104 -40t-41 -105q0 -12 1 -18l-70 35q0 57 26.5 101.5t74.5 69.5t111 25q100 0 157 -50z
" />
    <glyph glyph-name="three.osf" horiz-adv-x="533" 
d="M364.5 546q46.5 -24 69.5 -64t23 -87q0 -140 -124 -160v-2q71 -4 105 -45.5t34 -105.5q0 -56 -28.5 -99.5t-81.5 -68t-122 -24.5q-165 0 -228 158l71 40q20 -64 57 -97t106 -33t107.5 36t38.5 93q0 60 -38 86t-117 26h-26v68h26q68 0 104 30t36 86q0 119 -125 119
q-58 0 -94.5 -28.5t-48.5 -79.5l-72 35q24 65 81.5 103t132.5 38q67 0 113.5 -24z" />
    <glyph glyph-name="four.osf" horiz-adv-x="606" 
d="M558 73h-117v-173h-80v173h-322v59l301 428h101v-418h117v-69zM124 142h237v247l4 106h-2q-25 -51 -66 -110z" />
    <glyph glyph-name="five.osf" horiz-adv-x="560" 
d="M455 264.5q57 -58.5 57 -154.5q0 -103 -60 -161.5t-166 -58.5q-89 0 -144.5 38.5t-85.5 112.5l74 41q17 -60 54 -92t102 -32q69 0 107.5 39.5t38.5 108.5q0 71 -36.5 110t-106.5 39q-48 0 -86 -18.5t-61 -52.5h-71l40 376h371v-68h-304l-26 -215l-2 -9h1q55 55 153 55
q94 0 151 -58.5z" />
    <glyph glyph-name="six.osf" horiz-adv-x="598" 
d="M448.5 637q49.5 -33 80.5 -106l-72 -34q-15 51 -47 78t-90 27q-57 0 -99 -37.5t-63.5 -103t-21.5 -146.5v-23h4q15 63 68.5 94.5t114.5 31.5q99 0 159 -58t60 -156t-60.5 -156t-163.5 -58q-82 0 -139.5 43.5t-87.5 120t-30 176.5q0 108 33.5 184.5t92.5 116t134 39.5
q78 0 127.5 -33zM211 309.5q-41 -40.5 -41 -104.5q0 -66 41 -106.5t106 -40.5q69 0 107 39t38 109q0 68 -38 106t-107 38q-65 0 -106 -40.5z" />
    <glyph glyph-name="seven.osf" horiz-adv-x="531" 
d="M496 560v-75q-129 -135 -182.5 -273.5t-53.5 -311.5h-80q0 165 58.5 315.5t175.5 274.5h-404v70h486z" />
    <glyph glyph-name="eight.osf" horiz-adv-x="590" 
d="M445.5 622.5q56.5 -46.5 56.5 -126.5q0 -51 -24 -89.5t-66 -58.5v-1q56 -22 88 -65t32 -104q0 -57 -29.5 -99.5t-83 -65.5t-124.5 -23t-124.5 23t-83 65.5t-29.5 99.5q0 60 32 104t89 65v1q-42 19 -66.5 58t-24.5 90q0 80 56.5 126.5t150.5 46.5t150.5 -46.5z
M202.5 571.5q-34.5 -29.5 -34.5 -80.5t34.5 -80.5t92.5 -29.5t92.5 29.5t34.5 80.5t-34.5 80.5t-92.5 29.5t-92.5 -29.5zM409.5 92q42.5 34 42.5 93t-42.5 93t-114.5 34t-114.5 -34t-42.5 -93t42.5 -93t114.5 -34t114.5 34z" />
    <glyph glyph-name="nine.osf" horiz-adv-x="613" 
d="M435.5 527q57.5 -43 87 -119.5t29.5 -177.5q0 -156 -66 -248t-188 -92q-89 0 -144.5 37t-84.5 112l73 39q13 -58 49 -89t106 -31q84 0 133 73.5t49 198.5q0 25 -1 42h-4q-13 -65 -64 -97.5t-119 -32.5q-100 0 -160.5 58t-60.5 156t61.5 156t165.5 58q81 0 138.5 -43z
M189 463.5q-39 -38.5 -39 -108.5q0 -68 39 -106.5t109 -38.5q65 0 105.5 40.5t40.5 104.5q0 66 -40.5 106.5t-105.5 40.5q-70 0 -109 -38.5z" />
    <glyph glyph-name="zero.tf" 
d="M119 77q-63 87 -63 253t63 253t183 87t183 -87t63 -253t-63 -253t-183 -87t-183 87zM423 130.5q42 68.5 42 199.5t-42 199.5t-121 68.5t-121 -68.5t-42 -199.5t42 -199.5t121 -68.5t121 68.5z" />
    <glyph glyph-name="one.tf" 
d="M566 72v-72h-458v72h199v414q0 22 2 80q-38 -34 -89.5 -60t-101.5 -38l-21 73q24 3 70.5 22.5t89.5 46t60 50.5h70v-588h179z" />
    <glyph glyph-name="two.tf" 
d="M83 65q137 101 210 166.5t104.5 119t31.5 112.5t-38 95.5t-102 36.5q-67 0 -108.5 -44t-48.5 -119l-70 42q13 89 72.5 142.5t157.5 53.5q66 0 116.5 -26t77.5 -73t27 -108q0 -64 -30.5 -123t-99.5 -124t-186 -143v-1q66 3 99 3h231v-75h-444v65z" />
    <glyph glyph-name="three.tf" 
d="M418.5 646.5q46.5 -23.5 70.5 -62.5t24 -86q0 -46 -17 -83t-45.5 -58.5t-61.5 -21.5v-2q63 0 101 -45.5t38 -110.5q0 -53 -28.5 -96t-81.5 -67t-122 -24q-165 0 -228 158l78 41q17 -62 52 -93t104 -31q67 0 105 33.5t38 86.5q0 61 -36.5 85.5t-115.5 24.5h-26v75h26
q137 0 137 112q0 56 -31.5 84.5t-90.5 28.5q-58 0 -92.5 -26.5t-47.5 -74.5l-75 35q24 65 81.5 103t132.5 38q65 0 111.5 -23.5z" />
    <glyph glyph-name="four.tf" 
d="M360 173h-316v59l292 428h104v-418h123v-69h-123v-173h-80v173zM360 242v215q0 72 4 133h-2q-22 -47 -62 -104l-173 -244h233z" />
    <glyph glyph-name="five.tf" 
d="M475 364.5q57 -58.5 57 -154.5q0 -103 -60 -161.5t-166 -58.5q-89 0 -144.5 38.5t-85.5 112.5l78 41q17 -58 50.5 -87.5t98.5 -29.5q68 0 107 37t39 102q0 70 -36 107t-104 37q-103 0 -147 -64h-71l40 376h371v-75h-303l-26 -208l-1 -9h1q53 55 151 55q94 0 151 -58.5z
" />
    <glyph glyph-name="six.tf" 
d="M458 637q50 -33 81 -106l-74 -35q-32 99 -141 99q-52 0 -92.5 -37t-63 -101t-22.5 -142v-18h4q15 59 68 90t113 31q101 0 161.5 -58t60.5 -156t-61.5 -156t-165.5 -58q-81 0 -138.5 43.5t-87 120t-29.5 176.5q0 108 33.5 184.5t92 116t132.5 39.5q79 0 129 -33zM221 303
q-40 -38 -40 -98q0 -62 39.5 -100t104.5 -38q68 0 106 36.5t38 101.5q0 63 -38 99.5t-106 36.5q-64 0 -104 -38z" />
    <glyph glyph-name="seven.tf" 
d="M563 660v-75q-129 -132 -191.5 -275t-62.5 -310h-82q0 160 63.5 310.5t184.5 274.5h-423v75h511z" />
    <glyph glyph-name="eight.tf" 
d="M450.5 622.5q55.5 -46.5 55.5 -126.5q0 -50 -24.5 -89t-66.5 -59v-1q56 -22 88 -65t32 -104q0 -86 -63.5 -137t-169.5 -51q-70 0 -122.5 23t-81.5 65.5t-29 99.5q0 60 32 104t89 65v1q-42 19 -67 58t-25 90q0 80 55.5 126.5t148.5 46.5t148.5 -46.5zM213.5 566
q-32.5 -28 -32.5 -78q0 -48 33 -76.5t88 -28.5t88 28.5t33 76.5q0 50 -32.5 78t-88.5 28t-88.5 -28zM412 97.5q40 32.5 40 88.5q0 57 -40.5 89.5t-109.5 32.5q-68 0 -109 -32.5t-41 -89.5q0 -56 40.5 -88.5t109.5 -32.5q70 0 110 32.5z" />
    <glyph glyph-name="nine.tf" 
d="M422.5 627q57.5 -43 87 -119.5t29.5 -177.5q0 -166 -65 -253t-189 -87q-89 0 -144.5 37t-84.5 112l79 42q18 -59 49.5 -87.5t99.5 -28.5q99 0 140.5 75t41.5 217v9h-4q-14 -66 -66.5 -95t-117.5 -29q-100 0 -160.5 58t-60.5 156t61.5 156t165.5 58q81 0 138.5 -43z
M179 556.5q-38 -36.5 -38 -101.5q0 -63 38 -99.5t106 -36.5q64 0 104 38t40 98q0 62 -39.5 100t-104.5 38q-68 0 -106 -36.5z" />
    <glyph glyph-name="zero.tosf" 
d="M478.5 496q60.5 -74 60.5 -216t-60.5 -216t-176.5 -74t-176.5 74t-60.5 216t60.5 216t176.5 74t176.5 -74zM185 445.5q-40 -56.5 -40 -165.5t40 -165.5t117 -56.5t117 56.5t40 165.5t-40 165.5t-117 56.5t-117 -56.5z" />
    <glyph glyph-name="one.tosf" 
d="M564 70v-70h-458v70h199v306q0 43 3 94q-36 -34 -85 -60t-97 -37l-21 68q24 3 67.5 22.5t84.5 46t58 50.5h70v-490h179z" />
    <glyph glyph-name="two.tosf" 
d="M438 520q57 -50 57 -145q0 -90 -63.5 -155.5t-182.5 -129.5q-21 -11 -58 -25v-2q9 1 35 3t52 2h240v-68h-445v71q123 58 192 99.5t109.5 92t40.5 115.5t-38 94.5t-94 29.5q-63 0 -104 -40t-41 -105q0 -12 1 -18l-70 35q0 57 26.5 101.5t74.5 69.5t111 25q100 0 157 -50z
" />
    <glyph glyph-name="three.tosf" 
d="M420.5 546q46.5 -24 69.5 -64t23 -87q0 -140 -124 -160v-2q71 -4 105 -45.5t34 -105.5q0 -56 -28.5 -99.5t-81.5 -68t-122 -24.5q-165 0 -228 158l71 40q20 -64 57 -97t106 -33t107.5 36t38.5 93q0 60 -38 86t-117 26h-26v68h26q68 0 104 30t36 86q0 119 -125 119
q-58 0 -94.5 -28.5t-48.5 -79.5l-72 35q24 65 81.5 103t132.5 38q67 0 113.5 -24z" />
    <glyph glyph-name="four.tosf" 
d="M376 73h-326v59l302 428h104v-418h113v-69h-113v-173h-80v173zM376 142v215q0 72 4 133h-2q-11 -25 -25 -46.5t-37 -53.5l-181 -248h241z" />
    <glyph glyph-name="five.tosf" 
d="M485 264.5q57 -58.5 57 -154.5q0 -103 -60 -161.5t-166 -58.5q-89 0 -144.5 38.5t-85.5 112.5l74 41q17 -60 54 -92t102 -32q69 0 107.5 39.5t38.5 108.5q0 71 -36.5 110t-106.5 39q-48 0 -86 -18.5t-61 -52.5h-71l40 376h371v-68h-304l-26 -215l-2 -9h1q55 55 153 55
q94 0 151 -58.5z" />
    <glyph glyph-name="six.tosf" 
d="M455.5 637q49.5 -33 80.5 -106l-72 -34q-15 51 -47 78t-90 27q-57 0 -99 -37.5t-63.5 -103t-21.5 -146.5v-23h4q15 63 68.5 94.5t114.5 31.5q99 0 159 -58t60 -156t-60.5 -156t-163.5 -58q-82 0 -139.5 43.5t-87.5 120t-30 176.5q0 108 33.5 184.5t92.5 116t134 39.5
q78 0 127.5 -33zM218 309.5q-41 -40.5 -41 -104.5q0 -66 41 -106.5t106 -40.5q69 0 107 39t38 109q0 68 -38 106t-107 38q-65 0 -106 -40.5z" />
    <glyph glyph-name="seven.tosf" 
d="M545 560v-75q-123 -129 -179.5 -272t-56.5 -313h-80q0 165 58.5 315.5t175.5 274.5h-404v70h486z" />
    <glyph glyph-name="eight.tosf" 
d="M449.5 622.5q56.5 -46.5 56.5 -126.5q0 -51 -24 -89.5t-66 -58.5v-1q56 -22 88 -65t32 -104q0 -57 -29.5 -99.5t-83 -65.5t-124.5 -23t-124.5 23t-83 65.5t-29.5 99.5q0 60 32 104t89 65v1q-42 19 -66.5 58t-24.5 90q0 80 56.5 126.5t150.5 46.5t150.5 -46.5z
M206.5 571.5q-34.5 -29.5 -34.5 -80.5t34.5 -80.5t92.5 -29.5t92.5 29.5t34.5 80.5t-34.5 80.5t-92.5 29.5t-92.5 -29.5zM413.5 92q42.5 34 42.5 93t-42.5 93t-114.5 34t-114.5 -34t-42.5 -93t42.5 -93t114.5 -34t114.5 34z" />
    <glyph glyph-name="nine.tosf" 
d="M412.5 527q57.5 -43 87 -119.5t29.5 -177.5q0 -156 -66 -248t-188 -92q-89 0 -144.5 37t-84.5 112l73 39q13 -58 49 -89t106 -31q84 0 133 73.5t49 198.5q0 25 -1 42h-4q-13 -65 -64 -97.5t-119 -32.5q-100 0 -160.5 58t-60.5 156t61.5 156t165.5 58q81 0 138.5 -43z
M166 463.5q-39 -38.5 -39 -108.5q0 -68 39 -106.5t109 -38.5q65 0 105.5 40.5t40.5 104.5q0 66 -40.5 106.5t-105.5 40.5q-70 0 -109 -38.5z" />
    <glyph glyph-name="zero.zero" horiz-adv-x="622" 
d="M494 583q63 -87 63 -253t-63 -253t-183 -87t-183 87t-63 253t63 253t183 87t183 -87zM194 123l191 456q-33 19 -74 19q-79 0 -121 -68.5t-42 -199.5q0 -136 46 -207zM432 130.5q42 68.5 42 199.5q0 135 -46 206l-190 -455q31 -19 73 -19q79 0 121 68.5z" />
    <glyph glyph-name="zero.osf.zero" horiz-adv-x="598" 
d="M476 496q60 -74 60 -216t-60 -216t-177 -74t-177 74t-60 216t60 216t177 74t177 -74zM182 445.5q-40 -56.5 -40 -165.5q0 -113 43 -170l191 373q-32 19 -77 19q-77 0 -117 -56.5zM416 114.5q40 56.5 40 165.5q0 102 -37 161l-188 -368q29 -15 68 -15q77 0 117 56.5z" />
    <glyph glyph-name="zero.tf.zero" 
d="M485 583q63 -87 63 -253t-63 -253t-183 -87t-183 87t-63 253t63 253t183 87t183 -87zM190 117l184 462q-29 19 -72 19q-79 0 -121 -68.5t-42 -199.5q0 -145 51 -213zM423 130.5q42 68.5 42 199.5q0 142 -48 209l-183 -461q32 -16 68 -16q79 0 121 68.5z" />
    <glyph glyph-name="zero.tosf.zero" 
d="M478.5 496q60.5 -74 60.5 -216t-60.5 -216t-176.5 -74t-176.5 74t-60.5 216t60.5 216t176.5 74t176.5 -74zM185 445.5q-40 -56.5 -40 -165.5q0 -122 50 -178l192 376q-35 24 -85 24q-77 0 -117 -56.5zM419 114.5q40 56.5 40 165.5q0 95 -31 152l-186 -363q27 -11 60 -11
q77 0 117 56.5z" />
    <glyph glyph-name="fraction" unicode="&#x2044;" horiz-adv-x="248" 
d="M323 660h79l-477 -660h-79z" />
    <glyph glyph-name="onehalf" unicode="&#xbd;" horiz-adv-x="855" 
d="M189 665v-397h-70v251q0 20 2 72q-23 -22 -52 -37.5t-59 -20.5v60q29 6 65.5 27.5t51.5 44.5h62zM565 660h79l-477 -660h-79zM529 44q66 46 92 67q72 57 97.5 89.5t25.5 66.5q0 33 -20 53t-57 20q-39 0 -61.5 -24.5t-24.5 -68.5l-63 22q4 60 45 94.5t107 34.5
q70 0 108.5 -37t38.5 -90q0 -44 -35 -88.5t-110 -96.5l-52 -35v-1q36 3 64 3h142v-57h-297v48z" />
    <glyph glyph-name="onequarter" unicode="&#xbc;" horiz-adv-x="788" 
d="M189 665v-397h-70v251q0 20 2 72q-23 -22 -52 -37.5t-59 -20.5v60q29 6 65.5 27.5t51.5 44.5h62zM565 660h79l-477 -660h-79zM768 95h-71v-99h-59v99h-199v37l182 261h76v-248h71v-50zM638 145v114q0 39 3 76h-3q-18 -33 -32 -54l-99 -136h131z" />
    <glyph glyph-name="threequarters" unicode="&#xbe;" horiz-adv-x="908" 
d="M282.5 640.5q36.5 -29.5 36.5 -78.5q0 -42 -25 -67t-54 -27v-1q34 -1 61 -25.5t27 -66.5q0 -51 -42 -82t-108 -31q-123 0 -154 96l67 30q6 -35 27 -51.5t59 -16.5q35 0 56.5 17.5t21.5 47.5q0 56 -78 56h-24v50h21q35 0 53 15.5t18 44.5q0 30 -17.5 45.5t-50.5 15.5
q-31 0 -50.5 -15t-25.5 -45l-65 23q12 47 51 71t94 24q65 0 101.5 -29.5zM685 660h79l-477 -660h-79zM888 95h-71v-99h-59v99h-199v37l182 261h76v-248h71v-50zM758 145v114q0 39 3 76h-3q-18 -33 -32 -54l-99 -136h131z" />
    <glyph glyph-name="zero.dnom" horiz-adv-x="396" 
d="M75.5 41.5q-41.5 51.5 -41.5 152.5t41.5 152.5t122.5 51.5t122.5 -51.5t41.5 -152.5t-41.5 -152.5t-122.5 -51.5t-122.5 51.5zM292 194q0 147 -94 147t-94 -147t94 -147t94 147z" />
    <glyph glyph-name="one.dnom" horiz-adv-x="242" 
d="M189 393v-397h-70v251q0 20 2 72q-23 -22 -52 -37.5t-59 -20.5v60q29 6 65.5 27.5t51.5 44.5h62z" />
    <glyph glyph-name="two.dnom" horiz-adv-x="365" 
d="M39 44q66 46 92 67q72 57 97.5 89.5t25.5 66.5q0 33 -20 53t-57 20q-39 0 -61.5 -24.5t-24.5 -68.5l-63 22q4 60 45 94.5t107 34.5q70 0 108.5 -37t38.5 -90q0 -44 -35 -88.5t-110 -96.5l-52 -35v-1q36 3 64 3h142v-57h-297v48z" />
    <glyph glyph-name="three.dnom" horiz-adv-x="362" 
d="M282.5 368.5q36.5 -29.5 36.5 -78.5q0 -42 -25 -67t-54 -27v-1q34 -1 61 -25.5t27 -66.5q0 -51 -42 -82t-108 -31q-123 0 -154 96l67 30q6 -35 27 -51.5t59 -16.5q35 0 56.5 17.5t21.5 47.5q0 56 -78 56h-24v50h21q35 0 53 15.5t18 44.5q0 30 -17.5 45.5t-50.5 15.5
q-31 0 -50.5 -15t-25.5 -45l-65 23q12 47 51 71t94 24q65 0 101.5 -29.5z" />
    <glyph glyph-name="four.dnom" horiz-adv-x="358" 
d="M338 95h-71v-99h-59v99h-199v37l182 261h76v-248h71v-50zM208 145v114q0 39 3 76h-3q-18 -33 -32 -54l-99 -136h131z" />
    <glyph glyph-name="five.dnom" horiz-adv-x="360" 
d="M295 216.5q36 -35.5 36 -89.5q0 -65 -42 -100.5t-109 -35.5q-57 0 -95 20t-59 65l63 36q16 -63 89 -63q38 0 61 21.5t23 55.5q0 74 -81 74q-61 0 -84 -39h-54l18 232h249v-58h-195l-8 -90q-1 -14 -5 -28h1q14 17 35.5 26t61.5 9q59 0 95 -35.5z" />
    <glyph glyph-name="six.dnom" horiz-adv-x="376" 
d="M76.5 42.5q-42.5 52.5 -42.5 151.5q0 98 47.5 151t123.5 53q51 0 83.5 -20t49.5 -62l-58 -30q-17 55 -76 55q-50 0 -77 -41t-27 -100v-13h1q20 30 45 43t61 13q63 0 100.5 -34.5t37.5 -91.5q0 -59 -40 -93t-108 -34q-78 0 -120.5 52.5zM257.5 64.5q21.5 18.5 21.5 52.5
q0 32 -22 51.5t-59 19.5q-35 0 -58 -21.5t-23 -49.5q0 -32 22 -51.5t59 -19.5q38 0 59.5 18.5z" />
    <glyph glyph-name="seven.dnom" horiz-adv-x="312" 
d="M306 393v-58q-72 -75 -103 -155.5t-31 -183.5h-70q0 198 137 339h-236v58h303z" />
    <glyph glyph-name="eight.dnom" horiz-adv-x="385" 
d="M296.5 368q38.5 -29 38.5 -78q0 -32 -18 -55t-52 -34v-1q41 -11 63 -36t22 -61q0 -52 -42.5 -82.5t-115.5 -30.5q-72 0 -115 30.5t-43 82.5q0 36 22.5 61t62.5 36v1q-33 11 -51.5 34t-18.5 55q0 49 38.5 78t104.5 29t104.5 -29zM138 328.5q-20 -15.5 -20 -42.5t20 -43
t54 -16t54 16t20 43t-20 42.5t-54 15.5t-54 -15.5zM255.5 61.5q23.5 17.5 23.5 46.5q0 30 -23.5 47.5t-63.5 17.5q-39 0 -63 -17.5t-24 -47.5q0 -29 23.5 -46.5t63.5 -17.5t63.5 17.5z" />
    <glyph glyph-name="nine.dnom" horiz-adv-x="381" 
d="M304 344.5q43 -53.5 43 -151.5t-43.5 -150.5t-121.5 -52.5q-114 0 -147 86l66 28q7 -29 26 -43.5t56 -14.5q51 0 74.5 38t23.5 92q0 14 -1 20h-1q-8 -20 -38.5 -36.5t-62.5 -16.5q-68 0 -106 33.5t-38 91.5q0 60 40 95t110 35q77 0 120 -53.5zM124.5 322
q-21.5 -19 -21.5 -53q0 -33 21.5 -52t59.5 -19q36 0 59.5 20.5t23.5 50.5q0 32 -23 52t-59 20q-39 0 -60.5 -19z" />
    <glyph glyph-name="zero.numr" horiz-adv-x="396" 
d="M75.5 313.5q-41.5 51.5 -41.5 152.5t41.5 152.5t122.5 51.5t122.5 -51.5t41.5 -152.5t-41.5 -152.5t-122.5 -51.5t-122.5 51.5zM292 466q0 147 -94 147t-94 -147t94 -147t94 147z" />
    <glyph glyph-name="one.numr" horiz-adv-x="242" 
d="M189 665v-397h-70v251q0 20 2 72q-23 -22 -52 -37.5t-59 -20.5v60q29 6 65.5 27.5t51.5 44.5h62z" />
    <glyph glyph-name="two.numr" horiz-adv-x="365" 
d="M39 316q66 46 92 67q72 57 97.5 89.5t25.5 66.5q0 33 -20 53t-57 20q-39 0 -61.5 -24.5t-24.5 -68.5l-63 22q4 60 45 94.5t107 34.5q70 0 108.5 -37t38.5 -90q0 -44 -35 -88.5t-110 -96.5l-52 -35v-1q36 3 64 3h142v-57h-297v48z" />
    <glyph glyph-name="three.numr" horiz-adv-x="362" 
d="M282.5 640.5q36.5 -29.5 36.5 -78.5q0 -42 -25 -67t-54 -27v-1q34 -1 61 -25.5t27 -66.5q0 -51 -42 -82t-108 -31q-123 0 -154 96l67 30q6 -35 27 -51.5t59 -16.5q35 0 56.5 17.5t21.5 47.5q0 56 -78 56h-24v50h21q35 0 53 15.5t18 44.5q0 30 -17.5 45.5t-50.5 15.5
q-31 0 -50.5 -15t-25.5 -45l-65 23q12 47 51 71t94 24q65 0 101.5 -29.5z" />
    <glyph glyph-name="four.numr" horiz-adv-x="358" 
d="M338 367h-71v-99h-59v99h-199v37l182 261h76v-248h71v-50zM208 417v114q0 39 3 76h-3q-18 -33 -32 -54l-99 -136h131z" />
    <glyph glyph-name="five.numr" horiz-adv-x="360" 
d="M295 488.5q36 -35.5 36 -89.5q0 -65 -42 -100.5t-109 -35.5q-57 0 -95 20t-59 65l63 36q16 -63 89 -63q38 0 61 21.5t23 55.5q0 74 -81 74q-61 0 -84 -39h-54l18 232h249v-58h-195l-8 -90q-1 -14 -5 -28h1q14 17 35.5 26t61.5 9q59 0 95 -35.5z" />
    <glyph glyph-name="six.numr" horiz-adv-x="376" 
d="M76.5 314.5q-42.5 52.5 -42.5 151.5q0 98 47.5 151t123.5 53q51 0 83.5 -20t49.5 -62l-58 -30q-17 55 -76 55q-50 0 -77 -41t-27 -100v-13h1q20 30 45 43t61 13q63 0 100.5 -34.5t37.5 -91.5q0 -59 -40 -93t-108 -34q-78 0 -120.5 52.5zM257.5 336.5q21.5 18.5 21.5 52.5
q0 32 -22 51.5t-59 19.5q-35 0 -58 -21.5t-23 -49.5q0 -32 22 -51.5t59 -19.5q38 0 59.5 18.5z" />
    <glyph glyph-name="seven.numr" horiz-adv-x="312" 
d="M306 665v-58q-72 -75 -103 -155.5t-31 -183.5h-70q0 198 137 339h-236v58h303z" />
    <glyph glyph-name="eight.numr" horiz-adv-x="385" 
d="M296.5 640q38.5 -29 38.5 -78q0 -32 -18 -55t-52 -34v-1q41 -11 63 -36t22 -61q0 -52 -42.5 -82.5t-115.5 -30.5q-72 0 -115 30.5t-43 82.5q0 36 22.5 61t62.5 36v1q-33 11 -51.5 34t-18.5 55q0 49 38.5 78t104.5 29t104.5 -29zM138 600.5q-20 -15.5 -20 -42.5t20 -43
t54 -16t54 16t20 43t-20 42.5t-54 15.5t-54 -15.5zM255.5 333.5q23.5 17.5 23.5 46.5q0 30 -23.5 47.5t-63.5 17.5q-39 0 -63 -17.5t-24 -47.5q0 -29 23.5 -46.5t63.5 -17.5t63.5 17.5z" />
    <glyph glyph-name="nine.numr" horiz-adv-x="381" 
d="M304 616.5q43 -53.5 43 -151.5t-43.5 -150.5t-121.5 -52.5q-114 0 -147 86l66 28q7 -29 26 -43.5t56 -14.5q51 0 74.5 38t23.5 92q0 14 -1 20h-1q-8 -20 -38.5 -36.5t-62.5 -16.5q-68 0 -106 33.5t-38 91.5q0 60 40 95t110 35q77 0 120 -53.5zM124.5 594
q-21.5 -19 -21.5 -53q0 -33 21.5 -52t59.5 -19q36 0 59.5 20.5t23.5 50.5q0 32 -23 52t-59 20q-39 0 -60.5 -19z" />
    <glyph glyph-name="uni2780" unicode="&#x2780;" horiz-adv-x="910" 
d="M259 6.5q-85 46.5 -131.5 130.5t-46.5 193t46.5 193t131.5 130.5t196 46.5t196 -46.5t131.5 -130.5t46.5 -193t-46.5 -193t-131.5 -130.5t-196 -46.5t-196 46.5zM615.5 59q69.5 39 108.5 109.5t39 161.5t-39 161.5t-108.5 109.5t-160.5 39t-160.5 -39t-108.5 -109.5
t-39 -161.5t39 -161.5t108.5 -109.5t160.5 -39t160.5 39zM511 533v-397h-70v251q0 20 2 72q-23 -22 -52 -37.5t-59 -20.5v60q29 6 65.5 27.5t51.5 44.5h62z" />
    <glyph glyph-name="uni2781" unicode="&#x2781;" horiz-adv-x="910" 
d="M259 6.5q-85 46.5 -131.5 130.5t-46.5 193t46.5 193t131.5 130.5t196 46.5t196 -46.5t131.5 -130.5t46.5 -193t-46.5 -193t-131.5 -130.5t-196 -46.5t-196 46.5zM615.5 59q69.5 39 108.5 109.5t39 161.5t-39 161.5t-108.5 109.5t-160.5 39t-160.5 -39t-108.5 -109.5
t-39 -161.5t39 -161.5t108.5 -109.5t160.5 -39t160.5 39zM311 194q66 46 92 67q72 57 97.5 89.5t25.5 66.5q0 33 -20 53t-57 20q-39 0 -61.5 -24.5t-24.5 -68.5l-63 22q4 60 45 94.5t107 34.5q70 0 108.5 -37t38.5 -90q0 -44 -35 -88.5t-110 -96.5l-52 -35v-1q36 3 64 3h142
v-57h-297v48z" />
    <glyph glyph-name="uni2782" unicode="&#x2782;" horiz-adv-x="910" 
d="M259 6.5q-85 46.5 -131.5 130.5t-46.5 193t46.5 193t131.5 130.5t196 46.5t196 -46.5t131.5 -130.5t46.5 -193t-46.5 -193t-131.5 -130.5t-196 -46.5t-196 46.5zM615.5 59q69.5 39 108.5 109.5t39 161.5t-39 161.5t-108.5 109.5t-160.5 39t-160.5 -39t-108.5 -109.5
t-39 -161.5t39 -161.5t108.5 -109.5t160.5 -39t160.5 39zM563.5 505.5q36.5 -29.5 36.5 -78.5q0 -42 -25 -67t-54 -27v-1q34 -1 61 -25.5t27 -66.5q0 -51 -42 -82t-108 -31q-123 0 -154 96l67 30q6 -35 27 -51.5t59 -16.5q35 0 56.5 17.5t21.5 47.5q0 56 -78 56h-24v50h21
q35 0 53 15.5t18 44.5q0 30 -17.5 45.5t-50.5 15.5q-31 0 -50.5 -15t-25.5 -45l-65 23q12 47 51 71t94 24q65 0 101.5 -29.5z" />
    <glyph glyph-name="uni2783" unicode="&#x2783;" horiz-adv-x="910" 
d="M259 6.5q-85 46.5 -131.5 130.5t-46.5 193t46.5 193t131.5 130.5t196 46.5t196 -46.5t131.5 -130.5t46.5 -193t-46.5 -193t-131.5 -130.5t-196 -46.5t-196 46.5zM615.5 59q69.5 39 108.5 109.5t39 161.5t-39 161.5t-108.5 109.5t-160.5 39t-160.5 -39t-108.5 -109.5
t-39 -161.5t39 -161.5t108.5 -109.5t160.5 -39t160.5 39zM595 235h-71v-99h-59v99h-199v37l182 261h76v-248h71v-50zM465 285v114q0 39 3 76h-3q-18 -33 -32 -54l-99 -136h131z" />
    <glyph glyph-name="uni2784" unicode="&#x2784;" horiz-adv-x="910" 
d="M259 6.5q-85 46.5 -131.5 130.5t-46.5 193t46.5 193t131.5 130.5t196 46.5t196 -46.5t131.5 -130.5t46.5 -193t-46.5 -193t-131.5 -130.5t-196 -46.5t-196 46.5zM615.5 59q69.5 39 108.5 109.5t39 161.5t-39 161.5t-108.5 109.5t-160.5 39t-160.5 -39t-108.5 -109.5
t-39 -161.5t39 -161.5t108.5 -109.5t160.5 -39t160.5 39zM570 347.5q36 -35.5 36 -89.5q0 -65 -42 -100.5t-109 -35.5q-57 0 -95 20t-59 65l63 36q16 -63 89 -63q38 0 61 21.5t23 55.5q0 74 -81 74q-61 0 -84 -39h-54l18 232h249v-58h-195l-8 -90q-1 -14 -5 -28h1
q14 17 35.5 26t61.5 9q59 0 95 -35.5z" />
    <glyph glyph-name="uni2785" unicode="&#x2785;" horiz-adv-x="910" 
d="M259 6.5q-85 46.5 -131.5 130.5t-46.5 193t46.5 193t131.5 130.5t196 46.5t196 -46.5t131.5 -130.5t46.5 -193t-46.5 -193t-131.5 -130.5t-196 -46.5t-196 46.5zM615.5 59q69.5 39 108.5 109.5t39 161.5t-39 161.5t-108.5 109.5t-160.5 39t-160.5 -39t-108.5 -109.5
t-39 -161.5t39 -161.5t108.5 -109.5t160.5 -39t160.5 39zM331.5 179.5q-42.5 52.5 -42.5 151.5q0 98 47.5 151t123.5 53q51 0 83.5 -20t49.5 -62l-58 -30q-17 55 -76 55q-50 0 -77 -41t-27 -100v-13h1q20 30 45 43t61 13q63 0 100.5 -34.5t37.5 -91.5q0 -59 -40 -93
t-108 -34q-78 0 -120.5 52.5zM512.5 201.5q21.5 18.5 21.5 52.5q0 32 -22 51.5t-59 19.5q-35 0 -58 -21.5t-23 -49.5q0 -32 22 -51.5t59 -19.5q38 0 59.5 18.5z" />
    <glyph glyph-name="uni2786" unicode="&#x2786;" horiz-adv-x="910" 
d="M259 6.5q-85 46.5 -131.5 130.5t-46.5 193t46.5 193t131.5 130.5t196 46.5t196 -46.5t131.5 -130.5t46.5 -193t-46.5 -193t-131.5 -130.5t-196 -46.5t-196 46.5zM615.5 59q69.5 39 108.5 109.5t39 161.5t-39 161.5t-108.5 109.5t-160.5 39t-160.5 -39t-108.5 -109.5
t-39 -161.5t39 -161.5t108.5 -109.5t160.5 -39t160.5 39zM615 517v-58q-72 -75 -103 -155.5t-31 -183.5h-70q0 198 137 339h-236v58h303z" />
    <glyph glyph-name="uni2787" unicode="&#x2787;" horiz-adv-x="910" 
d="M259 6.5q-85 46.5 -131.5 130.5t-46.5 193t46.5 193t131.5 130.5t196 46.5t196 -46.5t131.5 -130.5t46.5 -193t-46.5 -193t-131.5 -130.5t-196 -46.5t-196 46.5zM615.5 59q69.5 39 108.5 109.5t39 161.5t-39 161.5t-108.5 109.5t-160.5 39t-160.5 -39t-108.5 -109.5
t-39 -161.5t39 -161.5t108.5 -109.5t160.5 -39t160.5 39zM559.5 505q38.5 -29 38.5 -78q0 -32 -18 -55t-52 -34v-1q41 -11 63 -36t22 -61q0 -52 -42.5 -82.5t-115.5 -30.5q-72 0 -115 30.5t-43 82.5q0 36 22.5 61t62.5 36v1q-33 11 -51.5 34t-18.5 55q0 49 38.5 78t104.5 29
t104.5 -29zM401 465.5q-20 -15.5 -20 -42.5t20 -43t54 -16t54 16t20 43t-20 42.5t-54 15.5t-54 -15.5zM518.5 198.5q23.5 17.5 23.5 46.5q0 30 -23.5 47.5t-63.5 17.5q-39 0 -63 -17.5t-24 -47.5q0 -29 23.5 -46.5t63.5 -17.5t63.5 17.5z" />
    <glyph glyph-name="uni2788" unicode="&#x2788;" horiz-adv-x="910" 
d="M259 6.5q-85 46.5 -131.5 130.5t-46.5 193t46.5 193t131.5 130.5t196 46.5t196 -46.5t131.5 -130.5t46.5 -193t-46.5 -193t-131.5 -130.5t-196 -46.5t-196 46.5zM615.5 59q69.5 39 108.5 109.5t39 161.5t-39 161.5t-108.5 109.5t-160.5 39t-160.5 -39t-108.5 -109.5
t-39 -161.5t39 -161.5t108.5 -109.5t160.5 -39t160.5 39zM577 481.5q43 -53.5 43 -151.5t-43.5 -150.5t-121.5 -52.5q-114 0 -147 86l66 28q7 -29 26 -43.5t56 -14.5q51 0 74.5 38t23.5 92q0 14 -1 20h-1q-8 -20 -38.5 -36.5t-62.5 -16.5q-68 0 -106 33.5t-38 91.5
q0 60 40 95t110 35q77 0 120 -53.5zM397.5 459q-21.5 -19 -21.5 -53q0 -33 21.5 -52t59.5 -19q36 0 59.5 20.5t23.5 50.5q0 32 -23 52t-59 20q-39 0 -60.5 -19z" />
    <glyph glyph-name="uni2080" unicode="&#x2080;" horiz-adv-x="396" 
d="M75.5 -143.5q-41.5 51.5 -41.5 152.5t41.5 152.5t122.5 51.5t122.5 -51.5t41.5 -152.5t-41.5 -152.5t-122.5 -51.5t-122.5 51.5zM292 9q0 147 -94 147t-94 -147t94 -147t94 147z" />
    <glyph glyph-name="uni2081" unicode="&#x2081;" horiz-adv-x="242" 
d="M189 208v-397h-70v251q0 20 2 72q-23 -22 -52 -37.5t-59 -20.5v60q29 6 65.5 27.5t51.5 44.5h62z" />
    <glyph glyph-name="uni2082" unicode="&#x2082;" horiz-adv-x="365" 
d="M39 -141q66 46 92 67q72 57 97.5 89.5t25.5 66.5q0 33 -20 53t-57 20q-39 0 -61.5 -24.5t-24.5 -68.5l-63 22q4 60 45 94.5t107 34.5q70 0 108.5 -37t38.5 -90q0 -44 -35 -88.5t-110 -96.5l-52 -35v-1q36 3 64 3h142v-57h-297v48z" />
    <glyph glyph-name="uni2083" unicode="&#x2083;" horiz-adv-x="362" 
d="M282.5 183.5q36.5 -29.5 36.5 -78.5q0 -42 -25 -67t-54 -27v-1q34 -1 61 -25.5t27 -66.5q0 -51 -42 -82t-108 -31q-123 0 -154 96l67 30q6 -35 27 -51.5t59 -16.5q35 0 56.5 17.5t21.5 47.5q0 56 -78 56h-24v50h21q35 0 53 15.5t18 44.5q0 30 -17.5 45.5t-50.5 15.5
q-31 0 -50.5 -15t-25.5 -45l-65 23q12 47 51 71t94 24q65 0 101.5 -29.5z" />
    <glyph glyph-name="uni2084" unicode="&#x2084;" horiz-adv-x="358" 
d="M338 -90h-71v-99h-59v99h-199v37l182 261h76v-248h71v-50zM208 -40v114q0 39 3 76h-3q-18 -33 -32 -54l-99 -136h131z" />
    <glyph glyph-name="uni2085" unicode="&#x2085;" horiz-adv-x="360" 
d="M295 31.5q36 -35.5 36 -89.5q0 -65 -42 -100.5t-109 -35.5q-57 0 -95 20t-59 65l63 36q16 -63 89 -63q38 0 61 21.5t23 55.5q0 74 -81 74q-61 0 -84 -39h-54l18 232h249v-58h-195l-8 -90q-1 -14 -5 -28h1q14 17 35.5 26t61.5 9q59 0 95 -35.5z" />
    <glyph glyph-name="uni2086" unicode="&#x2086;" horiz-adv-x="376" 
d="M76.5 -142.5q-42.5 52.5 -42.5 151.5q0 98 47.5 151t123.5 53q51 0 83.5 -20t49.5 -62l-58 -30q-17 55 -76 55q-50 0 -77 -41t-27 -100v-13h1q20 30 45 43t61 13q63 0 100.5 -34.5t37.5 -91.5q0 -59 -40 -93t-108 -34q-78 0 -120.5 52.5zM257.5 -120.5
q21.5 18.5 21.5 52.5q0 32 -22 51.5t-59 19.5q-35 0 -58 -21.5t-23 -49.5q0 -32 22 -51.5t59 -19.5q38 0 59.5 18.5z" />
    <glyph glyph-name="uni2087" unicode="&#x2087;" horiz-adv-x="312" 
d="M306 208v-58q-72 -75 -103 -155.5t-31 -183.5h-70q0 198 137 339h-236v58h303z" />
    <glyph glyph-name="uni2088" unicode="&#x2088;" horiz-adv-x="385" 
d="M296.5 183q38.5 -29 38.5 -78q0 -32 -18 -55t-52 -34v-1q41 -11 63 -36t22 -61q0 -52 -42.5 -82.5t-115.5 -30.5q-72 0 -115 30.5t-43 82.5q0 36 22.5 61t62.5 36v1q-33 11 -51.5 34t-18.5 55q0 49 38.5 78t104.5 29t104.5 -29zM138 143.5q-20 -15.5 -20 -42.5t20 -43
t54 -16t54 16t20 43t-20 42.5t-54 15.5t-54 -15.5zM255.5 -123.5q23.5 17.5 23.5 46.5q0 30 -23.5 47.5t-63.5 17.5q-39 0 -63 -17.5t-24 -47.5q0 -29 23.5 -46.5t63.5 -17.5t63.5 17.5z" />
    <glyph glyph-name="uni2089" unicode="&#x2089;" horiz-adv-x="381" 
d="M304 159.5q43 -53.5 43 -151.5t-43.5 -150.5t-121.5 -52.5q-114 0 -147 86l66 28q7 -29 26 -43.5t56 -14.5q51 0 74.5 38t23.5 92q0 14 -1 20h-1q-8 -20 -38.5 -36.5t-62.5 -16.5q-68 0 -106 33.5t-38 91.5q0 60 40 95t110 35q77 0 120 -53.5zM124.5 137
q-21.5 -19 -21.5 -53q0 -33 21.5 -52t59.5 -19q36 0 59.5 20.5t23.5 50.5q0 32 -23 52t-59 20q-39 0 -60.5 -19z" />
    <glyph glyph-name="uni2070" unicode="&#x2070;" horiz-adv-x="396" 
d="M75.5 378.5q-41.5 51.5 -41.5 152.5t41.5 152.5t122.5 51.5t122.5 -51.5t41.5 -152.5t-41.5 -152.5t-122.5 -51.5t-122.5 51.5zM292 531q0 147 -94 147t-94 -147t94 -147t94 147z" />
    <glyph glyph-name="uni00B9" unicode="&#xb9;" horiz-adv-x="242" 
d="M189 730v-397h-70v251q0 20 2 72q-23 -22 -52 -37.5t-59 -20.5v60q29 6 65.5 27.5t51.5 44.5h62z" />
    <glyph glyph-name="uni00B2" unicode="&#xb2;" horiz-adv-x="365" 
d="M39 381q66 46 92 67q72 57 97.5 89.5t25.5 66.5q0 33 -20 53t-57 20q-39 0 -61.5 -24.5t-24.5 -68.5l-63 22q4 60 45 94.5t107 34.5q70 0 108.5 -37t38.5 -90q0 -44 -35 -88.5t-110 -96.5l-52 -35v-1q36 3 64 3h142v-57h-297v48z" />
    <glyph glyph-name="uni00B3" unicode="&#xb3;" horiz-adv-x="362" 
d="M282.5 705.5q36.5 -29.5 36.5 -78.5q0 -42 -25 -67t-54 -27v-1q34 -1 61 -25.5t27 -66.5q0 -51 -42 -82t-108 -31q-123 0 -154 96l67 30q6 -35 27 -51.5t59 -16.5q35 0 56.5 17.5t21.5 47.5q0 56 -78 56h-24v50h21q35 0 53 15.5t18 44.5q0 30 -17.5 45.5t-50.5 15.5
q-31 0 -50.5 -15t-25.5 -45l-65 23q12 47 51 71t94 24q65 0 101.5 -29.5z" />
    <glyph glyph-name="uni2074" unicode="&#x2074;" horiz-adv-x="358" 
d="M338 432h-71v-99h-59v99h-199v37l182 261h76v-248h71v-50zM208 482v114q0 39 3 76h-3q-18 -33 -32 -54l-99 -136h131z" />
    <glyph glyph-name="uni2075" unicode="&#x2075;" horiz-adv-x="360" 
d="M295 553.5q36 -35.5 36 -89.5q0 -65 -42 -100.5t-109 -35.5q-57 0 -95 20t-59 65l63 36q16 -63 89 -63q38 0 61 21.5t23 55.5q0 74 -81 74q-61 0 -84 -39h-54l18 232h249v-58h-195l-8 -90q-1 -14 -5 -28h1q14 17 35.5 26t61.5 9q59 0 95 -35.5z" />
    <glyph glyph-name="uni2076" unicode="&#x2076;" horiz-adv-x="376" 
d="M76.5 379.5q-42.5 52.5 -42.5 151.5q0 98 47.5 151t123.5 53q51 0 83.5 -20t49.5 -62l-58 -30q-17 55 -76 55q-50 0 -77 -41t-27 -100v-13h1q20 30 45 43t61 13q63 0 100.5 -34.5t37.5 -91.5q0 -59 -40 -93t-108 -34q-78 0 -120.5 52.5zM257.5 401.5q21.5 18.5 21.5 52.5
q0 32 -22 51.5t-59 19.5q-35 0 -58 -21.5t-23 -49.5q0 -32 22 -51.5t59 -19.5q38 0 59.5 18.5z" />
    <glyph glyph-name="uni2077" unicode="&#x2077;" horiz-adv-x="312" 
d="M306 730v-58q-72 -75 -103 -155.5t-31 -183.5h-70q0 198 137 339h-236v58h303z" />
    <glyph glyph-name="uni2078" unicode="&#x2078;" horiz-adv-x="385" 
d="M296.5 705q38.5 -29 38.5 -78q0 -32 -18 -55t-52 -34v-1q41 -11 63 -36t22 -61q0 -52 -42.5 -82.5t-115.5 -30.5q-72 0 -115 30.5t-43 82.5q0 36 22.5 61t62.5 36v1q-33 11 -51.5 34t-18.5 55q0 49 38.5 78t104.5 29t104.5 -29zM138 665.5q-20 -15.5 -20 -42.5t20 -43
t54 -16t54 16t20 43t-20 42.5t-54 15.5t-54 -15.5zM255.5 398.5q23.5 17.5 23.5 46.5q0 30 -23.5 47.5t-63.5 17.5q-39 0 -63 -17.5t-24 -47.5q0 -29 23.5 -46.5t63.5 -17.5t63.5 17.5z" />
    <glyph glyph-name="uni2079" unicode="&#x2079;" horiz-adv-x="381" 
d="M304 681.5q43 -53.5 43 -151.5t-43.5 -150.5t-121.5 -52.5q-114 0 -147 86l66 28q7 -29 26 -43.5t56 -14.5q51 0 74.5 38t23.5 92q0 14 -1 20h-1q-8 -20 -38.5 -36.5t-62.5 -16.5q-68 0 -106 33.5t-38 91.5q0 60 40 95t110 35q77 0 120 -53.5zM124.5 659
q-21.5 -19 -21.5 -53q0 -33 21.5 -52t59.5 -19q36 0 59.5 20.5t23.5 50.5q0 32 -23 52t-59 20q-39 0 -60.5 -19z" />
    <glyph glyph-name="zero.sc" horiz-adv-x="570" 
d="M457.5 496q59.5 -74 59.5 -216t-59.5 -216t-172.5 -74t-172.5 74t-59.5 216t59.5 216t172.5 74t172.5 -74zM171.5 445q-38.5 -56 -38.5 -165t38.5 -165t113.5 -56t113.5 56t38.5 165t-38.5 165t-113.5 56t-113.5 -56z" />
    <glyph glyph-name="one.sc" horiz-adv-x="368" 
d="M276 560v-560h-80v385q0 22 2 78q-61 -56 -163 -82l-19 70q24 3 62.5 20t74.5 41t53 48h70z" />
    <glyph glyph-name="two.sc" horiz-adv-x="515" 
d="M362.5 546q45.5 -22 69 -60t23.5 -85q0 -93 -73 -171.5t-206 -164.5v-1q47 5 87 5h205v-69h-410v65q112 71 180 125t102.5 102.5t34.5 97.5t-32 79t-93 30q-58 0 -93.5 -37t-35.5 -94q0 -13 1 -19l-69 35q-1 81 52 132.5t148 51.5q64 0 109.5 -22z" />
    <glyph glyph-name="three.sc" horiz-adv-x="524" 
d="M399.5 526q49.5 -42 49.5 -106q0 -39 -15.5 -70t-41.5 -48.5t-54 -18.5v-1q55 -1 89.5 -32.5t34.5 -86.5q0 -78 -57 -124.5t-151 -46.5q-157 0 -208 134l76 37q13 -51 44 -76.5t91 -25.5q59 0 92 27t33 73t-31.5 67t-97.5 21h-28v65h26q58 0 88 23.5t30 68.5t-28 69
t-80 24q-50 0 -80.5 -22.5t-40.5 -63.5l-74 30q20 59 72.5 92t123.5 33q88 0 137.5 -42z" />
    <glyph glyph-name="four.sc" horiz-adv-x="545" 
d="M332 141h-291v53l266 366h102v-353h104v-66h-104v-141h-77v141zM332 207v285h-3q-20 -35 -51 -79l-151 -206h205z" />
    <glyph glyph-name="five.sc" horiz-adv-x="514" 
d="M408 309.5q51 -49.5 51 -129.5q0 -89 -55.5 -138.5t-149.5 -49.5q-81 0 -132 31t-78 94l74 40q14 -47 45 -71.5t88 -24.5q59 0 93.5 30.5t34.5 82.5q0 56 -32.5 86.5t-91.5 30.5q-40 0 -75 -13.5t-54 -38.5l-67 4l36 317h337v-69h-273l-18 -155q-1 -16 -4 -26h1
q24 24 54 36.5t81 12.5q84 0 135 -49.5z" />
    <glyph glyph-name="six.sc" horiz-adv-x="531" 
d="M110 66.5q-60 74.5 -60 213.5q0 92 30.5 157t83.5 98t120 33q71 0 116 -28t72 -89l-70 -34q-28 82 -121 82q-47 0 -82.5 -30t-55 -82t-19.5 -116v-18h4q12 44 59.5 71.5t98.5 27.5q90 0 143.5 -49t53.5 -131t-53.5 -131t-143.5 -49q-116 0 -176 74.5zM370.5 90.5
q32.5 29.5 32.5 81.5t-32.5 81.5t-91.5 29.5q-56 0 -91 -31t-35 -80q0 -50 34.5 -80.5t91.5 -30.5q59 0 91.5 29.5z" />
    <glyph glyph-name="seven.sc" horiz-adv-x="511" 
d="M479 560v-67q-109 -107 -159 -227.5t-52 -265.5h-80q2 137 54 263t153 228h-357v69h441z" />
    <glyph glyph-name="eight.sc" horiz-adv-x="556" 
d="M119.5 35q-59.5 43 -59.5 116q0 51 30.5 87.5t84.5 53.5v1q-45 16 -70 49t-25 77q0 69 53.5 108.5t144.5 39.5t144.5 -39.5t53.5 -108.5q0 -44 -25 -77t-70 -49v-1q54 -17 84.5 -53.5t30.5 -87.5q0 -73 -59.5 -116t-158.5 -43t-158.5 43zM364 349q32 24 32 64
q0 41 -32 64t-86 23t-86 -23t-32 -64q0 -40 32 -64t86 -24t86 24zM379 85.5q37 26.5 37 72.5t-37.5 73t-100.5 27t-100.5 -27t-37.5 -73t37 -72.5t101 -26.5t101 26.5z" />
    <glyph glyph-name="nine.sc" horiz-adv-x="535" 
d="M126.5 23q-50.5 31 -75.5 93l77 37q11 -45 40 -68.5t88 -23.5q84 0 120.5 59.5t36.5 166.5v19h-4q-12 -49 -57 -74.5t-93 -25.5q-97 0 -152.5 48.5t-55.5 132.5t55.5 132.5t152.5 48.5q107 0 166.5 -78t59.5 -211q0 -140 -59 -213.5t-170 -73.5q-79 0 -129.5 31z
M348 306.5q35 31.5 35 79.5q0 50 -34.5 81.5t-90.5 31.5q-59 0 -93 -30t-34 -82t34 -82t93 -30q55 0 90 31.5z" />
    <glyph glyph-name="asterisk" unicode="*" horiz-adv-x="572" 
d="M380 422l70 -98l-52 -38l-72 97l-40 73l-40 -73l-72 -97l-52 38l70 98l57 61l-82 16l-114 38l19 61l116 -36l75 -35l-10 82v121h66v-121l-10 -82l75 35l116 36l19 -61l-114 -38l-82 -16z" />
    <glyph glyph-name="backslash" unicode="\" horiz-adv-x="438" 
d="M104 730l306 -800h-75l-306 800h75z" />
    <glyph glyph-name="periodcentered" unicode="&#xb7;" horiz-adv-x="226" 
d="M160 402q18 -18 18 -47t-18 -47t-47 -18t-47 18t-18 47t18 47t47 18t47 -18z" />
    <glyph glyph-name="bullet" unicode="&#x2022;" horiz-adv-x="430" 
d="M305 424q35 -34 35 -87t-35 -87t-90 -34q-54 0 -89.5 34.5t-35.5 86.5t35.5 86.5t89.5 34.5q55 0 90 -34z" />
    <glyph glyph-name="colon" unicode=":" horiz-adv-x="296" 
d="M195 492q18 -18 18 -47t-18 -47t-47 -18t-47 18t-18 47t18 47t47 18t47 -18zM195 102q18 -18 18 -47t-18 -47t-47 -18t-47 18t-18 47t18 47t47 18t47 -18z" />
    <glyph glyph-name="comma" unicode="," horiz-adv-x="266" 
d="M188 93q20 -27 20 -70q0 -53 -27 -98t-82 -71l-42 39q39 13 65 41t33 61l-4 2q-9 -7 -28 -7q-21 0 -38 16.5t-17 46.5q0 27 19 47t46 20q35 0 55 -27z" />
    <glyph glyph-name="ellipsis" unicode="&#x2026;" horiz-adv-x="860" 
d="M767 102q18 -18 18 -47t-18 -47t-47 -18t-47 18t-18 47t18 47t47 18t47 -18zM477 102q18 -18 18 -47t-18 -47t-47 -18t-47 18t-18 47t18 47t47 18t47 -18zM187 102q18 -18 18 -47t-18 -47t-47 -18t-47 18t-18 47t18 47t47 18t47 -18z" />
    <glyph glyph-name="exclam" unicode="!" horiz-adv-x="272" 
d="M178 374l-12 -166h-60l-12 166v286h84v-286zM183 102q18 -18 18 -47t-18 -47t-47 -18t-47 18t-18 47t18 47t47 18t47 -18z" />
    <glyph glyph-name="exclamdown" unicode="&#xa1;" horiz-adv-x="264" 
d="M85 398q-18 18 -18 47t18 47t47 18t47 -18t18 -47t-18 -47t-47 -18t-47 18zM90 126l12 166h60l12 -166v-286h-84v286z" />
    <glyph glyph-name="numbersign" unicode="#" horiz-adv-x="640" 
d="M485 417l-29 -169h119v-61h-129l-31 -187h-68l31 187h-166l-31 -187h-68l31 187h-124v61h134l29 169h-119v61h129l30 182h68l-30 -182h166l30 182h68l-30 -182h124v-61h-134zM417 417h-166l-29 -169h166z" />
    <glyph glyph-name="period" unicode="." horiz-adv-x="266" 
d="M180 102q18 -18 18 -47t-18 -47t-47 -18t-47 18t-18 47t18 47t47 18t47 -18z" />
    <glyph glyph-name="question" unicode="?" horiz-adv-x="542" 
d="M431 624q61 -46 61 -124q0 -83 -52 -129.5t-136 -55.5v-107h-83v150q101 15 144 45t43 87q0 49 -36 77t-105 28q-66 0 -107.5 -36.5t-49.5 -99.5l-71 41q17 78 79 124t155 46q97 0 158 -46zM308 102q18 -18 18 -47t-18 -47t-47 -18t-47 18t-18 47t18 47t47 18t47 -18z
" />
    <glyph glyph-name="questiondown" unicode="&#xbf;" horiz-adv-x="537" 
d="M231 398q-18 18 -18 47t18 47t47 18t47 -18t18 -47t-18 -47t-47 -18t-47 18zM108 -124q-61 46 -61 124q0 83 52 129.5t136 55.5v107h83v-150q-101 -15 -144 -45t-43 -87q0 -49 36 -77t105 -28q66 0 107.5 36.5t49.5 99.5l71 -41q-17 -78 -79 -124t-155 -46q-97 0 -158 46
z" />
    <glyph glyph-name="quotedbl" unicode="&#x22;" horiz-adv-x="403" 
d="M313 443h-62v247h88zM144 443h-62v247h88z" />
    <glyph glyph-name="quotesingle" unicode="'" horiz-adv-x="234" 
d="M144 443h-62v247h88z" />
    <glyph glyph-name="semicolon" unicode=";" horiz-adv-x="296" 
d="M107 398q-18 18 -18 47t18 47t47 18t47 -18t18 -47t-18 -47t-47 -18t-47 18zM205 93q20 -27 20 -70q0 -53 -27 -98t-82 -71l-42 39q39 13 65 41t33 61l-4 2q-9 -7 -28 -7q-21 0 -38 16.5t-17 46.5q0 27 19 47t46 20q35 0 55 -27z" />
    <glyph glyph-name="slash" unicode="/" horiz-adv-x="438" 
d="M103 -70h-75l306 800h75z" />
    <glyph glyph-name="underscore" unicode="_" horiz-adv-x="539" 
d="M539 -172h-539v75h539v-75z" />
    <glyph glyph-name="periodcentered.case" horiz-adv-x="226" 
d="M160 389q18 -18 18 -47t-18 -47t-47 -18t-47 18t-18 47t18 47t47 18t47 -18z" />
    <glyph glyph-name="exclamdown.case" horiz-adv-x="264" 
d="M85 558q-18 18 -18 47t18 47t47 18t47 -18t18 -47t-18 -47t-47 -18t-47 18zM90 286l12 166h60l12 -166v-286h-84v286z" />
    <glyph glyph-name="periodcentered.loclCAT.case" horiz-adv-x="20" 
d="M-22 389q18 -18 18 -47t-18 -47t-47 -18t-47 18t-18 47t18 47t47 18t47 -18z" />
    <glyph glyph-name="questiondown.case" horiz-adv-x="537" 
d="M231 558q-18 18 -18 47t18 47t47 18t47 -18t18 -47t-18 -47t-47 -18t-47 18zM108 36q-61 46 -61 124q0 83 52 129.5t136 55.5v107h83v-150q-101 -15 -144 -45t-43 -87q0 -49 36 -77t105 -28q66 0 107.5 36.5t49.5 99.5l71 -41q-17 -78 -79 -124t-155 -46q-97 0 -158 46z
" />
    <glyph glyph-name="periodcentered.loclCAT" horiz-adv-x="101" 
d="M75 402q18 -18 18 -47t-18 -47t-47 -18t-47 18t-18 47t18 47t47 18t47 -18z" />
    <glyph glyph-name="periodcentered.loclCAT.ss02" horiz-adv-x="226" 
d="M160 402q18 -18 18 -47t-18 -47t-47 -18t-47 18t-18 47t18 47t47 18t47 -18z" />
    <glyph glyph-name="colon.tf" horiz-adv-x="302" 
d="M198 492q18 -18 18 -47t-18 -47t-47 -18t-47 18t-18 47t18 47t47 18t47 -18zM198 102q18 -18 18 -47t-18 -47t-47 -18t-47 18t-18 47t18 47t47 18t47 -18z" />
    <glyph glyph-name="comma.tf" horiz-adv-x="302" 
d="M207 93q20 -27 20 -70q0 -53 -27 -98t-82 -71l-42 39q39 13 65 41t33 61l-4 2q-9 -7 -28 -7q-21 0 -38 16.5t-17 46.5q0 27 19 47t46 20q35 0 55 -27z" />
    <glyph glyph-name="numbersign.tf" 
d="M468 417l-26 -169h93v-61h-102l-28 -187h-70l28 187h-154l-28 -187h-70l28 187h-120v61h129l26 169h-105v61h114l27 182h70l-27 -182h154l27 182h70l-27 -182h108v-61h-117zM398 417h-154l-26 -169h154z" />
    <glyph glyph-name="period.tf" horiz-adv-x="302" 
d="M198 102q18 -18 18 -47t-18 -47t-47 -18t-47 18t-18 47t18 47t47 18t47 -18z" />
    <glyph glyph-name="semicolon.tf" horiz-adv-x="302" 
d="M109 398q-18 18 -18 47t18 47t47 18t47 -18t18 -47t-18 -47t-47 -18t-47 18zM207 93q20 -27 20 -70q0 -53 -27 -98t-82 -71l-42 39q39 13 65 41t33 61l-4 2q-9 -7 -28 -7q-21 0 -38 16.5t-17 46.5q0 27 19 47t46 20q35 0 55 -27z" />
    <glyph glyph-name="uni208D" unicode="&#x208d;" horiz-adv-x="226" 
d="M233 264q-54 -54 -77 -113.5t-23 -141.5t23 -141.5t77 -113.5l-40 -35q-62 54 -94 128t-32 162t32 162t94 128z" />
    <glyph glyph-name="uni208E" unicode="&#x208e;" horiz-adv-x="226" 
d="M127 171q32 -74 32 -162t-32 -162t-94 -128l-40 35q54 54 77 113.5t23 141.5t-23 141.5t-77 113.5l40 35q62 -54 94 -128z" />
    <glyph glyph-name="braceleft" unicode="{" horiz-adv-x="351" 
d="M237.5 -111q22.5 -13 72.5 -13l-13 -65q-84 0 -120.5 31t-36.5 93v207q0 56 -25.5 80t-86.5 24v70q61 0 86.5 24t25.5 80v207q0 62 36.5 93t120.5 31l13 -65q-50 0 -72.5 -13t-22.5 -40v-220q0 -107 -114 -132q114 -25 114 -132v-220q0 -27 22.5 -40z" />
    <glyph glyph-name="braceright" unicode="}" horiz-adv-x="351" 
d="M236.5 340q25.5 -24 86.5 -24v-70q-61 0 -86.5 -24t-25.5 -80v-207q0 -62 -36.5 -93t-120.5 -31l-13 65q50 0 72.5 13t22.5 40v220q0 107 114 132q-114 25 -114 132v220q0 27 -22.5 40t-72.5 13l13 65q84 0 120.5 -31t36.5 -93v-207q0 -56 25.5 -80z" />
    <glyph glyph-name="bracketleft" unicode="[" horiz-adv-x="348" 
d="M162 660v-758h153v-70h-228v898h228v-70h-153z" />
    <glyph glyph-name="bracketright" unicode="]" horiz-adv-x="348" 
d="M261 -168h-228v70h153v758h-153v70h228v-898z" />
    <glyph glyph-name="parenleft" unicode="(" horiz-adv-x="350" 
d="M321 705q-98 -89 -138 -187t-40 -237t40 -237t138 -187l-46 -46q-106 92 -160 210.5t-54 259.5t54 259.5t160 210.5z" />
    <glyph glyph-name="parenright" unicode=")" horiz-adv-x="350" 
d="M235 540.5q54 -118.5 54 -259.5t-54 -259.5t-160 -210.5l-46 46q98 89 138 187t40 237t-40 237t-138 187l46 46q106 -92 160 -210.5z" />
    <glyph glyph-name="uni207D" unicode="&#x207d;" horiz-adv-x="226" 
d="M233 786q-54 -54 -77 -113.5t-23 -141.5t23 -141.5t77 -113.5l-40 -35q-62 54 -94 128t-32 162t32 162t94 128z" />
    <glyph glyph-name="uni207E" unicode="&#x207e;" horiz-adv-x="226" 
d="M127 693q32 -74 32 -162t-32 -162t-94 -128l-40 35q54 54 77 113.5t23 141.5t-23 141.5t-77 113.5l40 35q62 -54 94 -128z" />
    <glyph glyph-name="braceleft.case" horiz-adv-x="351" 
d="M237.5 -40q22.5 -13 72.5 -13l-13 -65q-84 0 -120.5 31t-36.5 93v183q0 56 -25.5 80t-86.5 24v70q61 0 86.5 24t25.5 80v182q0 62 36.5 93t120.5 31l13 -65q-50 0 -72.5 -13t-22.5 -40v-195q0 -107 -114 -132q114 -25 114 -132v-196q0 -27 22.5 -40z" />
    <glyph glyph-name="braceright.case" horiz-adv-x="351" 
d="M236.5 387q25.5 -24 86.5 -24v-70q-61 0 -86.5 -24t-25.5 -80v-183q0 -62 -36.5 -93t-120.5 -31l-13 65q50 0 72.5 13t22.5 40v196q0 107 114 132q-114 25 -114 132v195q0 27 -22.5 40t-72.5 13l13 65q84 0 120.5 -31t36.5 -93v-182q0 -56 25.5 -80z" />
    <glyph glyph-name="bracketleft.case" horiz-adv-x="348" 
d="M162 682v-709h153v-70h-228v849h228v-70h-153z" />
    <glyph glyph-name="bracketright.case" horiz-adv-x="348" 
d="M261 -97h-228v70h153v709h-153v70h228v-849z" />
    <glyph glyph-name="parenleft.case" horiz-adv-x="350" 
d="M321 751q-98 -89 -138 -187t-40 -237t40 -237t138 -187l-46 -46q-106 92 -160 210.5t-54 259.5t54 259.5t160 210.5z" />
    <glyph glyph-name="parenright.case" horiz-adv-x="350" 
d="M235 586.5q54 -118.5 54 -259.5t-54 -259.5t-160 -210.5l-46 46q98 89 138 187t40 237t-40 237t-138 187l46 46q106 -92 160 -210.5z" />
    <glyph glyph-name="emdash" unicode="&#x2014;" horiz-adv-x="1014" 
d="M932 224h-850v75h850v-75z" />
    <glyph glyph-name="endash" unicode="&#x2013;" horiz-adv-x="664" 
d="M582 224h-500v75h500v-75z" />
    <glyph glyph-name="hyphen" unicode="-" horiz-adv-x="510" 
d="M420 220h-330v83h330v-83z" />
    <glyph glyph-name="uni00AD" unicode="&#xad;" horiz-adv-x="510" 
d="M420 220h-330v83h330v-83z" />
    <glyph glyph-name="emdash.case" horiz-adv-x="1014" 
d="M932 297h-850v75h850v-75z" />
    <glyph glyph-name="endash.case" horiz-adv-x="664" 
d="M582 297h-500v75h500v-75z" />
    <glyph glyph-name="hyphen.case" horiz-adv-x="510" 
d="M420 293h-330v83h330v-83z" />
    <glyph glyph-name="guillemotleft" unicode="&#xab;" horiz-adv-x="493" 
d="M136 265l128 -196h-87l-126 196l126 196h87zM313 265l128 -196h-87l-126 196l126 196h87z" />
    <glyph glyph-name="guillemotright" unicode="&#xbb;" horiz-adv-x="492" 
d="M138 461l126 -196l-126 -196h-87l128 196l-128 196h87zM315 461l126 -196l-126 -196h-87l128 196l-128 196h87z" />
    <glyph glyph-name="guilsinglleft" unicode="&#x2039;" horiz-adv-x="316" 
d="M136 265l128 -196h-87l-126 196l126 196h87z" />
    <glyph glyph-name="guilsinglright" unicode="&#x203a;" horiz-adv-x="316" 
d="M139 461l126 -196l-126 -196h-87l128 196l-128 196h87z" />
    <glyph glyph-name="quotedblbase" unicode="&#x201e;" horiz-adv-x="453" 
d="M186 93q20 -27 20 -70q0 -53 -27 -98t-82 -71l-42 39q39 13 65 41t33 61l-4 2q-9 -7 -28 -7q-21 0 -38 16.5t-17 46.5q0 27 19 47t46 20q35 0 55 -27zM374 93q20 -27 20 -70q0 -53 -27 -98t-82 -71l-42 39q39 13 65 41t33 61l-4 2q-9 -7 -28 -7q-21 0 -38 16.5t-17 46.5
q0 27 19 47t46 20q35 0 55 -27z" />
    <glyph glyph-name="quotedblleft" unicode="&#x201c;" horiz-adv-x="443" 
d="M73 461q-20 27 -20 70q0 53 27 98t82 71l42 -39q-39 -13 -65 -41t-33 -61l4 -2q9 7 28 7q21 0 38 -16.5t17 -46.5q0 -27 -19 -47t-46 -20q-35 0 -55 27zM261 461q-20 27 -20 70q0 53 27 98t82 71l42 -39q-39 -13 -65 -41t-33 -61l4 -2q9 7 28 7q21 0 38 -16.5t17 -46.5
q0 -27 -19 -47t-46 -20q-35 0 -55 27z" />
    <glyph glyph-name="quotedblright" unicode="&#x201d;" horiz-adv-x="443" 
d="M186 673q20 -27 20 -70q0 -53 -27 -98t-82 -71l-42 39q39 13 65 41t33 61l-4 2q-9 -7 -28 -7q-21 0 -38 16.5t-17 46.5q0 27 19 47t46 20q35 0 55 -27zM374 673q20 -27 20 -70q0 -53 -27 -98t-82 -71l-42 39q39 13 65 41t33 61l-4 2q-9 -7 -28 -7q-21 0 -38 16.5
t-17 46.5q0 27 19 47t46 20q35 0 55 -27z" />
    <glyph glyph-name="quoteleft" unicode="&#x2018;" horiz-adv-x="255" 
d="M73 461q-20 27 -20 70q0 53 27 98t82 71l42 -39q-39 -13 -65 -41t-33 -61l4 -2q9 7 28 7q21 0 38 -16.5t17 -46.5q0 -27 -19 -47t-46 -20q-35 0 -55 27z" />
    <glyph glyph-name="quoteright" unicode="&#x2019;" horiz-adv-x="255" 
d="M186 673q20 -27 20 -70q0 -53 -27 -98t-82 -71l-42 39q39 13 65 41t33 61l-4 2q-9 -7 -28 -7q-21 0 -38 16.5t-17 46.5q0 27 19 47t46 20q35 0 55 -27z" />
    <glyph glyph-name="quotesinglbase" unicode="&#x201a;" horiz-adv-x="265" 
d="M186 93q20 -27 20 -70q0 -53 -27 -98t-82 -71l-42 39q39 13 65 41t33 61l-4 2q-9 -7 -28 -7q-21 0 -38 16.5t-17 46.5q0 27 19 47t46 20q35 0 55 -27z" />
    <glyph glyph-name="guillemotleft.case" horiz-adv-x="503" 
d="M136 328l128 -196h-87l-126 196l126 196h87zM313 328l128 -196h-87l-126 196l126 196h87z" />
    <glyph glyph-name="guillemotright.case" horiz-adv-x="503" 
d="M138 524l126 -196l-126 -196h-87l128 196l-128 196h87zM315 524l126 -196l-126 -196h-87l128 196l-128 196h87z" />
    <glyph glyph-name="guilsinglleft.case" horiz-adv-x="326" 
d="M136 328l128 -196h-87l-126 196l126 196h87z" />
    <glyph glyph-name="guilsinglright.case" horiz-adv-x="326" 
d="M139 524l126 -196l-126 -196h-87l128 196l-128 196h87z" />
    <glyph glyph-name="periodcentered.sc" horiz-adv-x="226" 
d="M160 342q18 -18 18 -47t-18 -47t-47 -18t-47 18t-18 47t18 47t47 18t47 -18z" />
    <glyph glyph-name="exclam.sc" horiz-adv-x="246" 
d="M165 325l-10 -151h-63l-10 151v235h83v-235zM167.5 93.5q16.5 -16.5 16.5 -42.5q0 -27 -16.5 -43.5t-44.5 -16.5t-44.5 16.5t-16.5 43.5q0 26 16.5 42.5t44.5 16.5t44.5 -16.5z" />
    <glyph glyph-name="exclamdown.sc" horiz-adv-x="246" 
d="M78.5 466.5q-16.5 16.5 -16.5 42.5q0 27 16.5 43.5t44.5 16.5t44.5 -16.5t16.5 -43.5q0 -26 -16.5 -42.5t-44.5 -16.5t-44.5 16.5zM81 235l10 151h63l10 -151v-235h-83v235z" />
    <glyph glyph-name="periodcentered.loclCAT.sc" horiz-adv-x="0" 
d="M-65 342q18 -18 18 -47t-18 -47t-47 -18t-47 18t-18 47t18 47t47 18t47 -18z" />
    <glyph glyph-name="question.sc" horiz-adv-x="472" 
d="M384 529q55 -39 55 -107q0 -72 -46 -111.5t-124 -49.5v-78h-79v116q89 14 126.5 39.5t37.5 72.5q0 41 -30.5 64t-89.5 23q-58 0 -93.5 -29.5t-41.5 -81.5l-73 36q14 66 69.5 105.5t144.5 39.5t144 -39zM270.5 93.5q16.5 -16.5 16.5 -42.5q0 -27 -16.5 -43.5t-44.5 -16.5
t-44.5 16.5t-16.5 43.5q0 26 16.5 42.5t44.5 16.5t44.5 -16.5z" />
    <glyph glyph-name="questiondown.sc" horiz-adv-x="456" 
d="M195.5 466.5q-16.5 16.5 -16.5 42.5q0 27 16.5 43.5t44.5 16.5t44.5 -16.5t16.5 -43.5q0 -26 -16.5 -42.5t-44.5 -16.5t-44.5 16.5zM82 31q-55 39 -55 107q0 72 46 111.5t124 49.5v78h79v-116q-89 -14 -126.5 -39.5t-37.5 -72.5q0 -41 30.5 -64t89.5 -23q58 0 93.5 29.5
t41.5 81.5l73 -36q-14 -66 -69.5 -105.5t-144.5 -39.5t-144 39z" />
    <glyph glyph-name="quotedbl.sc" horiz-adv-x="406" 
d="M313 345h-62v247h88zM144 345h-62v247h88z" />
    <glyph glyph-name="quotedblleft.sc" horiz-adv-x="459" 
d="M83 365q-20 27 -20 70q0 53 27 98t82 71l42 -39q-39 -13 -65 -41t-33 -61l4 -2q9 7 28 7q21 0 38 -16.5t17 -46.5q0 -27 -19 -47t-46 -20q-35 0 -55 27zM267 365q-20 27 -20 70q0 53 27 98t82 71l42 -39q-39 -13 -65 -41t-33 -61l4 -2q9 7 28 7q21 0 38 -16.5t17 -46.5
q0 -27 -19 -47t-46 -20q-35 0 -55 27z" />
    <glyph glyph-name="quotedblright.sc" horiz-adv-x="459" 
d="M196 568q20 -27 20 -70q0 -53 -27 -98t-82 -71l-42 39q39 13 65 41t33 61l-4 2q-9 -7 -28 -7q-21 0 -38 16.5t-17 46.5q0 27 19 47t46 20q35 0 55 -27zM380 568q20 -27 20 -70q0 -53 -27 -98t-82 -71l-42 39q39 13 65 41t33 61l-4 2q-9 -7 -28 -7q-21 0 -38 16.5
t-17 46.5q0 27 19 47t46 20q35 0 55 -27z" />
    <glyph glyph-name="quoteleft.sc" horiz-adv-x="275" 
d="M83 365q-20 27 -20 70q0 53 27 98t82 71l42 -39q-39 -13 -65 -41t-33 -61l4 -2q9 7 28 7q21 0 38 -16.5t17 -46.5q0 -27 -19 -47t-46 -20q-35 0 -55 27z" />
    <glyph glyph-name="quoteright.sc" horiz-adv-x="275" 
d="M196 568q20 -27 20 -70q0 -53 -27 -98t-82 -71l-42 39q39 13 65 41t33 61l-4 2q-9 -7 -28 -7q-21 0 -38 16.5t-17 46.5q0 27 19 47t46 20q35 0 55 -27z" />
    <glyph glyph-name="quotesingle.sc" horiz-adv-x="237" 
d="M144 345h-62v247h88z" />
    <glyph glyph-name="uni00A0" unicode="&#xa0;" horiz-adv-x="341" 
 />
    <glyph glyph-name="space.tf" horiz-adv-x="302" 
 />
    <glyph glyph-name="Euro" unicode="&#x20ac;" horiz-adv-x="700" 
d="M660 169q-27 -83 -94.5 -131t-151.5 -48q-104 0 -172 59t-92 165h-88v65h78q-2 32 -2 51q0 24 1 35h-77v65h85q21 114 90 177t175 63q86 0 147.5 -40t88.5 -114l-72 -34q-17 56 -59 87t-98 31q-70 0 -120 -45t-70 -125h238l-20 -65h-228q-1 -11 -1 -35q0 -27 3 -51h206
l-20 -65h-174q20 -73 67.5 -113.5t114.5 -40.5q58 0 106.5 36t65.5 100z" />
    <glyph glyph-name="cent" unicode="&#xa2;" horiz-adv-x="567" 
d="M451 36q-47 -38 -114 -45v-91h-67v92q-96 13 -149 80.5t-53 177.5t53 177.5t149 80.5v92h67v-91q127 -12 178 -132l-76 -36q-28 87 -102 101v-385q85 13 111 106l72 -25q-22 -64 -69 -102zM176 119.5q33 -49.5 94 -61.5v384q-61 -12 -94 -61.5t-33 -130.5t33 -130.5z" />
    <glyph glyph-name="currency" unicode="&#xa4;" horiz-adv-x="665" 
d="M506 204l89 -87l-51 -51l-90 87q-53 -35 -121 -35q-70 0 -125 38l-87 -90l-51 51l88 90q-36 52 -36 122q0 69 37 124l-89 87l51 51l89 -88q53 36 123 36q72 0 124 -37l87 89l51 -51l-87 -89q35 -54 35 -122q0 -70 -37 -125zM426 229q37 39 37 100q0 60 -37 99t-93 39
q-57 0 -94 -39t-37 -99q0 -61 37 -100t94 -39q56 0 93 39z" />
    <glyph glyph-name="dollar" unicode="$" horiz-adv-x="615" 
d="M279 1q-87 8 -146.5 51t-85.5 119l74 38q11 -54 55 -91.5t103 -48.5v232q-65 14 -107.5 30.5t-70.5 49.5t-28 88q0 50 25 91t71.5 67.5t109.5 31.5v101h69v-102q74 -6 122.5 -39.5t83.5 -98.5l-65 -51q-25 58 -57 86t-84 35v-235q65 -14 107.5 -30.5t71 -50.5t28.5 -91
q0 -77 -56 -125.5t-151 -56.5v-101h-69v101zM279 591q-64 -6 -97 -36t-33 -80q0 -45 33.5 -68t96.5 -38v222zM480 177q0 46 -34.5 70t-97.5 39v-219q132 11 132 110z" />
    <glyph glyph-name="florin" unicode="&#x192;" horiz-adv-x="488" 
d="M340 641q-19 -21 -26 -65l-28 -176h148v-69h-159l-49 -308q-24 -151 -150 -151q-30 0 -49 5t-43 19l12 72q32 -23 73 -23q32 0 51 21t26 65l48 300h-140v69h151l29 184q24 151 150 151q30 0 49 -5t43 -19l-12 -72q-32 23 -73 23q-32 0 -51 -21z" />
    <glyph glyph-name="sterling" unicode="&#xa3;" horiz-adv-x="626" 
d="M589 153q0 -80 -35.5 -121.5t-100.5 -41.5q-41 0 -76 15t-77 43q-53 -58 -140 -58q-50 0 -80 24t-30 62q0 37 32 63t86 26q60 0 117 -33q5 22 5 41q0 26 -9 50t-30 55h-165v65h115q-29 39 -41 67t-12 57q0 58 27 104.5t75 72.5t109 26q79 0 128 -38.5t71 -117.5l-69 -38
q-15 60 -46 90.5t-88 30.5q-61 0 -97 -32t-36 -85q0 -28 12 -55t46 -75l5 -7h188v-65h-148q25 -50 25 -101q0 -39 -17 -79q31 -22 55 -33t54 -11q43 0 62 23t20 76h65zM255 77q-49 28 -86 28q-46 0 -46 -29q0 -15 13 -23.5t34 -8.5q52 0 85 33z" />
    <glyph glyph-name="uni20BA" unicode="&#x20ba;" horiz-adv-x="650" 
d="M602 268q-5 -136 -68.5 -202t-185.5 -66h-156v262l-129 -37v58l129 37v92l-129 -37v58l129 37v190h75v-168l211 61v-58l-211 -61v-92l211 61v-58l-211 -61v-216h73q94 0 139.5 49t45.5 151h77z" />
    <glyph glyph-name="uni20BD" unicode="&#x20bd;" horiz-adv-x="645" 
d="M223 261v-70h178v-63h-178v-128h-75v128h-95v63h95v70h-95v70h95v329h233q100 0 161 -54.5t61 -146.5q0 -90 -61 -144t-161 -54h-158zM223 331h146q77 0 113.5 32t36.5 96t-36.5 96t-113.5 32h-146v-256z" />
    <glyph glyph-name="yen" unicode="&#xa5;" horiz-adv-x="620" 
d="M408 297h130v-60h-193v-75h193v-55h-193v-107h-70v107h-192v55h192v75h-192v60h129l44 -4l-222 367h93l134 -243l48 -99h2l48 100l134 242h93l-222 -367z" />
    <glyph glyph-name="cent.tf" 
d="M453 36q-47 -38 -114 -45v-91h-67v92q-96 13 -149 80.5t-53 177.5t53 177.5t149 80.5v92h67v-91q127 -12 178 -132l-76 -36q-28 87 -102 101v-385q85 13 111 106l72 -25q-22 -64 -69 -102zM178 119.5q33 -49.5 94 -61.5v384q-61 -12 -94 -61.5t-33 -130.5t33 -130.5z" />
    <glyph glyph-name="currency.tf" 
d="M475 204l89 -87l-51 -51l-90 87q-53 -35 -121 -35q-70 0 -125 38l-87 -90l-51 51l88 90q-36 52 -36 122q0 69 37 124l-89 87l51 51l89 -88q53 36 123 36q72 0 124 -37l87 89l51 -51l-87 -89q35 -54 35 -122q0 -70 -37 -125zM395 229q37 39 37 100q0 60 -37 99t-93 39
q-57 0 -94 -39t-37 -99q0 -61 37 -100t94 -39q56 0 93 39z" />
    <glyph glyph-name="dollar.tf" 
d="M500 57.5q-56 -48.5 -151 -56.5v-101h-69v101q-87 8 -146.5 51t-85.5 119l74 38q11 -54 55 -91.5t103 -48.5v232q-65 14 -107.5 30.5t-70.5 49.5t-28 88q0 50 25 91t71.5 67.5t109.5 31.5v101h69v-102q74 -6 122.5 -39.5t83.5 -98.5l-65 -51q-25 58 -57 86t-84 35v-235
q65 -14 107.5 -30.5t71 -50.5t28.5 -91q0 -77 -56 -125.5zM183.5 407q33.5 -23 96.5 -38v222q-64 -6 -97 -36t-33 -80q0 -45 33.5 -68zM481 177q0 46 -34.5 70t-97.5 39v-219q132 11 132 110z" />
    <glyph glyph-name="Euro.tf" 
d="M588 169q-20 -85 -81 -132t-152 -47q-97 0 -161.5 59t-87.5 165h-87v65h78q-2 32 -2 51q0 24 1 35h-77v65h85q21 113 87.5 176.5t166.5 63.5q85 0 141.5 -39.5t75.5 -114.5l-72 -34q-9 56 -46 87t-92 31q-64 0 -112 -45t-67 -125h228l-20 -65h-218q-1 -11 -1 -35
q0 -19 2 -51h197l-20 -65h-165q19 -73 62.5 -113.5t104.5 -40.5q65 0 107 35t52 101z" />
    <glyph glyph-name="florin.tf" 
d="M385 576l-32 -176h175v-69h-187l-55 -308q-13 -74 -54.5 -112.5t-109.5 -38.5q-33 0 -53 5t-45 19l13 72q33 -23 78 -23q76 0 91 86l54 300h-157v69h170l33 184q27 151 163 151q33 0 53 -5t44 -19l-11 -72q-36 23 -78 23q-77 0 -92 -86z" />
    <glyph glyph-name="uni20BA.tf" 
d="M565 268q-5 -136 -68.5 -202t-185.5 -66h-156v262l-129 -37v58l129 37v92l-129 -37v58l129 37v190h75v-168l211 61v-58l-211 -61v-92l211 61v-58l-211 -61v-216h73q94 0 139.5 49t45.5 151h77z" />
    <glyph glyph-name="uni20BD.tf" 
d="M200 261v-70h173v-63h-173v-128h-75v128h-95v63h95v70h-95v70h95v329h228q100 0 161 -54.5t61 -146.5q0 -90 -61 -144t-161 -54h-153zM200 331h141q77 0 113.5 32t36.5 96t-36.5 96t-113.5 32h-141v-256z" />
    <glyph glyph-name="sterling.tf" 
d="M558 153q0 -80 -34 -121.5t-97 -41.5q-39 0 -71.5 14.5t-75.5 42.5q-50 -57 -135 -57q-49 0 -77.5 24t-28.5 62q0 37 30.5 63t83.5 26q58 0 111 -32q4 17 4 40q0 26 -8.5 50t-29.5 55h-158v65h110q-27 38 -38.5 66.5t-11.5 57.5q0 58 26 104.5t72.5 72.5t105.5 26
q76 0 123.5 -38.5t68.5 -117.5l-69 -38q-14 60 -43.5 90.5t-83.5 30.5q-58 0 -92 -32t-34 -85q0 -29 11.5 -56.5t43.5 -74.5l4 -6h181v-65h-142q24 -51 24 -103q0 -41 -16 -77q29 -22 52 -33t52 -11q40 0 58 23t19 76h65zM236 77q-47 28 -82 28q-43 0 -43 -29
q0 -15 12 -23.5t32 -8.5q50 0 81 33z" />
    <glyph glyph-name="yen.tf" 
d="M400 297h130v-60h-193v-75h193v-55h-193v-107h-70v107h-192v55h192v75h-192v60h129l44 -4l-222 367h93l134 -243l48 -99h2l48 100l134 242h93l-222 -367z" />
    <glyph glyph-name="approxequal" unicode="&#x2248;" 
d="M247 485.5q27 -9.5 66 -27.5q34 -16 57.5 -24.5t46.5 -8.5q36 0 65.5 12t62.5 43v-73q-30 -28 -61 -41.5t-68 -13.5q-27 0 -52.5 9t-62.5 27q-39 18 -62 26t-48 8q-43 0 -72 -12.5t-60 -42.5v73q33 30 61.5 42.5t70.5 12.5q29 0 56 -9.5zM247 285.5q27 -9.5 66 -27.5
q34 -16 57.5 -24.5t46.5 -8.5q36 0 65.5 12t62.5 43v-73q-30 -28 -61 -41.5t-68 -13.5q-27 0 -52.5 9t-62.5 27q-39 18 -62 26t-48 8q-43 0 -72 -12.5t-60 -42.5v73q33 30 61.5 42.5t70.5 12.5q29 0 56 -9.5z" />
    <glyph glyph-name="asciitilde" unicode="~" horiz-adv-x="540" 
d="M458 272.5q-33 -37.5 -91 -37.5q-33 0 -57 11t-54 31q-23 16 -39 24t-36 8q-49 0 -62 -74h-76q12 149 131 149q32 0 56 -10.5t55 -31.5q23 -16 39 -24t35 -8q49 0 62 74h76q-6 -74 -39 -111.5z" />
    <glyph glyph-name="divide" unicode="&#xf7;" 
d="M349 558q18 -18 18 -47t-18 -47t-47 -18t-47 18t-18 47t18 47t47 18t47 -18zM545 279h-486v75h486v-75zM349 167q18 -18 18 -47t-18 -47t-47 -18t-47 18t-18 47t18 47t47 18t47 -18z" />
    <glyph glyph-name="equal" unicode="=" 
d="M540 366h-476v75h476v-75zM540 166h-476v75h476v-75z" />
    <glyph glyph-name="uni208C" unicode="&#x208c;" horiz-adv-x="382" 
d="M53 97h276v-53h-276v53zM53 -29h276v-53h-276v53z" />
    <glyph glyph-name="uni207C" unicode="&#x207c;" horiz-adv-x="382" 
d="M53 619h276v-53h-276v53zM53 493h276v-53h-276v53z" />
    <glyph glyph-name="greater" unicode="&#x3e;" 
d="M533 346v-93l-476 -225v83l412 189l-412 188v83z" />
    <glyph glyph-name="greaterequal" unicode="&#x2265;" 
d="M535 429v-99l-481 -204v85l418 169l-418 168v85zM54 75h481v-75h-481v75z" />
    <glyph glyph-name="infinity" unicode="&#x221e;" horiz-adv-x="886" 
d="M733 476q38 -24 60 -69.5t22 -106.5t-22 -106.5t-60 -69.5t-83 -24q-52 0 -97 32.5t-115 111.5q-55 -65 -86.5 -95t-56 -39.5t-59.5 -9.5q-45 0 -83 24t-60 69.5t-22 106.5t22 106.5t60 69.5t83 24q54 0 100 -32.5t111 -109.5q56 65 90 95t57 38.5t56 8.5q45 0 83 -24z
M712.5 215.5q24.5 35.5 24.5 94.5q0 60 -25 95t-60 35q-24 0 -41 -9t-42.5 -35t-78.5 -90q56 -67 94 -96.5t69 -29.5q35 0 59.5 35.5zM275.5 169.5q17.5 9.5 40.5 34.5t78 90q-66 74 -97 100t-63 26q-35 0 -60 -35t-25 -95t25 -95t60 -35q24 0 41.5 9.5z" />
    <glyph glyph-name="integral" unicode="&#x222b;" horiz-adv-x="459" 
d="M393 752.5q18 -5.5 39 -18.5l-12 -72q-32 23 -73 23q-33 0 -55 -21.5t-22 -64.5v-576q0 -68 -40.5 -109.5t-109.5 -41.5q-35 0 -53 5.5t-39 18.5l12 72q32 -23 73 -23q33 0 55 21.5t22 64.5v576q0 68 40.5 109.5t109.5 41.5q35 0 53 -5.5z" />
    <glyph glyph-name="less" unicode="&#x3c;" 
d="M547 488l-412 -188l412 -189v-83l-476 225v93l476 225v-83z" />
    <glyph glyph-name="lessequal" unicode="&#x2264;" 
d="M550 548l-418 -168l418 -169v-85l-481 204v99l481 204v-85zM69 75h481v-75h-481v75z" />
    <glyph glyph-name="logicalnot" unicode="&#xac;" 
d="M545 354v-223h-80v148h-406v75h486z" />
    <glyph glyph-name="minus" unicode="&#x2212;" 
d="M545 279h-486v75h486v-75z" />
    <glyph glyph-name="uni208B" unicode="&#x208b;" horiz-adv-x="342" 
d="M27 32h288v-49h-288v49z" />
    <glyph glyph-name="uni207B" unicode="&#x207b;" horiz-adv-x="342" 
d="M27 554h288v-49h-288v49z" />
    <glyph glyph-name="multiply" unicode="&#xd7;" 
d="M355 318l167 -168l-53 -53l-167 168l-168 -168l-53 53l168 168l-168 167l53 53l168 -167l167 167l53 -53z" />
    <glyph glyph-name="notequal" unicode="&#x2260;" 
d="M376 371l-68 -135h232v-70h-267l-51 -102h-79l51 102h-130v70h165l68 135h-233v70h268l51 102h79l-51 -102h129v-70h-164z" />
    <glyph glyph-name="partialdiff" unicode="&#x2202;" horiz-adv-x="620" 
d="M548 330q0 -166 -65.5 -253t-190.5 -87q-68 0 -119.5 28.5t-79.5 79.5t-28 116t29 116t79.5 79.5t114.5 28.5q58 0 106.5 -24.5t79.5 -68.5q-3 135 -51 196t-143 61q-44 0 -74.5 -14t-63.5 -47l-41 59q80 70 181 70q266 0 266 -340zM409.5 107.5q44.5 45.5 58.5 133.5
q-20 59 -65 92.5t-116 33.5q-68 0 -105 -40.5t-37 -111.5q0 -72 38 -112.5t109 -40.5q73 0 117.5 45.5z" />
    <glyph glyph-name="percent" unicode="%" horiz-adv-x="856" 
d="M315 620.5q43 -49.5 43 -132.5t-43 -132.5t-116 -49.5t-116 49.5t-43 132.5t43 132.5t116 49.5t116 -49.5zM600 660h76l-420 -660h-76zM134 576q-23 -31 -23 -88t23 -88t65 -31t65 31t23 88t-23 88t-65 31t-65 -31zM773 304.5q43 -49.5 43 -132.5t-43 -132.5t-116 -49.5
t-116 49.5t-43 132.5t43 132.5t116 49.5t116 -49.5zM592 260q-23 -31 -23 -88t23 -88t65 -31t65 31t23 88t-23 88t-65 31t-65 -31z" />
    <glyph glyph-name="perthousand" unicode="&#x2030;" horiz-adv-x="1244" 
d="M315 620.5q43 -49.5 43 -132.5t-43 -132.5t-116 -49.5t-116 49.5t-43 132.5t43 132.5t116 49.5t116 -49.5zM600 660h76l-420 -660h-76zM134 576q-23 -31 -23 -88t23 -88t65 -31t65 31t23 88t-23 88t-65 31t-65 -31zM773 304.5q43 -49.5 43 -132.5t-43 -132.5t-116 -49.5
t-116 49.5t-43 132.5t43 132.5t116 49.5t116 -49.5zM1161 304.5q43 -49.5 43 -132.5t-43 -132.5t-116 -49.5t-116 49.5t-43 132.5t43 132.5t116 49.5t116 -49.5zM592 260q-23 -31 -23 -88t23 -88t65 -31t65 31t23 88t-23 88t-65 31t-65 -31zM980 260q-23 -31 -23 -88t23 -88
t65 -31t65 31t23 88t-23 88t-65 31t-65 -31z" />
    <glyph glyph-name="plus" unicode="+" 
d="M545 279h-205v-211h-75v211h-206v75h206v210h75v-210h205v-75z" />
    <glyph glyph-name="uni208A" unicode="&#x208a;" horiz-adv-x="342" 
d="M315 -17h-115v-120h-57v120h-116v49h116v120h57v-120h115v-49z" />
    <glyph glyph-name="plusminus" unicode="&#xb1;" 
d="M545 434v-75h-205v-205h-75v205h-206v75h206v206h75v-206h205zM59 75h486v-75h-486v75z" />
    <glyph glyph-name="uni207A" unicode="&#x207a;" horiz-adv-x="342" 
d="M315 505h-115v-120h-57v120h-116v49h116v120h57v-120h115v-49z" />
    <glyph glyph-name="product" unicode="&#x220f;" horiz-adv-x="700" 
d="M609 -128h-80v713h-358v-713h-80v788h518v-788z" />
    <glyph glyph-name="radical" unicode="&#x221a;" horiz-adv-x="672" 
d="M672 818l-324 -818h-79l-145 354h-104v75h149l114 -273l27 -82l27 85l257 659h78z" />
    <glyph glyph-name="summation" unicode="&#x2211;" horiz-adv-x="637" 
d="M574 585h-411l322 -310v-14l-323 -314h412v-75h-516v75l327 321l-327 317v75h516v-75z" />
    <glyph glyph-name="uni00B5" unicode="&#xb5;" horiz-adv-x="611" 
d="M525 500v-500h-65l-7 81q-52 -91 -182 -91q-66 0 -104 45v-245h-80v710h80v-306q0 -73 30 -103.5t88 -30.5q65 0 107.5 33t52.5 91v316h80z" />
    <glyph glyph-name="uni2126" unicode="&#x2126;" horiz-adv-x="774" 
d="M703 68v-68h-259v68q79 21 124 89t45 173q0 82 -28 142t-79 91.5t-119 31.5t-119 -31.5t-79 -91.5t-28 -142q0 -105 45 -173t124 -89v-68h-259v68h146q-66 41 -101 108t-35 154q0 104 37.5 180.5t106.5 118t162 41.5t162 -41.5t106.5 -118t37.5 -180.5q0 -87 -35 -154
t-101 -108h146z" />
    <glyph glyph-name="uni2206" unicode="&#x2206;" horiz-adv-x="699" 
d="M659 67v-67h-619v67l262 593h95zM113 67h473l-237 532z" />
    <glyph glyph-name="uni2215" unicode="&#x2215;" horiz-adv-x="248" 
d="M323 660h79l-477 -660h-79z" />
    <glyph glyph-name="uni2219" unicode="&#x2219;" horiz-adv-x="226" 
d="M160 388q18 -18 18 -47t-18 -47t-47 -18t-47 18t-18 47t18 47t47 18t47 -18z" />
    <glyph glyph-name="arrowup" unicode="&#x2191;" horiz-adv-x="750" 
d="M515.5 509.5q75.5 -68.5 190.5 -138.5l-52 -63q-171 113 -248 220q8 -90 8 -173v-355h-80v355q0 83 8 173q-77 -107 -248 -220l-52 63q115 70 190.5 138.5t138.5 156.5h6q63 -88 138.5 -156.5z" />
    <glyph glyph-name="uni2197" unicode="&#x2197;" horiz-adv-x="750" 
d="M602 321q0 -107 17 -206l-78 -8q-12 75 -12 161q0 110 18 198q-66 -77 -116 -126l-251 -251l-56 56l251 251q49 50 126 116q-89 -18 -198 -18q-86 0 -161 12l8 78q99 -17 206 -17q118 0 264 23l5 -5q-23 -146 -23 -264z" />
    <glyph glyph-name="arrowright" unicode="&#x2192;" horiz-adv-x="750" 
d="M558.5 472.5q68.5 -75.5 156.5 -138.5v-6q-88 -63 -156.5 -138.5t-138.5 -190.5l-63 52q113 171 220 248q-90 -8 -173 -8h-355v80h355q83 0 173 -8q-107 77 -220 248l63 52q70 -115 138.5 -190.5z" />
    <glyph glyph-name="uni2198" unicode="&#x2198;" horiz-adv-x="750" 
d="M593 369q0 -118 23 -264l-5 -5q-146 23 -264 23q-107 0 -206 -17l-8 78q75 12 161 12q109 0 198 -18q-77 66 -126 116l-251 251l56 56l251 -251q50 -49 116 -126q-18 89 -18 198q0 86 12 161l78 -8q-17 -99 -17 -206z" />
    <glyph glyph-name="arrowdown" unicode="&#x2193;" horiz-adv-x="750" 
d="M708 289q-115 -70 -190.5 -138.5t-138.5 -156.5h-6q-63 88 -138.5 156.5t-190.5 138.5l52 63q171 -113 248 -220q-8 90 -8 173v355h80v-355q0 -83 -8 -173q77 107 248 220z" />
    <glyph glyph-name="uni2199" unicode="&#x2199;" horiz-adv-x="750" 
d="M456 196q86 0 161 -12l-8 -78q-99 17 -206 17q-118 0 -264 -23l-5 5q23 146 23 264q0 107 -17 206l78 8q12 -75 12 -161q0 -109 -18 -198q66 77 116 126l251 251l56 -56l-251 -251q-49 -50 -126 -116q89 18 198 18z" />
    <glyph glyph-name="arrowleft" unicode="&#x2190;" horiz-adv-x="750" 
d="M346 291q-83 0 -173 8q107 -77 220 -248l-63 -52q-70 115 -138.5 190.5t-156.5 138.5v6q88 63 156.5 138.5t138.5 190.5l63 -52q-113 -171 -220 -248q90 8 173 8h355v-80h-355z" />
    <glyph glyph-name="uni2196" unicode="&#x2196;" horiz-adv-x="750" 
d="M626 145l-56 -56l-251 251q-50 49 -116 126q18 -88 18 -198q0 -86 -12 -161l-78 8q17 99 17 206q0 118 -23 264l5 5q146 -23 264 -23q107 0 206 17l8 -78q-75 -12 -161 -12q-109 0 -198 18q77 -66 126 -116z" />
    <glyph glyph-name="arrowboth" unicode="&#x2194;" horiz-adv-x="1062" 
d="M870.5 490.5q68.5 -75.5 156.5 -138.5v-6q-88 -63 -156.5 -138.5t-138.5 -190.5l-70 42q119 180 227 257q-63 -7 -133 -7h-450q-70 0 -133 7q108 -77 227 -257l-70 -42q-70 115 -138.5 190.5t-156.5 138.5v6q88 63 156.5 138.5t138.5 190.5l70 -42q-119 -180 -227 -257
q63 7 133 7h450q70 0 133 -7q-108 77 -227 257l70 42q70 -115 138.5 -190.5z" />
    <glyph glyph-name="arrowupdn" unicode="&#x2195;" horiz-adv-x="750" 
d="M664 199l42 -70q-115 -70 -190.5 -138.5t-138.5 -156.5h-6q-63 88 -138.5 156.5t-190.5 138.5l42 70q180 -119 257 -227q-7 63 -7 133v450q0 70 7 133q-77 -108 -257 -227l-42 70q115 70 190.5 138.5t138.5 156.5h6q63 -88 138.5 -156.5t190.5 -138.5l-42 -70
q-180 119 -257 227q7 -63 7 -133v-450q0 -70 -7 -133q77 108 257 227z" />
    <glyph glyph-name="uni25CF" unicode="&#x25cf;" horiz-adv-x="600" 
d="M167.5 24q-59.5 34 -93.5 93.5t-34 132.5t34 132.5t93.5 93.5t132.5 34t132.5 -34t93.5 -93.5t34 -132.5t-34 -132.5t-93.5 -93.5t-132.5 -34t-132.5 34z" />
    <glyph glyph-name="circle" unicode="&#x25cb;" horiz-adv-x="600" 
d="M167.5 24q-59.5 34 -93.5 93.5t-34 132.5t34 132.5t93.5 93.5t132.5 34t132.5 -34t93.5 -93.5t34 -132.5t-34 -132.5t-93.5 -93.5t-132.5 -34t-132.5 34zM392 89.5q41 24.5 64.5 66.5t23.5 94t-23.5 94t-64.5 66.5t-92 24.5t-92 -24.5t-64.5 -66.5t-23.5 -94t23.5 -94
t64.5 -66.5t92 -24.5t92 24.5z" />
    <glyph glyph-name="uni25C6" unicode="&#x25c6;" horiz-adv-x="600" 
d="M35 259l265 265l265 -265l-265 -265z" />
    <glyph glyph-name="uni25C7" unicode="&#x25c7;" horiz-adv-x="600" 
d="M35 259l265 265l265 -265l-265 -265zM452 259l-152 152l-152 -152l152 -152z" />
    <glyph glyph-name="lozenge" unicode="&#x25ca;" horiz-adv-x="587" 
d="M540 330l-199 -330h-95l-198 330l198 330h95zM449 330l-155 272l-155 -272l155 -272z" />
    <glyph glyph-name="uni25AA" unicode="&#x25aa;" horiz-adv-x="600" 
d="M550 500v-500h-500v500h500z" />
    <glyph glyph-name="uni25AB" unicode="&#x25ab;" horiz-adv-x="600" 
d="M50 500h500v-500h-500v500zM470 69v362h-340v-362h340z" />
    <glyph glyph-name="uni25CF.case" horiz-adv-x="780" 
d="M216.5 34.5q-77.5 44.5 -122 122t-44.5 173.5t44.5 173.5t122 122t173.5 44.5t173.5 -44.5t122 -122t44.5 -173.5t-44.5 -173.5t-122 -122t-173.5 -44.5t-173.5 44.5z" />
    <glyph glyph-name="circle.case" horiz-adv-x="780" 
d="M216.5 34.5q-77.5 44.5 -122 122t-44.5 173.5t44.5 173.5t122 122t173.5 44.5t173.5 -44.5t122 -122t44.5 -173.5t-44.5 -173.5t-122 -122t-173.5 -44.5t-173.5 44.5zM523.5 99.5q59.5 34.5 93 95t33.5 135.5t-33.5 135.5t-93 95t-133.5 34.5t-133.5 -34.5t-93 -95
t-33.5 -135.5t33.5 -135.5t93 -95t133.5 -34.5t133.5 34.5z" />
    <glyph glyph-name="uni25C6.case" horiz-adv-x="780" 
d="M50 330l340 340l340 -340l-340 -340z" />
    <glyph glyph-name="uni25C7.case" horiz-adv-x="780" 
d="M50 330l340 340l340 -340l-340 -340zM625 330l-235 235l-235 -235l235 -235z" />
    <glyph glyph-name="uni25AA.case" horiz-adv-x="780" 
d="M720 660v-660h-660v660h660z" />
    <glyph glyph-name="uni25AB.case" horiz-adv-x="780" 
d="M62 660h656v-660h-656v660zM638 69v522h-496v-522h496z" />
    <glyph glyph-name="uni275B" unicode="&#x275b;" horiz-adv-x="730" 
d="M630 600q-191 0 -296 -46t-163 -137l7 -5q41 31 84.5 44.5t114.5 13.5q133 0 207.5 -63.5t74.5 -176.5t-75 -176.5t-208 -63.5q-163 0 -235.5 74.5t-72.5 216.5q0 180 125 282t390 102z" />
    </font>
</defs>
</svg>
